<?xml version="1.0" encoding="UTF-8" standalone="no"?><!DOCTYPE svg PUBLIC "-//W3C//DTD SVG 1.1//EN" "http://www.w3.org/Graphics/SVG/1.1/DTD/svg11.dtd"><svg width="100%" height="100%" viewBox="0 0 34725 34725" version="1.1" xmlns="http://www.w3.org/2000/svg" xmlns:xlink="http://www.w3.org/1999/xlink" xml:space="preserve" xmlns:serif="http://www.serif.com/" style="fill-rule:evenodd;clip-rule:evenodd;stroke-linejoin:round;stroke-miterlimit:2;"><g><path d="M16529.02,20131.457c-161.441,-114.308 -333.752,-226.449 -512.719,-336.927c-762.898,-470.928 -1643.407,-916.988 -2264.989,-1425.924c-440.524,-360.988 -750,-752.625 -778.396,-1209.607c0,-44.309 -67.568,-80.401 -150.095,-80.401c-82.527,0 -150.095,36.092 -150.095,80.401c-30.963,495.813 249.134,932.027 676.759,1340.331c889.795,849.711 2472.352,1561.303 3129.525,2437.259c-28.365,464.644 -54.669,929.557 -78.914,1394.486c-140.302,2692.962 -27.858,5393.318 -94.919,8089.288c-28.872,1149.168 -90.799,2297.243 -219.216,3443.403c-22.692,240.396 323.42,445.506 772.184,457.268c448.257,12.3 831.005,-173.387 853.19,-413.782c86.647,-1160.375 105.757,-2321.859 91.306,-3484.149c-8.779,-685.616 -28.872,-1371.786 -53.655,-2057.402c113.997,-26.531 206.317,-78.771 244.507,-147.679c184.671,-373.842 396.154,-714.6 628.776,-1045.798c359.518,-512.784 764.451,-1001.758 1185.357,-1550.902c374.477,-488.991 661.8,-1048.805 1072.406,-1559.942c174.34,-217.141 369.85,-424.99 606.623,-614.238c47.982,-36.092 32.485,-86.147 -34.545,-112.124c-67.568,-25.708 -161.441,-17.223 -209.423,18.869c-269.258,189.803 -498.299,400.643 -705.662,622.169c-465.275,496.922 -813.986,1046.604 -1241.58,1523.01c-483.34,538.76 -944.464,1017.619 -1362.803,1521.649c-76.854,92.163 -151.648,185.149 -224.889,279.764c-66.554,-1653.466 -137.735,-3306.663 -113.997,-4957.927c50.549,-3468.556 220.769,-6923.166 319.3,-10380.784c61.388,-18.601 115.55,-45.401 155.261,-79.863c950.676,-880.879 1947.749,-1767.505 2872.627,-2657.408c632.389,-607.954 1230.234,-1216.177 1756.39,-1825.206c37.143,-39.654 7.226,-87.794 -67.061,-107.755c-73.748,-19.693 -164.04,-3.831 -201.183,36.092c-588.052,586.346 -1247.253,1169.684 -1940.523,1752.198c-825.332,693.278 -1697.569,1382.993 -2553.865,2069.97c4.627,-194.44 9.286,-388.612 13.406,-583.069c36.636,-1682.182 50.042,-3365.186 18.572,-5051.737c0,-83.14 -125.85,-150.686 -281.111,-150.686c-155.261,0 -281.111,67.547 -281.111,150.686c-31.471,1684.097 -107.817,3364.094 -207.87,5042.982c-189.298,3191.8 -462.17,6377.853 -667.473,9573.467" style="fill:#6c4200;"/><path d="M12562.31,2532.149c-614.356,-104.748 -1536.128,-281.68 -2202.048,-138.924c-1250.358,268.019 -1622.268,1846.814 -639.108,2340.997c532.336,267.196 1844.59,561.461 2557.985,348.958c315.688,-94.078 512.212,-277.58 728.354,-422.52c86.14,-57.7 171.265,-275.664 171.265,-201.834c0,531.922 -751.553,1688.197 787.143,1743.158c200.644,7.376 529.231,33.37 719.068,-18.315c406.993,-110.494 599.905,-373.305 753.105,-587.169c55.208,-76.57 97.486,-278.134 205.303,-220.148c493.133,264.457 -430.699,1083.536 1746.059,1064.112c1045.594,-9.023 638.601,-629.545 924.371,-935.572c29.411,-31.992 81.513,57.7 102.652,91.608c59.328,95.439 74.287,169.287 161.441,251.334c261.525,244.764 891.855,333.365 1378.808,335.835c297.623,1.647 759.285,49.501 1061.06,0c972.321,-159.44 2325.87,-837.949 2773.081,-1339.508c654.574,-733.47 476.114,-1504.695 -1198.256,-1504.695c-88.707,0 -424.519,-29.27 -513.258,18.315c-94.412,50.593 153.201,82.585 205.303,55.247c266.691,-140.571 205.303,-534.375 205.303,-715.692c0,-521.521 -302.789,-916.165 -1316.374,-1097.197c-991.432,-177.218 -1747.104,-5.192 -2209.274,455.066c-65.508,65.094 -171.265,201.834 -171.265,201.834c0,0 48.489,-439.49 -137.196,-623.816c-305.356,-304.111 -1081.185,-659.908 -1745.552,-697.378c-740.714,-41.839 -933.118,71.378 -1403.559,348.689c-123.79,72.739 -270.811,175.302 -308.462,275.127c-22.185,59.885 80.974,226.718 0,183.502c-1286.456,-689.716 -2396.005,-211.394 -2396.005,679.046l-239.848,109.94" style="fill:#97af20;"/><path d="M21093.543,6649.406c-96.979,-13.946 -301.743,-46.224 -397.707,-51.147c-202.197,-10.67 -426.072,170.648 -541.115,230.264c-639.615,330.912 -494.686,1006.95 270.811,1261.846c338.886,112.679 1225.1,211.949 1595.964,95.994c180.013,-56.339 339.425,-174.21 471.455,-257.887c53.655,-33.908 100.592,-133.732 159.381,-102.278c62.941,33.639 -5.166,219.88 0,272.657c20.125,203.749 121.223,443.036 472.501,556.252c292.489,94.078 1042.488,163.54 1350.95,68.925c162.994,-49.769 185.178,-106.378 228.502,-198.826c14.452,-30.9 -1.046,-120.324 31.978,-93.809c660.247,531.098 1700.675,182.679 2226.832,-255.703c86.647,-72.47 136.689,-172.294 158.874,-255.972c10.332,-39.385 -90.26,-119.232 -16.005,-119.232c646.841,0 1251.404,-233.002 1399.946,-597.015c122.776,-301.104 41.771,-620.522 -477.128,-784.348c-174.878,-54.962 -289.383,-77.393 -493.133,-85.055c-63.448,-2.453 -175.385,33.084 -190.851,0c-37.651,-80.132 25.29,-174.21 0,-255.972c-65.001,-207.849 -696.376,-354.704 -1018.244,-366.466c-667.473,-24.616 -998.119,102.009 -1542.847,298.365c-150.095,54.155 -214.589,123.617 -270.304,213.041c-23.738,38.293 -13.913,158.348 -31.978,119.517c-155.768,-334.474 -1134.808,-747.416 -1760.003,-523.991c-147.528,52.777 -381.196,137.563 -466.828,225.626c-52.609,54.155 -67.568,120.609 -79.453,178.864c-3.613,17.223 16.005,51.147 -16.005,51.147c-19.586,0 -171.773,-180.225 -254.807,-204.556c-208.916,-60.994 -392.034,-85.324 -636.002,-85.324c-592.172,0 -477.128,163.003 -477.128,460.544l302.282,204.556" style="fill:#97af20;"/><path d="M7591.808,9017.472c-631.882,-103.924 -1434.523,-193.903 -2093.724,-85.055c-1502.091,247.772 -2891.198,1852.006 -1750.21,2551.299c693.27,424.435 2601.309,303.557 2723.039,368.65c206.856,111.032 -254.299,1325.293 1570.705,1423.202c1116.236,59.616 1440.703,-597.015 1686.223,-597.015c69.628,0 206.856,345.127 245.521,394.09c190.344,243.118 561.208,489.798 1064.134,549.968c573.093,68.101 1380.868,107.755 1737.819,-193.079c232.115,-196.087 263.078,-228.903 419.892,-469.567c3.106,-4.654 62.402,-202.926 105.219,-187.602c759.824,271.296 769.11,727.74 1856.443,807.317c1637.734,119.517 2028.216,-354.973 3046.998,-901.127c344.052,-184.594 1942.615,678.777 3572.616,-544.507c191.897,-144.402 493.64,-229.171 609.698,-399.836c170.22,-251.334 230.562,-535.467 230.562,-801.571c0,-275.127 99.546,-1035.666 -2066.405,-1201.676c-676.759,-51.685 -1675.416,-110.763 -2276.335,112.679c-238.327,88.332 -431.745,268.019 -525.618,412.959c-54.162,83.677 -67.568,351.428 -69.628,262.81c-62.941,-2260.596 -3584.976,-1383.262 -3572.616,-1407.878c195.51,-392.997 171.265,-866.664 -595.278,-1070.128c-892.9,-237.102 -2499.703,-156.97 -3222.352,206.471c-269.258,135.093 -650.454,336.927 -840.798,506.768c-138.242,123.617 -38.696,270.472 -35.083,262.81c324.973,-696.017 -2406.844,-613.415 -2311.419,0l490.566,0" style="fill:#97af20;"/><path d="M4840.404,15076.444c-1220.441,-102.009 -1252.957,15.307 -2467.725,221.241c-1784.755,302.465 -2826.736,1840.244 -2179.356,2543.099c337.872,367.004 1228.174,734.562 2011.736,930.649c521.498,130.456 1212.708,176.125 1801.267,182.141c665.413,6.57 1445.33,68.639 1954.468,-151.778c317.24,-137.295 853.697,-644.315 905.26,-644.6c6.719,0 -1.046,512.229 9.286,551.329c73.748,279.227 598.859,513.321 1258.091,545.314c515.825,25.154 1248.806,16.131 1487.132,-226.449c76.347,-77.948 110.892,-178.041 128.956,-261.449c10.332,-47.031 -3.106,-189.517 -2.06,-142.218c10.332,615.599 2676.61,791.456 3545.804,392.174c476.114,-218.519 186.731,-559.277 445.151,-784.617c143.915,-125.247 129.463,196.91 840.798,493.914c50.042,21.054 105.219,39.923 161.441,57.431c903.2,283.595 2169.056,398.189 3261.555,442.212c1686.762,67.816 4313.33,104.193 5697.81,-418.42c529.738,-199.918 943.45,-557.361 985.22,-858.448c21.139,-150.417 44.876,-189.803 -171.265,-283.595c-95.933,-41.839 1065.687,165.187 1525.29,152.871c2172.131,-59.078 2277.888,-674.408 2415.623,-1061.105c160.427,-447.421 37.143,-1003.673 -1226.114,-1132.214c-94.412,-9.846 -247.581,38.293 -291.443,1.361c-69.628,-58.255 30.425,-167.64 -4.12,-231.373c-206.317,-384.243 -1300.401,-737.301 -2218.56,-718.7c-1277.17,25.977 -1610.922,248.327 -2659.084,534.375c-302.789,82.585 -576.167,248.327 -573.6,405.851c0,6.015 0.507,23.793 0.507,17.777c-3.106,-183.787 -546.788,-317.503 -881.016,-386.982c-771.17,-160.533 -1979.219,-268.557 -2834.976,-199.918c-305.895,24.347 -567.927,116.224 -829.959,181.872c-25.798,6.57 -204.257,61.262 -206.856,54.155c-389.436,-954.996 -2329.99,-1113.344 -4376.271,-1103.498c-980.054,4.654 -1466.5,329.819 -1460.289,704.485c0,11.762 0.507,47.316 0.507,35.554c-11.346,-688.086 -1791.474,-721.17 -3133.645,-643.223c-390.482,22.7 -697.897,121.147 -870.209,271.027c-37.143,32.278 -12.392,140.84 -39.711,106.932c-325.48,-406.658 -1966.32,-564.183 -1957.573,-8.485l-52.102,431.274" style="fill:#97af20;"/><path d="M13863.725,21753.754c-3366.806,-439.759 -4539.771,1471.056 -3126.926,1943.631c770.631,257.887 4292.191,559.545 4750.24,150.686c130.509,-116.51 0,27.069 0,156.702c0,420.066 -11.853,877.048 1184.343,978.52c2276.842,193.348 2083.931,-919.71 2193.808,-919.71c21.139,0 556.074,422.251 613.818,450.143c449.81,216.049 1239.013,304.111 1887.407,266.641c730.414,-42.393 740.714,-810.863 964.081,-1010.512c78.914,-70.286 253.285,110.763 350.771,176.125c305.895,204.841 262.571,201.01 614.356,391.62c510.152,276.219 1658.366,388.074 2413.024,293.442c701.51,-88.063 975.934,-706.955 1315.867,-782.97c207.87,-46.224 2756.569,278.134 3703.632,165.456c1187.956,-141.394 2163.384,-552.707 2438.315,-1104.859c80.467,-161.625 192.911,-517.976 -43.831,-665.654c-130.509,-80.955 -770.124,-111.855 -570.494,-156.433c970.261,-216.603 1022.364,-507.86 965.096,-998.212c-78.407,-676.593 -4234.416,-801.571 -4869.404,-234.918c-23.199,20.516 -628.776,-347.597 -833.572,-430.736c-629.822,-255.434 -1597.009,-255.972 -2390.84,-232.465c-881.016,26.246 -1509.824,294.265 -2171.624,526.175c-162.487,56.877 -329.093,117.316 -438.464,195.818c-48.996,35 -22.692,146.586 -87.693,117.316c-903.739,-403.113 -2809.179,-1122.636 -4211.724,-606.862c-241.401,88.886 -708.229,392.997 -877.435,430.736c-171.265,38.293 -681.924,-287.157 -745.88,-313.134c-366.744,-150.149 -1109.011,-151.778 -1578.945,-117.602c-1331.332,97.086 -1535.621,860.649 -1272.543,1331.023l-175.385,0" style="fill:#97af20;"/><path d="M6045.886,26215.582c-435.358,-43.485 -1087.872,-147.679 -1527.35,-42.931c-1121.909,267.465 -1679.536,2063.417 -639.108,2435.344c519.945,185.686 1685.716,181.318 2166.458,-24.061c327.54,-140.017 551.922,-348.42 811.895,-522.344c30.425,-20.516 108.324,-58.255 130.002,-35c254.807,273.211 -108.324,815.786 741.252,929.557c726.801,97.64 1348.383,-17.508 1565.539,-424.435c36.098,-68.101 65.001,-209.21 65.001,-209.21c0,0 229.548,314.227 487.46,383.151c399.26,107.201 1456.707,190.072 1866.775,52.777c498.299,-167.102 626.716,-801.571 666.966,-801.571c142.362,0 220.769,424.435 292.489,505.122c229.548,258.979 738.147,367.289 1234.386,417.882c1132.241,115.686 2957.752,174.479 3833.634,-330.912c295.056,-170.11 726.801,-467.652 812.434,-696.554c61.388,-164.364 95.426,-440.297 32.485,-609.315c-29.918,-80.67 -324.973,-174.21 -324.973,-174.21c0,0 109.37,6.284 162.487,0c352.324,-42.124 638.601,-180.225 714.948,-383.151c282.157,-753.431 -1430.371,-929.557 -2534.247,-818.525c-169.205,16.954 -352.831,105.84 -454.944,174.21c-42.816,28.716 3.613,104.462 -65.001,104.462c-296.07,0 -988.833,-637.207 -1819.331,-644.315c-614.863,-5.192 -821.181,16.131 -1169.385,296.18c-4.627,3.277 -223.368,178.31 -227.488,173.941c-524.604,-561.999 -813.986,-754.809 -2014.303,-905.495c-583.9,-73.293 -1471.666,-104.193 -2014.303,52.239c-324.973,93.809 -356.951,225.072 -356.951,400.643c-958.916,-770.94 -2826.736,-216.049 -2826.736,609.315l389.974,87.239" style="fill:#97af20;"/><path d="M14809.234,3235.811c20.125,-153.963 53.116,-294.819 65.508,-444.128c4.627,-57.986 7.226,-115.132 2.567,-173.118c-2.567,-38.008 -6.719,-76.032 -18.572,-113.502c-12.392,-39.923 -33.531,-77.393 -54.669,-116.51c-22.692,-41.015 -47.443,-76.57 -76.347,-116.51c-60.342,-85.055 -123.79,-150.149 -186.224,-236.565c0,-44.309 -67.568,-80.401 -150.095,-80.401c-82.527,0 -149.588,36.092 -149.588,80.401c-75.84,107.755 -141.855,193.079 -189.837,302.75c-29.918,68.37 -47.982,133.732 -51.056,203.463c-2.06,40.209 8.24,80.401 19.079,120.055c17.019,59.885 40.756,118.14 70.674,176.663c74.287,146.318 171.773,280.856 266.152,428.821c16.512,67.009 131.016,114.308 255.852,105.571c124.836,-8.754 213.036,-70.286 196.524,-137.009" style="fill:#c6ec55;"/><path d="M15737.725,3031.793c103.666,-100.917 236.235,-210.857 364.177,-340.203c43.831,-44.309 86.14,-88.6 123.283,-135.379c23.738,-30.362 46.936,-60.994 62.402,-92.163c20.632,-41.839 26.812,-81.779 37.651,-122.525c7.733,-30.362 7.226,-55.516 10.839,-84.786c10.332,-86.971 -3.106,-148.233 20.125,-217.964c45.383,-36.915 26.812,-86.971 -41.771,-111.301c-68.614,-24.885 -161.98,-14.77 -207.87,22.146c-149.081,52.508 -274.931,106.932 -424.519,196.356c-77.9,46.493 -142.869,96.262 -199.63,154.786c-30.425,31.992 -50.549,67.009 -69.628,102.009c-27.858,52.508 -47.443,105.285 -61.388,158.617c-38.696,149.594 -40.756,284.687 -52.609,403.113c-34.545,64.808 35.591,132.64 156.814,151.241c121.223,18.601 247.581,-19.138 282.157,-83.963" style="fill:#c6ec55;"/><path d="M20321.866,4713.168c-54.162,-128.54 -84.587,-250.511 -132.569,-380.143c-17.526,-47.585 -33.023,-94.078 -54.669,-140.84c-14.452,-29.808 -28.365,-59.885 -48.489,-88.6c-26.305,-37.47 -63.955,-69.462 -95.933,-105.285c-22.692,-25.977 -50.042,-45.67 -75.301,-70.823c-69.628,-69.193 -138.749,-116.778 -194.971,-191.433c2.567,-44.309 -62.941,-81.493 -145.468,-82.871c-82.527,-1.092 -151.648,33.908 -154.247,78.216c-56.222,60.994 -86.14,107.47 -123.283,171.202c-24.245,41.57 -34.038,77.124 -44.369,120.055c-17.019,67.547 -17.019,131.262 1.046,198.826c10.332,38.008 34.545,74.94 60.342,111.032c38.696,53.332 84.08,104.193 139.795,153.156c136.182,121.147 292.996,223.156 456.497,333.365c54.669,60.994 191.358,86.702 304.849,57.431c113.49,-29.27 161.441,-102.278 106.772,-163.271" style="fill:#c6ec55;"/><path d="M21473.725,4587.635c97.993,-78.216 205.81,-126.356 308.462,-191.164c36.636,-23.238 76.347,-42.931 109.37,-67.278c21.139,-15.038 41.771,-30.631 57.775,-47.585c22.185,-23.793 25.798,-48.14 41.771,-74.117c12.392,-19.962 11.346,-35.554 20.125,-56.608c26.812,-61.531 20.632,-97.355 55.208,-162.179c61.895,-29.539 67.568,-80.132 12.392,-113.216c-55.208,-33.37 -149.588,-36.378 -211.483,-6.839c-103.666,7.662 -152.694,14.77 -248.627,28.716c-61.895,9.023 -98.532,19.693 -154.754,34.193c-88.2,22.7 -154.754,49.769 -221.276,86.147c-37.143,20.785 -63.955,46.493 -87.693,72.201c-35.591,39.1 -65.508,78.216 -82.02,121.433c-39.203,102.563 -49.503,194.726 -39.203,310.681c-33.531,65.094 37.651,132.64 158.874,150.686c121.223,18.046 247.581,-20.23 281.111,-85.055" style="fill:#c6ec55;"/><path d="M23514.839,7096.827c-1.046,-84.232 12.899,-157.794 2.567,-249.133c-3.106,-30.077 -5.166,-58.793 -16.512,-88.332c-6.719,-18.046 -14.452,-36.092 -28.872,-53.063c-19.586,-23.238 -50.549,-38.293 -77.361,-58.524c-22.185,-16.416 -43.831,-23.238 -68.075,-38.008c-75.84,-46.224 -129.463,-55.785 -193.45,-103.656c0,-44.309 -67.568,-80.401 -150.095,-80.401c-82.527,0 -150.095,36.092 -150.095,80.401c-89.246,69.193 -119.67,108.024 -169.205,192.256c-24.752,43.485 -29.411,82.047 -22.692,128.54c3.613,23.524 20.125,46.493 37.143,68.639c26.305,33.084 56.729,63.178 95.426,92.163c102.144,77.662 206.856,130.456 314.642,196.087c44.876,63.178 176.938,94.901 294.549,70.823c117.61,-24.061 176.938,-94.901 132.062,-157.794" style="fill:#c6ec55;"/><path d="M24678.551,7222.343c79.96,-49.501 229.548,-102.563 389.436,-183.502c48.996,-24.885 97.993,-49.501 142.869,-77.948c28.365,-18.315 56.729,-36.915 77.9,-57.431c29.411,-28.447 42.309,-56.339 60.881,-85.324c22.185,-35.554 23.738,-61.8 39.711,-93.809c27.858,-58.255 11.853,-91.07 43.323,-126.894c68.614,-24.616 87.186,-74.654 41.263,-111.586c-45.922,-36.647 -138.749,-46.762 -207.87,-22.146c-131.523,4.923 -247.581,26.531 -443.598,78.216c-81.513,21.339 -151.648,47.854 -222.829,85.055c-36.636,19.138 -65.001,42.931 -91.306,67.009c-40.249,36.647 -73.241,73.848 -100.084,112.679c-88.2,130.17 -131.016,240.664 -147.528,316.965c-50.549,61.531 1.553,134.001 116.564,161.087c115.55,27.355 250.179,-0.823 301.236,-62.355" style="fill:#c6ec55;"/><path d="M27735.635,2655.644c79.96,-49.501 229.548,-102.563 389.436,-183.502c48.996,-24.885 97.993,-49.501 142.869,-77.948c28.365,-18.315 56.729,-36.915 77.9,-57.431c29.411,-28.447 42.309,-56.339 60.881,-85.324c22.185,-35.554 23.738,-61.8 39.711,-93.809c27.858,-58.255 11.853,-91.07 43.323,-126.894c68.614,-24.616 87.186,-74.654 41.263,-111.586c-45.922,-36.647 -138.749,-46.762 -207.87,-22.146c-131.523,4.923 -247.581,26.531 -443.598,78.216c-81.513,21.339 -151.648,47.854 -222.829,85.055c-36.636,19.138 -65.001,42.931 -91.306,67.009c-40.249,36.647 -73.241,73.848 -100.084,112.679c-88.2,130.17 -131.016,240.664 -147.528,316.965c-50.549,61.531 1.553,134.001 116.564,161.087c115.55,27.355 250.179,-0.823 301.236,-62.355" style="fill:#c6ec55;"/><path d="M29770.303,7166.016c79.96,-49.501 229.548,-102.563 389.436,-183.502c48.996,-24.885 97.993,-49.501 142.869,-77.948c28.365,-18.315 56.729,-36.915 77.9,-57.431c29.411,-28.447 42.309,-56.339 60.881,-85.324c22.185,-35.554 23.738,-61.8 39.711,-93.809c27.858,-58.255 11.853,-91.07 43.323,-126.894c68.614,-24.616 87.186,-74.654 41.263,-111.586c-45.922,-36.647 -138.749,-46.762 -207.87,-22.146c-131.523,4.923 -247.581,26.531 -443.598,78.216c-81.513,21.339 -151.648,47.854 -222.829,85.055c-36.636,19.138 -65.001,42.931 -91.306,67.009c-40.249,36.647 -73.241,73.848 -100.084,112.679c-88.2,130.17 -131.016,240.664 -147.528,316.965c-50.549,61.531 1.553,134.001 116.564,161.087c115.55,27.355 250.179,-0.823 301.236,-62.355" style="fill:#c6ec55;"/><path d="M32211.904,4464.237c79.96,-49.501 229.548,-102.563 389.436,-183.502c48.996,-24.885 97.993,-49.501 142.869,-77.948c28.365,-18.315 56.729,-36.915 77.9,-57.431c29.411,-28.447 42.309,-56.339 60.881,-85.324c22.185,-35.554 23.738,-61.8 39.711,-93.809c27.858,-58.255 11.853,-91.07 43.323,-126.894c68.614,-24.616 87.186,-74.654 41.263,-111.586c-45.922,-36.647 -138.749,-46.762 -207.87,-22.146c-131.523,4.923 -247.581,26.531 -443.598,78.216c-81.513,21.339 -151.648,47.854 -222.829,85.055c-36.636,19.138 -65.001,42.931 -91.306,67.009c-40.249,36.647 -73.241,73.848 -100.084,112.679c-88.2,130.17 -131.016,240.664 -147.528,316.965c-50.549,61.531 1.553,134.001 116.564,161.087c115.55,27.355 250.179,-0.823 301.236,-62.355" style="fill:#c6ec55;"/><path d="M27106.763,12828.984c79.96,-49.501 229.548,-102.563 389.436,-183.502c48.996,-24.885 97.993,-49.501 142.869,-77.948c28.365,-18.315 56.729,-36.915 77.9,-57.431c29.411,-28.447 42.309,-56.339 60.881,-85.324c22.185,-35.554 23.738,-61.8 39.711,-93.809c27.858,-58.255 11.853,-91.07 43.323,-126.894c68.614,-24.616 87.186,-74.654 41.263,-111.586c-45.922,-36.647 -138.749,-46.762 -207.87,-22.146c-131.523,4.923 -247.581,26.531 -443.598,78.216c-81.513,21.339 -151.648,47.854 -222.829,85.055c-36.636,19.138 -65.001,42.931 -91.306,67.009c-40.249,36.647 -73.241,73.848 -100.084,112.679c-88.2,130.17 -131.016,240.664 -147.528,316.965c-50.549,61.531 1.553,134.001 116.564,161.087c115.55,27.355 250.179,-0.823 301.236,-62.355" style="fill:#c6ec55;"/><path d="M32211.904,12406.508c79.96,-49.501 229.548,-102.563 389.436,-183.502c48.996,-24.885 97.993,-49.501 142.869,-77.948c28.365,-18.315 56.729,-36.915 77.9,-57.431c29.411,-28.447 42.309,-56.339 60.881,-85.324c22.185,-35.554 23.738,-61.8 39.711,-93.809c27.858,-58.255 11.853,-91.07 43.323,-126.894c68.614,-24.616 87.186,-74.654 41.263,-111.586c-45.922,-36.647 -138.749,-46.762 -207.87,-22.146c-131.523,4.923 -247.581,26.531 -443.598,78.216c-81.513,21.339 -151.648,47.854 -222.829,85.055c-36.636,19.138 -65.001,42.931 -91.306,67.009c-40.249,36.647 -73.241,73.848 -100.084,112.679c-88.2,130.17 -131.016,240.664 -147.528,316.965c-50.549,61.531 1.553,134.001 116.564,161.087c115.55,27.355 250.179,-0.823 301.236,-62.355" style="fill:#c6ec55;"/><path d="M32211.904,17289.664c79.96,-49.501 229.548,-102.563 389.436,-183.502c48.996,-24.885 97.993,-49.501 142.869,-77.948c28.365,-18.315 56.729,-36.915 77.9,-57.431c29.411,-28.447 42.309,-56.339 60.881,-85.324c22.185,-35.554 23.738,-61.8 39.711,-93.809c27.858,-58.255 11.853,-91.07 43.323,-126.894c68.614,-24.616 87.186,-74.654 41.263,-111.586c-45.922,-36.647 -138.749,-46.762 -207.87,-22.146c-131.523,4.923 -247.581,26.531 -443.598,78.216c-81.513,21.339 -151.648,47.854 -222.829,85.055c-36.636,19.138 -65.001,42.931 -91.306,67.009c-40.249,36.647 -73.241,73.848 -100.084,112.679c-88.2,130.17 -131.016,240.664 -147.528,316.965c-50.549,61.531 1.553,134.001 116.564,161.087c115.55,27.355 250.179,-0.823 301.236,-62.355" style="fill:#c6ec55;"/><path d="M25248.818,26981.23c79.96,-49.501 229.548,-102.563 389.436,-183.502c48.996,-24.885 97.993,-49.501 142.869,-77.948c28.365,-18.315 56.729,-36.915 77.9,-57.431c29.411,-28.447 42.309,-56.339 60.881,-85.324c22.185,-35.554 23.738,-61.8 39.711,-93.809c27.858,-58.255 11.853,-91.07 43.323,-126.894c68.614,-24.616 87.186,-74.654 41.263,-111.586c-45.922,-36.647 -138.749,-46.762 -207.87,-22.146c-131.523,4.923 -247.581,26.531 -443.598,78.216c-81.513,21.339 -151.648,47.854 -222.829,85.055c-36.636,19.138 -65.001,42.931 -91.306,67.009c-40.249,36.647 -73.241,73.848 -100.084,112.679c-88.2,130.17 -131.016,240.664 -147.528,316.965c-50.549,61.531 1.553,134.001 116.564,161.087c115.55,27.355 250.179,-0.823 301.236,-62.355" style="fill:#c6ec55;"/><path d="M30954.161,31774.003c79.96,-49.501 229.548,-102.563 389.436,-183.502c48.996,-24.885 97.993,-49.501 142.869,-77.948c28.365,-18.315 56.729,-36.915 77.9,-57.431c29.411,-28.447 42.309,-56.339 60.881,-85.324c22.185,-35.554 23.738,-61.8 39.711,-93.809c27.858,-58.255 11.853,-91.07 43.323,-126.894c68.614,-24.616 87.186,-74.654 41.263,-111.586c-45.922,-36.647 -138.749,-46.762 -207.87,-22.146c-131.523,4.923 -247.581,26.531 -443.598,78.216c-81.513,21.339 -151.648,47.854 -222.829,85.055c-36.636,19.138 -65.001,42.931 -91.306,67.009c-40.249,36.647 -73.241,73.848 -100.084,112.679c-88.2,130.17 -131.016,240.664 -147.528,316.965c-50.549,61.531 1.553,134.001 116.564,161.087c115.55,27.355 250.179,-0.823 301.236,-62.355" style="fill:#c6ec55;"/><path d="M23991.075,31774.003c79.96,-49.501 229.548,-102.563 389.436,-183.502c48.996,-24.885 97.993,-49.501 142.869,-77.948c28.365,-18.315 56.729,-36.915 77.9,-57.431c29.411,-28.447 42.309,-56.339 60.881,-85.324c22.185,-35.554 23.738,-61.8 39.711,-93.809c27.858,-58.255 11.853,-91.07 43.323,-126.894c68.614,-24.616 87.186,-74.654 41.263,-111.586c-45.922,-36.647 -138.749,-46.762 -207.87,-22.146c-131.523,4.923 -247.581,26.531 -443.598,78.216c-81.513,21.339 -151.648,47.854 -222.829,85.055c-36.636,19.138 -65.001,42.931 -91.306,67.009c-40.249,36.647 -73.241,73.848 -100.084,112.679c-88.2,130.17 -131.016,240.664 -147.528,316.965c-50.549,61.531 1.553,134.001 116.564,161.087c115.55,27.355 250.179,-0.823 301.236,-62.355" style="fill:#c6ec55;"/><path d="M28187.783,29558.476c79.96,-49.501 229.548,-102.563 389.436,-183.502c48.996,-24.885 97.993,-49.501 142.869,-77.948c28.365,-18.315 56.729,-36.915 77.9,-57.431c29.411,-28.447 42.309,-56.339 60.881,-85.324c22.185,-35.554 23.738,-61.8 39.711,-93.809c27.858,-58.255 11.853,-91.07 43.323,-126.894c68.614,-24.616 87.186,-74.654 41.263,-111.586c-45.922,-36.647 -138.749,-46.762 -207.87,-22.146c-131.523,4.923 -247.581,26.531 -443.598,78.216c-81.513,21.339 -151.648,47.854 -222.829,85.055c-36.636,19.138 -65.001,42.931 -91.306,67.009c-40.249,36.647 -73.241,73.848 -100.084,112.679c-88.2,130.17 -131.016,240.664 -147.528,316.965c-50.549,61.531 1.553,134.001 116.564,161.087c115.55,27.355 250.179,-0.823 301.236,-62.355" style="fill:#c6ec55;"/><path d="M29696.418,11156.034c79.96,-49.501 229.548,-102.563 389.436,-183.502c48.996,-24.885 97.993,-49.501 142.869,-77.948c28.365,-18.315 56.729,-36.915 77.9,-57.431c29.411,-28.447 42.309,-56.339 60.881,-85.324c22.185,-35.554 23.738,-61.8 39.711,-93.809c27.858,-58.255 11.853,-91.07 43.323,-126.894c68.614,-24.616 87.186,-74.654 41.263,-111.586c-45.922,-36.647 -138.749,-46.762 -207.87,-22.146c-131.523,4.923 -247.581,26.531 -443.598,78.216c-81.513,21.339 -151.648,47.854 -222.829,85.055c-36.636,19.138 -65.001,42.931 -91.306,67.009c-40.249,36.647 -73.241,73.848 -100.084,112.679c-88.2,130.17 -131.016,240.664 -147.528,316.965c-50.549,61.531 1.553,134.001 116.564,161.087c115.55,27.355 250.179,-0.823 301.236,-62.355" style="fill:#c6ec55;"/><path d="M26930.04,32196.479c79.96,-49.501 229.548,-102.563 389.436,-183.502c48.996,-24.885 97.993,-49.501 142.869,-77.948c28.365,-18.315 56.729,-36.915 77.9,-57.431c29.411,-28.447 42.309,-56.339 60.881,-85.324c22.185,-35.554 23.738,-61.8 39.711,-93.809c27.858,-58.255 11.853,-91.07 43.323,-126.894c68.614,-24.616 87.186,-74.654 41.263,-111.586c-45.922,-36.647 -138.749,-46.762 -207.87,-22.146c-131.523,4.923 -247.581,26.531 -443.598,78.216c-81.513,21.339 -151.648,47.854 -222.829,85.055c-36.636,19.138 -65.001,42.931 -91.306,67.009c-40.249,36.647 -73.241,73.848 -100.084,112.679c-88.2,130.17 -131.016,240.664 -147.528,316.965c-50.549,61.531 1.553,134.001 116.564,161.087c115.55,27.355 250.179,-0.823 301.236,-62.355" style="fill:#c6ec55;"/><path d="M30325.29,16129.667c79.96,-49.501 229.548,-102.563 389.436,-183.502c48.996,-24.885 97.993,-49.501 142.869,-77.948c28.365,-18.315 56.729,-36.915 77.9,-57.431c29.411,-28.447 42.309,-56.339 60.881,-85.324c22.185,-35.554 23.738,-61.8 39.711,-93.809c27.858,-58.255 11.853,-91.07 43.323,-126.894c68.614,-24.616 87.186,-74.654 41.263,-111.586c-45.922,-36.647 -138.749,-46.762 -207.87,-22.146c-131.523,4.923 -247.581,26.531 -443.598,78.216c-81.513,21.339 -151.648,47.854 -222.829,85.055c-36.636,19.138 -65.001,42.931 -91.306,67.009c-40.249,36.647 -73.241,73.848 -100.084,112.679c-88.2,130.17 -131.016,240.664 -147.528,316.965c-50.549,61.531 1.553,134.001 116.564,161.087c115.55,27.355 250.179,-0.823 301.236,-62.355" style="fill:#c6ec55;"/><path d="M7107.96,10243.495c-165.054,-107.755 -261.525,-204.287 -368.297,-299.743c-42.309,-37.47 -76.347,-75.209 -117.103,-112.124c-26.812,-23.793 -53.116,-48.14 -84.08,-71.109c-41.263,-30.362 -90.799,-54.693 -138.749,-84.501c-34.038,-21.339 -68.614,-37.201 -107.279,-58.255c-99.039,-54.962 -186.224,-92.431 -296.609,-156.97c-26.305,-42.124 -111.43,-64.808 -189.837,-50.862c-78.407,14.215 -121.223,59.616 -94.919,101.74c-14.959,70.017 -24.245,117.602 -25.29,180.763c-1.553,67.816 13.913,121.147 35.591,181.872c14.959,42.124 39.711,79.863 72.227,117.316c32.485,38.293 76.347,73.024 124.836,105.285c96.472,64.001 203.75,120.878 335.812,170.933c167.653,63.716 346.112,115.132 576.167,169.824c99.546,41.015 242.954,30.9 319.808,-22.7c76.347,-53.6 57.775,-130.456 -42.309,-171.471" style="fill:#c6ec55;"/><path d="M6352.203,7687.307c-165.054,-107.755 -261.525,-204.287 -368.297,-299.743c-42.309,-37.47 -76.347,-75.209 -117.103,-112.124c-26.812,-23.793 -53.116,-48.14 -84.08,-71.109c-41.263,-30.362 -90.799,-54.693 -138.749,-84.501c-34.038,-21.339 -68.614,-37.201 -107.279,-58.255c-99.039,-54.962 -186.224,-92.431 -296.609,-156.97c-26.305,-42.124 -111.43,-64.808 -189.837,-50.862c-78.407,14.215 -121.223,59.616 -94.919,101.74c-14.959,70.017 -24.245,117.602 -25.29,180.763c-1.553,67.816 13.913,121.147 35.591,181.872c14.959,42.124 39.711,79.863 72.227,117.316c32.485,38.293 76.347,73.024 124.836,105.285c96.472,64.001 203.75,120.878 335.812,170.933c167.653,63.716 346.112,115.132 576.167,169.824c99.546,41.015 242.954,30.9 319.808,-22.7c76.347,-53.6 57.775,-130.456 -42.309,-171.471" style="fill:#c6ec55;"/><path d="M3239.227,13451.446c-165.054,-107.755 -261.525,-204.287 -368.297,-299.743c-42.309,-37.47 -76.347,-75.209 -117.103,-112.124c-26.812,-23.793 -53.116,-48.14 -84.08,-71.109c-41.263,-30.362 -90.799,-54.693 -138.749,-84.501c-34.038,-21.339 -68.614,-37.201 -107.279,-58.255c-99.039,-54.962 -186.224,-92.431 -296.609,-156.97c-26.305,-42.124 -111.43,-64.808 -189.837,-50.862c-78.407,14.215 -121.223,59.616 -94.919,101.74c-14.959,70.017 -24.245,117.602 -25.29,180.763c-1.553,67.816 13.913,121.147 35.591,181.872c14.959,42.124 39.711,79.863 72.227,117.316c32.485,38.293 76.347,73.024 124.836,105.285c96.472,64.001 203.75,120.878 335.812,170.933c167.653,63.716 346.112,115.132 576.167,169.824c99.546,41.015 242.954,30.9 319.808,-22.7c76.347,-53.6 57.775,-130.456 -42.309,-171.471" style="fill:#c6ec55;"/><path d="M9549.562,7687.307c-165.054,-107.755 -261.525,-204.287 -368.297,-299.743c-42.309,-37.47 -76.347,-75.209 -117.103,-112.124c-26.812,-23.793 -53.116,-48.14 -84.08,-71.109c-41.263,-30.362 -90.799,-54.693 -138.749,-84.501c-34.038,-21.339 -68.614,-37.201 -107.279,-58.255c-99.039,-54.962 -186.224,-92.431 -296.609,-156.97c-26.305,-42.124 -111.43,-64.808 -189.837,-50.862c-78.407,14.215 -121.223,59.616 -94.919,101.74c-14.959,70.017 -24.245,117.602 -25.29,180.763c-1.553,67.816 13.913,121.147 35.591,181.872c14.959,42.124 39.711,79.863 72.227,117.316c32.485,38.293 76.347,73.024 124.836,105.285c96.472,64.001 203.75,120.878 335.812,170.933c167.653,63.716 346.112,115.132 576.167,169.824c99.546,41.015 242.954,30.9 319.808,-22.7c76.347,-53.6 57.775,-130.456 -42.309,-171.471" style="fill:#c6ec55;"/><path d="M3239.227,22044.569c-165.054,-107.755 -261.525,-204.287 -368.297,-299.743c-42.309,-37.47 -76.347,-75.209 -117.103,-112.124c-26.812,-23.793 -53.116,-48.14 -84.08,-71.109c-41.263,-30.362 -90.799,-54.693 -138.749,-84.501c-34.038,-21.339 -68.614,-37.201 -107.279,-58.255c-99.039,-54.962 -186.224,-92.431 -296.609,-156.97c-26.305,-42.124 -111.43,-64.808 -189.837,-50.862c-78.407,14.215 -121.223,59.616 -94.919,101.74c-14.959,70.017 -24.245,117.602 -25.29,180.763c-1.553,67.816 13.913,121.147 35.591,181.872c14.959,42.124 39.711,79.863 72.227,117.316c32.485,38.293 76.347,73.024 124.836,105.285c96.472,64.001 203.75,120.878 335.812,170.933c167.653,63.716 346.112,115.132 576.167,169.824c99.546,41.015 242.954,30.9 319.808,-22.7c76.347,-53.6 57.775,-130.456 -42.309,-171.471" style="fill:#c6ec55;"/><path d="M7107.96,22573.088c-165.054,-107.755 -261.525,-204.287 -368.297,-299.743c-42.309,-37.47 -76.347,-75.209 -117.103,-112.124c-26.812,-23.793 -53.116,-48.14 -84.08,-71.109c-41.263,-30.362 -90.799,-54.693 -138.749,-84.501c-34.038,-21.339 -68.614,-37.201 -107.279,-58.255c-99.039,-54.962 -186.224,-92.431 -296.609,-156.97c-26.305,-42.124 -111.43,-64.808 -189.837,-50.862c-78.407,14.215 -121.223,59.616 -94.919,101.74c-14.959,70.017 -24.245,117.602 -25.29,180.763c-1.553,67.816 13.913,121.147 35.591,181.872c14.959,42.124 39.711,79.863 72.227,117.316c32.485,38.293 76.347,73.024 124.836,105.285c96.472,64.001 203.75,120.878 335.812,170.933c167.653,63.716 346.112,115.132 576.167,169.824c99.546,41.015 242.954,30.9 319.808,-22.7c76.347,-53.6 57.775,-130.456 -42.309,-171.471" style="fill:#c6ec55;"/><path d="M7107.96,3280.409c-165.054,-107.755 -261.525,-204.287 -368.297,-299.743c-42.309,-37.47 -76.347,-75.209 -117.103,-112.124c-26.812,-23.793 -53.116,-48.14 -84.08,-71.109c-41.263,-30.362 -90.799,-54.693 -138.749,-84.501c-34.038,-21.339 -68.614,-37.201 -107.279,-58.255c-99.039,-54.962 -186.224,-92.431 -296.609,-156.97c-26.305,-42.124 -111.43,-64.808 -189.837,-50.862c-78.407,14.215 -121.223,59.616 -94.919,101.74c-14.959,70.017 -24.245,117.602 -25.29,180.763c-1.553,67.816 13.913,121.147 35.591,181.872c14.959,42.124 39.711,79.863 72.227,117.316c32.485,38.293 76.347,73.024 124.836,105.285c96.472,64.001 203.75,120.878 335.812,170.933c167.653,63.716 346.112,115.132 576.167,169.824c99.546,41.015 242.954,30.9 319.808,-22.7c76.347,-53.6 57.775,-130.456 -42.309,-171.471" style="fill:#c6ec55;"/><path d="M10305.32,20987.532c-165.054,-107.755 -261.525,-204.287 -368.297,-299.743c-42.309,-37.47 -76.347,-75.209 -117.103,-112.124c-26.812,-23.793 -53.116,-48.14 -84.08,-71.109c-41.263,-30.362 -90.799,-54.693 -138.749,-84.501c-34.038,-21.339 -68.614,-37.201 -107.279,-58.255c-99.039,-54.962 -186.224,-92.431 -296.609,-156.97c-26.305,-42.124 -111.43,-64.808 -189.837,-50.862c-78.407,14.215 -121.223,59.616 -94.919,101.74c-14.959,70.017 -24.245,117.602 -25.29,180.763c-1.553,67.816 13.913,121.147 35.591,181.872c14.959,42.124 39.711,79.863 72.227,117.316c32.485,38.293 76.347,73.024 124.836,105.285c96.472,64.001 203.75,120.878 335.812,170.933c167.653,63.716 346.112,115.132 576.167,169.824c99.546,41.015 242.954,30.9 319.808,-22.7c76.347,-53.6 57.775,-130.456 -42.309,-171.471" style="fill:#c6ec55;"/><path d="M13031.105,7158.788c-165.054,-107.755 -261.525,-204.287 -368.297,-299.743c-42.309,-37.47 -76.347,-75.209 -117.103,-112.124c-26.812,-23.793 -53.116,-48.14 -84.08,-71.109c-41.263,-30.362 -90.799,-54.693 -138.749,-84.501c-34.038,-21.339 -68.614,-37.201 -107.279,-58.255c-99.039,-54.962 -186.224,-92.431 -296.609,-156.97c-26.305,-42.124 -111.43,-64.808 -189.837,-50.862c-78.407,14.215 -121.223,59.616 -94.919,101.74c-14.959,70.017 -24.245,117.602 -25.29,180.763c-1.553,67.816 13.913,121.147 35.591,181.872c14.959,42.124 39.711,79.863 72.227,117.316c32.485,38.293 76.347,73.024 124.836,105.285c96.472,64.001 203.75,120.878 335.812,170.933c167.653,63.716 346.112,115.132 576.167,169.824c99.546,41.015 242.954,30.9 319.808,-22.7c76.347,-53.6 57.775,-130.456 -42.309,-171.471" style="fill:#c6ec55;"/><path d="M3626.417,6630.27c-165.054,-107.755 -261.525,-204.287 -368.297,-299.743c-42.309,-37.47 -76.347,-75.209 -117.103,-112.124c-26.812,-23.793 -53.116,-48.14 -84.08,-71.109c-41.263,-30.362 -90.799,-54.693 -138.749,-84.501c-34.038,-21.339 -68.614,-37.201 -107.279,-58.255c-99.039,-54.962 -186.224,-92.431 -296.609,-156.97c-26.305,-42.124 -111.43,-64.808 -189.837,-50.862c-78.407,14.215 -121.223,59.616 -94.919,101.74c-14.959,70.017 -24.245,117.602 -25.29,180.763c-1.553,67.816 13.913,121.147 35.591,181.872c14.959,42.124 39.711,79.863 72.227,117.316c32.485,38.293 76.347,73.024 124.836,105.285c96.472,64.001 203.75,120.878 335.812,170.933c167.653,63.716 346.112,115.132 576.167,169.824c99.546,41.015 242.954,30.9 319.808,-22.7c76.347,-53.6 57.775,-130.456 -42.309,-171.471" style="fill:#c6ec55;"/><path d="M2870.66,26792.128c-165.054,-107.755 -261.525,-204.287 -368.297,-299.743c-42.309,-37.47 -76.347,-75.209 -117.103,-112.124c-26.812,-23.793 -53.116,-48.14 -84.08,-71.109c-41.263,-30.362 -90.799,-54.693 -138.749,-84.501c-34.038,-21.339 -68.614,-37.201 -107.279,-58.255c-99.039,-54.962 -186.224,-92.431 -296.609,-156.97c-26.305,-42.124 -111.43,-64.808 -189.837,-50.862c-78.407,14.215 -121.223,59.616 -94.919,101.74c-14.959,70.017 -24.245,117.602 -25.29,180.763c-1.553,67.816 13.913,121.147 35.591,181.872c14.959,42.124 39.711,79.863 72.227,117.316c32.485,38.293 76.347,73.024 124.836,105.285c96.472,64.001 203.75,120.878 335.812,170.933c167.653,63.716 346.112,115.132 576.167,169.824c99.546,41.015 242.954,30.9 319.808,-22.7c76.347,-53.6 57.775,-130.456 -42.309,-171.471" style="fill:#c6ec55;"/><path d="M13786.863,31584.901c-165.054,-107.755 -261.525,-204.287 -368.297,-299.743c-42.309,-37.47 -76.347,-75.209 -117.103,-112.124c-26.812,-23.793 -53.116,-48.14 -84.08,-71.109c-41.263,-30.362 -90.799,-54.693 -138.749,-84.501c-34.038,-21.339 -68.614,-37.201 -107.279,-58.255c-99.039,-54.962 -186.224,-92.431 -296.609,-156.97c-26.305,-42.124 -111.43,-64.808 -189.837,-50.862c-78.407,14.215 -121.223,59.616 -94.919,101.74c-14.959,70.017 -24.245,117.602 -25.29,180.763c-1.553,67.816 13.913,121.147 35.591,181.872c14.959,42.124 39.711,79.863 72.227,117.316c32.485,38.293 76.347,73.024 124.836,105.285c96.472,64.001 203.75,120.878 335.812,170.933c167.653,63.716 346.112,115.132 576.167,169.824c99.546,41.015 242.954,30.9 319.808,-22.7c76.347,-53.6 57.775,-130.456 -42.309,-171.471" style="fill:#c6ec55;"/><path d="M2870.66,29459.803c-165.054,-107.755 -261.525,-204.287 -368.297,-299.743c-42.309,-37.47 -76.347,-75.209 -117.103,-112.124c-26.812,-23.793 -53.116,-48.14 -84.08,-71.109c-41.263,-30.362 -90.799,-54.693 -138.749,-84.501c-34.038,-21.339 -68.614,-37.201 -107.279,-58.255c-99.039,-54.962 -186.224,-92.431 -296.609,-156.97c-26.305,-42.124 -111.43,-64.808 -189.837,-50.862c-78.407,14.215 -121.223,59.616 -94.919,101.74c-14.959,70.017 -24.245,117.602 -25.29,180.763c-1.553,67.816 13.913,121.147 35.591,181.872c14.959,42.124 39.711,79.863 72.227,117.316c32.485,38.293 76.347,73.024 124.836,105.285c96.472,64.001 203.75,120.878 335.812,170.933c167.653,63.716 346.112,115.132 576.167,169.824c99.546,41.015 242.954,30.9 319.808,-22.7c76.347,-53.6 57.775,-130.456 -42.309,-171.471" style="fill:#c6ec55;"/><path d="M8619.476,31584.901c-165.054,-107.755 -261.525,-204.287 -368.297,-299.743c-42.309,-37.47 -76.347,-75.209 -117.103,-112.124c-26.812,-23.793 -53.116,-48.14 -84.08,-71.109c-41.263,-30.362 -90.799,-54.693 -138.749,-84.501c-34.038,-21.339 -68.614,-37.201 -107.279,-58.255c-99.039,-54.962 -186.224,-92.431 -296.609,-156.97c-26.305,-42.124 -111.43,-64.808 -189.837,-50.862c-78.407,14.215 -121.223,59.616 -94.919,101.74c-14.959,70.017 -24.245,117.602 -25.29,180.763c-1.553,67.816 13.913,121.147 35.591,181.872c14.959,42.124 39.711,79.863 72.227,117.316c32.485,38.293 76.347,73.024 124.836,105.285c96.472,64.001 203.75,120.878 335.812,170.933c167.653,63.716 346.112,115.132 576.167,169.824c99.546,41.015 242.954,30.9 319.808,-22.7c76.347,-53.6 57.775,-130.456 -42.309,-171.471" style="fill:#c6ec55;"/><path d="M8088.046,10138.478c26.812,-98.447 51.056,-193.079 67.568,-298.096c9.286,-57.986 27.351,-113.216 33.531,-170.11c3.106,-30.362 4.12,-60.439 3.106,-89.978c-1.553,-30.631 -27.351,-56.07 -29.411,-86.147c-5.673,-74.117 -56.729,-129.078 -4.12,-207.294c58.789,-31.455 58.789,-82.316 0,-113.771c-58.282,-31.455 -153.201,-31.455 -211.99,0c-178.491,32.547 -265.645,80.955 -388.929,142.487c-55.208,27.624 -80.974,58.793 -120.716,92.986c-52.609,44.846 -78.407,93.255 -99.039,145.763c-14.959,37.47 -14.452,76.855 -9.286,115.686c7.733,53.6 23.199,106.378 53.655,158.886c68.614,121.147 172.28,225.626 252.747,337.75c13.913,67.009 127.403,115.132 252.747,107.47c124.836,-7.931 215.096,-68.37 200.137,-135.648" style="fill:#c6ec55;"/><path d="M6009.589,20763.966c26.812,-98.447 51.056,-193.079 67.568,-298.096c9.286,-57.986 27.351,-113.216 33.531,-170.11c3.106,-30.362 4.12,-60.439 3.106,-89.978c-1.553,-30.631 -27.351,-56.07 -29.411,-86.147c-5.673,-74.117 -56.729,-129.078 -4.12,-207.294c58.789,-31.455 58.789,-82.316 0,-113.771c-58.282,-31.455 -153.201,-31.455 -211.99,0c-178.491,32.547 -265.645,80.955 -388.929,142.487c-55.208,27.624 -80.974,58.793 -120.716,92.986c-52.609,44.846 -78.407,93.255 -99.039,145.763c-14.959,37.47 -14.452,76.855 -9.286,115.686c7.733,53.6 23.199,106.378 53.655,158.886c68.614,121.147 172.28,225.626 252.747,337.75c13.913,67.009 127.403,115.132 252.747,107.47c124.836,-7.931 215.096,-68.37 200.137,-135.648" style="fill:#c6ec55;"/><path d="M16334.017,11537.048c-24.245,-108.579 -33.531,-216.049 -65.508,-336.104c-11.346,-41.839 -22.185,-82.585 -40.249,-123.617c-11.853,-26.246 -24.245,-52.508 -43.323,-77.124c-24.752,-32.547 -60.342,-58.793 -92.32,-88.886c-23.738,-22.146 -49.503,-37.201 -75.84,-58.255c-75.84,-60.708 -144.422,-93.524 -203.243,-154.786c0,-44.309 -67.061,-80.132 -149.588,-80.132c-83.034,0 -150.095,35.823 -150.095,80.132c-79.96,86.971 -121.73,154.248 -155.261,255.972c-18.572,56.877 -18.065,110.763 -3.106,169.287c8.24,31.992 29.411,62.892 51.595,92.986c33.023,44.577 72.227,86.971 119.163,127.717c122.237,107.47 257.405,192.811 383.763,283.326c46.429,62.892 179.505,93.255 296.609,68.37c117.103,-25.154 173.833,-96.262 127.403,-158.886" style="fill:#c6ec55;"/><path d="M17101.574,11265.483c138.242,-59.078 261.525,-117.316 396.662,-194.726c42.816,-24.616 84.587,-48.408 121.223,-76.032c22.185,-16.685 43.831,-33.639 59.835,-52.239c20.632,-24.616 22.692,-48.677 35.083,-74.385c14.959,-30.362 5.166,-51.954 17.526,-81.779c20.632,-48.677 2.567,-75.478 34.545,-120.878c67.061,-25.708 83.034,-75.746 34.545,-111.855c-47.982,-36.092 -141.348,-44.577 -208.916,-18.869c-143.408,3.562 -214.082,22.7 -353.338,48.946c-52.609,9.846 -83.573,23.238 -132.062,39.1c-58.789,19.138 -105.219,41.57 -151.141,70.017c-33.023,19.693 -56.729,43.754 -77.9,67.816c-30.963,35 -54.669,70.286 -72.227,107.755c-44.876,95.725 -47.443,179.133 -87.693,264.726c-68.075,56.877 -37.143,132.64 68.614,169.018c105.757,36.647 247.074,19.962 315.18,-36.647" style="fill:#c6ec55;"/><path d="M13088.466,16618.878c-73.748,-85.055 -158.874,-182.141 -273.378,-291.257c-35.083,-33.908 -69.121,-67.278 -110.384,-99.539c-25.29,-19.693 -51.056,-39.385 -80.974,-56.608c-39.711,-22.7 -86.14,-36.378 -128.449,-55.516c-47.982,-22.146 -96.472,-28.985 -141.348,-50.055c-72.227,-33.908 -138.242,-40.209 -186.224,-79.577c-5.673,-44.309 -77.361,-77.662 -159.92,-74.654c-82.527,3.008 -144.961,41.301 -139.288,85.593c-66.554,76.57 -56.222,136.74 -57.775,231.373c-0.507,33.639 15.466,59.885 29.411,94.347c16.512,41.839 45.922,79.309 85.633,118.694c28.365,27.624 67.061,52.508 107.817,75.746c59.835,33.908 123.283,64.27 192.404,91.339c188.791,73.293 371.403,118.963 517.378,170.11c82.02,51.147 226.442,56.608 321.868,12.3c94.919,-44.023 105.219,-121.433 23.199,-172.294" style="fill:#c6ec55;"/><path d="M13802.368,16136.725c33.023,-127.448 76.854,-244.227 100.084,-373.305c8.779,-48.946 14.959,-96.817 13.913,-145.763c-0.507,-31.992 -3.106,-64.27 -12.899,-95.725c-10.839,-34.193 -29.918,-65.362 -50.042,-98.178c-21.678,-35.286 -44.876,-64.001 -72.734,-97.909c-61.388,-74.654 -120.177,-124.709 -183.626,-198.271c0,-44.309 -67.568,-80.401 -150.095,-80.401c-82.527,0 -149.588,36.092 -149.588,80.401c-76.347,91.07 -140.809,157.525 -193.957,253.787c-31.471,56.877 -52.609,111.032 -58.789,170.379c-3.613,33.639 4.12,67.278 12.899,100.648c13.406,50.324 33.531,99.001 58.789,147.947c66.015,126.625 151.648,237.926 231.608,360.72c12.899,67.009 124.836,116.224 250.179,109.671c125.343,-6.839 216.649,-66.723 204.257,-134.001" style="fill:#c6ec55;"/><path d="M14732.919,16469.284c84.587,-80.67 197.031,-139.748 302.789,-218.519c38.158,-28.161 76.854,-54.962 110.384,-85.055c21.139,-19.693 42.309,-39.923 56.729,-61.262c19.586,-29.539 23.738,-57.7 34.038,-88.332c7.733,-23.793 6.719,-41.301 9.793,-65.094c9.286,-69.731 -2.567,-110.209 7.733,-177.755c47.982,-36.092 32.485,-86.147 -34.545,-112.124c-67.568,-25.708 -160.934,-17.223 -209.423,18.601c-146.482,36.092 -240.894,57.431 -377.076,109.385c-76.854,28.985 -136.689,60.439 -193.45,101.454c-30.963,22.7 -52.102,49.232 -70.674,75.478c-28.872,40.746 -51.056,81.224 -63.448,124.155c-33.531,115.132 -37.651,216.317 -19.079,327.349c-26.812,66.186 51.595,131.262 174.878,145.494c123.283,14.215 244.507,-27.892 271.318,-93.809" style="fill:#c6ec55;"/><path d="M4748.053,16888.258c-144.961,-58.524 -266.152,-121.147 -419.353,-184.056c-51.595,-21.339 -100.084,-43.216 -154.754,-62.086c-34.038,-11.762 -68.614,-23.238 -105.757,-31.992c-49.503,-11.207 -98.532,-12.854 -150.095,-20.785c-38.696,-6.015 -70.167,-4.369 -109.37,-9.023c-117.103,-13.946 -191.358,-7.108 -303.296,-29.808c-51.595,-34.731 -145.975,-40.209 -210.469,-12.585c-64.494,27.624 -75.301,78.216 -23.199,112.947c20.632,78.771 58.282,121.702 116.057,195.264c22.692,28.985 51.056,47.585 84.587,73.562c42.816,33.639 91.813,60.17 151.648,85.878c43.323,18.601 94.412,32.278 145.975,44.309c76.347,17.508 153.201,31.169 234.714,39.654c206.856,21.608 390.989,23.793 589.066,28.716c118.624,22.969 249.134,-10.115 291.95,-73.562c42.816,-63.447 -19.079,-133.732 -137.735,-156.433" style="fill:#c6ec55;"/><path d="M4573.713,15967.993c-72.734,-125.247 -137.735,-240.11 -231.608,-360.988c-35.083,-45.401 -72.734,-88.886 -117.103,-131.817c-28.872,-27.624 -59.328,-55.247 -95.933,-79.863c-39.203,-26.8 -83.573,-48.677 -129.463,-71.932c-49.503,-25.154 -94.919,-43.754 -148.035,-65.917c-117.103,-49.232 -211.483,-76.855 -329.093,-126.625c-36.636,-39.654 -126.896,-55.785 -201.183,-35.823c-73.748,19.693 -103.666,68.101 -66.554,107.755c7.226,100.917 9.793,175.84 46.936,274.303c22.185,58.255 52.609,111.032 100.084,164.632c26.305,30.077 62.941,57.431 100.084,84.232c55.715,39.923 116.057,76.57 180.551,112.679c164.04,91.608 332.706,164.901 499.82,255.434c65.001,57.7 205.303,76.57 313.12,41.839c107.817,-34.731 142.869,-109.94 78.407,-167.909" style="fill:#c6ec55;"/><path d="M5576.491,16228.35c72.734,-80.955 148.035,-138.656 211.99,-216.872c24.245,-29.539 45.383,-57.431 59.328,-88.063c9.286,-19.962 17.019,-40.478 17.019,-60.994c-0.507,-23.793 -10.332,-43.754 -21.139,-67.009c-12.392,-26.8 -24.245,-44.023 -44.876,-69.731c-47.443,-60.439 -79.453,-83.963 -136.689,-144.116c12.392,-43.754 -43.831,-84.786 -125.343,-91.608c-82.02,-6.57 -158.367,23.524 -171.265,67.278c-88.2,47.854 -132.062,64.808 -211.99,114.308c-34.038,21.608 -55.208,36.092 -82.527,59.885c-23.738,20.785 -43.831,39.1 -57.775,62.355c-11.853,20.23 -16.005,42.124 -17.526,63.447c-2.567,33.37 1.553,65.094 10.839,98.447c25.29,89.155 67.061,159.709 115.043,251.049c-10.839,67.278 82.02,126.894 207.363,132.64c125.343,6.015 236.235,-43.754 247.581,-111.032" style="fill:#c6ec55;"/><path d="M26107.401,15514.019c133.583,-128.54 271.825,-231.641 399.26,-345.681c51.056,-46.224 100.592,-91.07 144.422,-138.656c29.411,-31.169 57.268,-63.178 78.407,-96.531c23.199,-35.823 36.098,-71.378 50.042,-109.116c14.959,-39.654 23.199,-74.654 30.963,-115.686c17.019,-85.324 15.466,-153.425 27.351,-244.496c37.143,-39.654 6.719,-87.794 -67.061,-107.755c-74.287,-19.693 -164.04,-3.562 -201.183,36.092c-131.016,60.439 -232.115,103.101 -347.665,164.364c-56.729,30.077 -102.652,57.7 -151.141,90.247c-47.443,31.992 -90.26,63.178 -126.896,98.178c-34.545,32.816 -60.881,68.37 -85.126,103.924c-36.098,53.869 -64.494,108.293 -86.647,165.187c-54.669,138.387 -77.9,273.211 -101.606,429.09c-36.098,64.539 31.978,132.909 152.155,152.602c120.716,19.424 248.627,-16.954 284.724,-81.779" style="fill:#c6ec55;"/><path d="M26921.355,15981.116c194.971,-107.755 393.587,-182.41 593.186,-263.096c78.407,-31.992 157.321,-60.439 234.714,-92.431c50.549,-20.785 101.606,-41.57 149.081,-65.094c61.895,-30.362 111.937,-64.001 170.22,-97.64c41.263,-23.793 73.241,-46.762 112.444,-72.201c104.204,-66.723 178.491,-125.802 295.056,-194.995c74.287,-19.693 104.204,-68.101 67.061,-107.755c-36.636,-39.654 -126.896,-55.785 -201.183,-35.823c-139.795,5.747 -245.521,10.939 -376.03,23.793c-133.076,13.123 -243.461,32.278 -364.684,56.877c-80.467,16.416 -154.247,36.647 -225.935,61.262c-71.181,24.616 -135.675,54.155 -195.51,85.878c-120.716,63.716 -226.442,133.178 -318.793,211.394c-128.956,109.671 -229.548,223.711 -323.928,357.981c-68.075,56.877 -37.143,132.64 69.121,169.018c106.264,36.378 247.581,19.693 315.18,-37.201" style="fill:#c6ec55;"/><path d="M24511.405,15856.961c26.812,-132.64 48.489,-247.503 42.816,-372.213c-2.567,-49.769 -11.346,-98.178 -27.858,-146.855c-10.839,-31.992 -23.199,-64.27 -46.429,-94.347c-40.756,-52.239 -91.306,-97.086 -155.768,-143.31c-105.219,-75.478 -202.197,-121.147 -329.093,-192.811c-26.305,-42.124 -111.43,-64.808 -189.837,-50.862c-78.407,14.215 -120.716,59.616 -94.919,101.74c-19.586,80.401 -44.876,133.732 -59.328,210.857c-6.18,35.554 -11.346,64.808 -10.839,100.093c0,32.816 -0.507,63.447 9.286,95.725c8.779,29.27 24.752,57.986 41.771,86.147c26.305,42.931 58.789,83.408 92.859,124.978c86.647,106.932 186.731,200.187 275.438,315.604c17.526,66.723 133.583,113.216 257.912,103.656c124.836,-9.578 211.483,-71.378 193.957,-138.387" style="fill:#c6ec55;"/><path d="M16168.963,22299.067c8.779,-114.594 6.719,-215.225 -15.466,-327.904c-7.733,-39.923 -17.019,-78.216 -33.531,-117.047c-10.332,-24.061 -21.678,-48.14 -39.711,-70.823c-23.199,-29.27 -57.775,-51.954 -88.2,-79.309c-22.692,-19.962 -47.982,-32.278 -73.241,-51.416c-72.227,-54.155 -136.689,-79.863 -199.123,-139.748c0,-44.309 -67.061,-80.401 -150.095,-80.401c-82.527,0 -149.588,36.092 -149.588,80.401c-87.186,85.878 -124.836,144.402 -160.934,237.102c-20.632,53.869 -20.632,103.101 -7.733,157.794c6.719,29.27 26.305,57.163 46.936,84.501c29.918,39.923 66.015,77.124 107.817,114.04c102.144,89.978 219.216,160.264 320.315,252.426c30.425,65.362 154.247,105.285 276.484,88.886c122.237,-16.416 196.524,-82.871 166.1,-148.502" style="fill:#c6ec55;"/><path d="M17209.392,22098.88c67.061,-84.786 158.367,-148.233 244.507,-221.526c53.655,-45.67 108.832,-87.239 160.934,-133.732c35.083,-31.455 71.688,-62.624 99.039,-97.086c35.083,-44.309 54.162,-91.608 79.453,-139.21c8.24,-46.493 26.305,-86.702 20.125,-132.371c-6.719,-46.224 -21.139,-81.779 -33.531,-127.717c-10.839,-42.393 -37.143,-71.109 -35.591,-115.132c37.143,-39.654 6.719,-88.063 -67.061,-107.755c-73.748,-19.962 -164.04,-3.831 -201.183,35.823c-73.241,30.362 -111.43,57.986 -168.667,95.17c-100.084,64.808 -162.487,125.533 -268.751,189.517c-39.711,40.478 -89.246,76.301 -121.223,117.316c-53.116,67.816 -84.587,137.295 -110.892,208.118c-48.489,129.633 -69.628,251.049 -47.982,390.796c-19.586,66.723 66.015,129.364 190.344,139.748c124.329,10.384 241.401,-35.286 260.479,-102.009" style="fill:#c6ec55;"/><path d="M33460.008,34171.244c67.061,-84.786 158.367,-148.233 244.507,-221.526c53.655,-45.67 108.832,-87.239 160.934,-133.732c35.083,-31.455 71.688,-62.624 99.039,-97.086c35.083,-44.309 54.162,-91.608 79.453,-139.21c8.24,-46.493 26.305,-86.702 20.125,-132.371c-6.719,-46.224 -21.139,-81.779 -33.531,-127.717c-10.839,-42.393 -37.143,-71.109 -35.591,-115.132c37.143,-39.654 6.719,-88.063 -67.061,-107.755c-73.748,-19.962 -164.04,-3.831 -201.183,35.823c-73.241,30.362 -111.43,57.986 -168.667,95.17c-100.084,64.808 -162.487,125.533 -268.751,189.517c-39.711,40.478 -89.246,76.301 -121.223,117.316c-53.116,67.816 -84.587,137.295 -110.892,208.118c-48.489,129.633 -69.628,251.049 -47.982,390.796c-19.586,66.723 66.015,129.364 190.344,139.748c124.329,10.384 241.401,-35.286 260.479,-102.009" style="fill:#c6ec55;"/><path d="M31701.756,34171.244c67.061,-84.786 158.367,-148.233 244.507,-221.526c53.655,-45.67 108.832,-87.239 160.934,-133.732c35.083,-31.455 71.688,-62.624 99.039,-97.086c35.083,-44.309 54.162,-91.608 79.453,-139.21c8.24,-46.493 26.305,-86.702 20.125,-132.371c-6.719,-46.224 -21.139,-81.779 -33.531,-127.717c-10.839,-42.393 -37.143,-71.109 -35.591,-115.132c37.143,-39.654 6.719,-88.063 -67.061,-107.755c-73.748,-19.962 -164.04,-3.831 -201.183,35.823c-73.241,30.362 -111.43,57.986 -168.667,95.17c-100.084,64.808 -162.487,125.533 -268.751,189.517c-39.711,40.478 -89.246,76.301 -121.223,117.316c-53.116,67.816 -84.587,137.295 -110.892,208.118c-48.489,129.633 -69.628,251.049 -47.982,390.796c-19.586,66.723 66.015,129.364 190.344,139.748c124.329,10.384 241.401,-35.286 260.479,-102.009" style="fill:#c6ec55;"/><path d="M29282.829,34171.244c67.061,-84.786 158.367,-148.233 244.507,-221.526c53.655,-45.67 108.832,-87.239 160.934,-133.732c35.083,-31.455 71.688,-62.624 99.039,-97.086c35.083,-44.309 54.162,-91.608 79.453,-139.21c8.24,-46.493 26.305,-86.702 20.125,-132.371c-6.719,-46.224 -21.139,-81.779 -33.531,-127.717c-10.839,-42.393 -37.143,-71.109 -35.591,-115.132c37.143,-39.654 6.719,-88.063 -67.061,-107.755c-73.748,-19.962 -164.04,-3.831 -201.183,35.823c-73.241,30.362 -111.43,57.986 -168.667,95.17c-100.084,64.808 -162.487,125.533 -268.751,189.517c-39.711,40.478 -89.246,76.301 -121.223,117.316c-53.116,67.816 -84.587,137.295 -110.892,208.118c-48.489,129.633 -69.628,251.049 -47.982,390.796c-19.586,66.723 66.015,129.364 190.344,139.748c124.329,10.384 241.401,-35.286 260.479,-102.009" style="fill:#c6ec55;"/><path d="M26704.509,34171.244c67.061,-84.786 158.367,-148.233 244.507,-221.526c53.655,-45.67 108.832,-87.239 160.934,-133.732c35.083,-31.455 71.688,-62.624 99.039,-97.086c35.083,-44.309 54.162,-91.608 79.453,-139.21c8.24,-46.493 26.305,-86.702 20.125,-132.371c-6.719,-46.224 -21.139,-81.779 -33.531,-127.717c-10.839,-42.393 -37.143,-71.109 -35.591,-115.132c37.143,-39.654 6.719,-88.063 -67.061,-107.755c-73.748,-19.962 -164.04,-3.831 -201.183,35.823c-73.241,30.362 -111.43,57.986 -168.667,95.17c-100.084,64.808 -162.487,125.533 -268.751,189.517c-39.711,40.478 -89.246,76.301 -121.223,117.316c-53.116,67.816 -84.587,137.295 -110.892,208.118c-48.489,129.633 -69.628,251.049 -47.982,390.796c-19.586,66.723 66.015,129.364 190.344,139.748c124.329,10.384 241.401,-35.286 260.479,-102.009" style="fill:#c6ec55;"/><path d="M24579.411,34171.244c67.061,-84.786 158.367,-148.233 244.507,-221.526c53.655,-45.67 108.832,-87.239 160.934,-133.732c35.083,-31.455 71.688,-62.624 99.039,-97.086c35.083,-44.309 54.162,-91.608 79.453,-139.21c8.24,-46.493 26.305,-86.702 20.125,-132.371c-6.719,-46.224 -21.139,-81.779 -33.531,-127.717c-10.839,-42.393 -37.143,-71.109 -35.591,-115.132c37.143,-39.654 6.719,-88.063 -67.061,-107.755c-73.748,-19.962 -164.04,-3.831 -201.183,35.823c-73.241,30.362 -111.43,57.986 -168.667,95.17c-100.084,64.808 -162.487,125.533 -268.751,189.517c-39.711,40.478 -89.246,76.301 -121.223,117.316c-53.116,67.816 -84.587,137.295 -110.892,208.118c-48.489,129.633 -69.628,251.049 -47.982,390.796c-19.586,66.723 66.015,129.364 190.344,139.748c124.329,10.384 241.401,-35.286 260.479,-102.009" style="fill:#c6ec55;"/><path d="M22589.958,34171.244c67.061,-84.786 158.367,-148.233 244.507,-221.526c53.655,-45.67 108.832,-87.239 160.934,-133.732c35.083,-31.455 71.688,-62.624 99.039,-97.086c35.083,-44.309 54.162,-91.608 79.453,-139.21c8.24,-46.493 26.305,-86.702 20.125,-132.371c-6.719,-46.224 -21.139,-81.779 -33.531,-127.717c-10.839,-42.393 -37.143,-71.109 -35.591,-115.132c37.143,-39.654 6.719,-88.063 -67.061,-107.755c-73.748,-19.962 -164.04,-3.831 -201.183,35.823c-73.241,30.362 -111.43,57.986 -168.667,95.17c-100.084,64.808 -162.487,125.533 -268.751,189.517c-39.711,40.478 -89.246,76.301 -121.223,117.316c-53.116,67.816 -84.587,137.295 -110.892,208.118c-48.489,129.633 -69.628,251.049 -47.982,390.796c-19.586,66.723 66.015,129.364 190.344,139.748c124.329,10.384 241.401,-35.286 260.479,-102.009" style="fill:#c6ec55;"/><path d="M20238.786,34171.244c67.061,-84.786 158.367,-148.233 244.507,-221.526c53.655,-45.67 108.832,-87.239 160.934,-133.732c35.083,-31.455 71.688,-62.624 99.039,-97.086c35.083,-44.309 54.162,-91.608 79.453,-139.21c8.24,-46.493 26.305,-86.702 20.125,-132.371c-6.719,-46.224 -21.139,-81.779 -33.531,-127.717c-10.839,-42.393 -37.143,-71.109 -35.591,-115.132c37.143,-39.654 6.719,-88.063 -67.061,-107.755c-73.748,-19.962 -164.04,-3.831 -201.183,35.823c-73.241,30.362 -111.43,57.986 -168.667,95.17c-100.084,64.808 -162.487,125.533 -268.751,189.517c-39.711,40.478 -89.246,76.301 -121.223,117.316c-53.116,67.816 -84.587,137.295 -110.892,208.118c-48.489,129.633 -69.628,251.049 -47.982,390.796c-19.586,66.723 66.015,129.364 190.344,139.748c124.329,10.384 241.401,-35.286 260.479,-102.009" style="fill:#c6ec55;"/><path d="M17209.392,22098.88c67.061,-84.786 158.367,-148.233 244.507,-221.526c53.655,-45.67 108.832,-87.239 160.934,-133.732c35.083,-31.455 71.688,-62.624 99.039,-97.086c35.083,-44.309 54.162,-91.608 79.453,-139.21c8.24,-46.493 26.305,-86.702 20.125,-132.371c-6.719,-46.224 -21.139,-81.779 -33.531,-127.717c-10.839,-42.393 -37.143,-71.109 -35.591,-115.132c37.143,-39.654 6.719,-88.063 -67.061,-107.755c-73.748,-19.962 -164.04,-3.831 -201.183,35.823c-73.241,30.362 -111.43,57.986 -168.667,95.17c-100.084,64.808 -162.487,125.533 -268.751,189.517c-39.711,40.478 -89.246,76.301 -121.223,117.316c-53.116,67.816 -84.587,137.295 -110.892,208.118c-48.489,129.633 -69.628,251.049 -47.982,390.796c-19.586,66.723 66.015,129.364 190.344,139.748c124.329,10.384 241.401,-35.286 260.479,-102.009" style="fill:#c6ec55;"/><path d="M16419.65,22792.158c-150.634,-39.923 -236.235,-94.347 -359.011,-141.394c-47.443,-18.601 -90.26,-37.739 -140.809,-53.332c-34.545,-10.384 -69.121,-21.608 -107.279,-27.355c-96.472,-14.501 -179.505,-14.501 -283.203,-14.501c-127.91,0 -193.957,8.754 -327.54,18.869c-74.794,-18.869 -164.547,-1.647 -199.63,38.562c-35.083,39.923 -3.106,88.063 71.688,106.663c50.549,45.938 65.001,70.286 116.564,113.216c46.429,39.1 77.9,64.808 133.076,98.447c34.038,20.516 67.061,37.47 108.832,52.777c40.756,14.77 87.186,25.154 133.583,33.639c74.794,13.946 148.574,24.347 227.995,28.716c190.851,10.384 357.458,10.939 566.881,-11.762c124.836,8.485 239.341,-38.562 255.852,-105.571c16.005,-67.009 -72.227,-128.255 -197.031,-137.009" style="fill:#c6ec55;"/><path d="M22028.859,14403.26c-165.054,-107.755 -261.525,-204.287 -368.297,-299.743c-42.309,-37.47 -76.347,-75.209 -117.103,-112.124c-26.812,-23.793 -53.116,-48.14 -84.08,-71.109c-41.263,-30.362 -90.799,-54.693 -138.749,-84.501c-34.038,-21.339 -68.614,-37.201 -107.279,-58.255c-99.039,-54.962 -186.224,-92.431 -296.609,-156.97c-26.305,-42.124 -111.43,-64.808 -189.837,-50.862c-78.407,14.215 -121.223,59.616 -94.919,101.74c-14.959,70.017 -24.245,117.602 -25.29,180.763c-1.553,67.816 13.913,121.147 35.591,181.872c14.959,42.124 39.711,79.863 72.227,117.316c32.485,38.293 76.347,73.024 124.836,105.285c96.472,64.001 203.75,120.878 335.812,170.933c167.653,63.716 346.112,115.132 576.167,169.824c99.546,41.015 242.954,30.9 319.808,-22.7c76.347,-53.6 57.775,-130.456 -42.309,-171.471" style="fill:#c6ec55;"/><path d="M24470.46,11847.072c-165.054,-107.755 -261.525,-204.287 -368.297,-299.743c-42.309,-37.47 -76.347,-75.209 -117.103,-112.124c-26.812,-23.793 -53.116,-48.14 -84.08,-71.109c-41.263,-30.362 -90.799,-54.693 -138.749,-84.501c-34.038,-21.339 -68.614,-37.201 -107.279,-58.255c-99.039,-54.962 -186.224,-92.431 -296.609,-156.97c-26.305,-42.124 -111.43,-64.808 -189.837,-50.862c-78.407,14.215 -121.223,59.616 -94.919,101.74c-14.959,70.017 -24.245,117.602 -25.29,180.763c-1.553,67.816 13.913,121.147 35.591,181.872c14.959,42.124 39.711,79.863 72.227,117.316c32.485,38.293 76.347,73.024 124.836,105.285c96.472,64.001 203.75,120.878 335.812,170.933c167.653,63.716 346.112,115.132 576.167,169.824c99.546,41.015 242.954,30.9 319.808,-22.7c76.347,-53.6 57.775,-130.456 -42.309,-171.471" style="fill:#c6ec55;"/><path d="M22028.859,26732.853c-165.054,-107.755 -261.525,-204.287 -368.297,-299.743c-42.309,-37.47 -76.347,-75.209 -117.103,-112.124c-26.812,-23.793 -53.116,-48.14 -84.08,-71.109c-41.263,-30.362 -90.799,-54.693 -138.749,-84.501c-34.038,-21.339 -68.614,-37.201 -107.279,-58.255c-99.039,-54.962 -186.224,-92.431 -296.609,-156.97c-26.305,-42.124 -111.43,-64.808 -189.837,-50.862c-78.407,14.215 -121.223,59.616 -94.919,101.74c-14.959,70.017 -24.245,117.602 -25.29,180.763c-1.553,67.816 13.913,121.147 35.591,181.872c14.959,42.124 39.711,79.863 72.227,117.316c32.485,38.293 76.347,73.024 124.836,105.285c96.472,64.001 203.75,120.878 335.812,170.933c167.653,63.716 346.112,115.132 576.167,169.824c99.546,41.015 242.954,30.9 319.808,-22.7c76.347,-53.6 57.775,-130.456 -42.309,-171.471" style="fill:#c6ec55;"/><path d="M23008.945,14298.244c26.812,-98.447 51.056,-193.079 67.568,-298.096c9.286,-57.986 27.351,-113.216 33.531,-170.11c3.106,-30.362 4.12,-60.439 3.106,-89.978c-1.553,-30.631 -27.351,-56.07 -29.411,-86.147c-5.673,-74.117 -56.729,-129.078 -4.12,-207.294c58.789,-31.455 58.789,-82.316 0,-113.771c-58.282,-31.455 -153.201,-31.455 -211.99,0c-178.491,32.547 -265.645,80.955 -388.929,142.487c-55.208,27.624 -80.974,58.793 -120.716,92.986c-52.609,44.846 -78.407,93.255 -99.039,145.763c-14.959,37.47 -14.452,76.855 -9.286,115.686c7.733,53.6 23.199,106.378 53.655,158.886c68.614,121.147 172.28,225.626 252.747,337.75c13.913,67.009 127.403,115.132 252.747,107.47c124.836,-7.931 215.096,-68.37 200.137,-135.648" style="fill:#c6ec55;"/><path d="M20930.488,24923.732c26.812,-98.447 51.056,-193.079 67.568,-298.096c9.286,-57.986 27.351,-113.216 33.531,-170.11c3.106,-30.362 4.12,-60.439 3.106,-89.978c-1.553,-30.631 -27.351,-56.07 -29.411,-86.147c-5.673,-74.117 -56.729,-129.078 -4.12,-207.294c58.789,-31.455 58.789,-82.316 0,-113.771c-58.282,-31.455 -153.201,-31.455 -211.99,0c-178.491,32.547 -265.645,80.955 -388.929,142.487c-55.208,27.624 -80.974,58.793 -120.716,92.986c-52.609,44.846 -78.407,93.255 -99.039,145.763c-14.959,37.47 -14.452,76.855 -9.286,115.686c7.733,53.6 23.199,106.378 53.655,158.886c68.614,121.147 172.28,225.626 252.747,337.75c13.913,67.009 127.403,115.132 252.747,107.47c124.836,-7.931 215.096,-68.37 200.137,-135.648" style="fill:#c6ec55;"/><path d="M28723.267,20296.491c33.023,-127.448 76.854,-244.227 100.084,-373.305c8.779,-48.946 14.959,-96.817 13.913,-145.763c-0.507,-31.992 -3.106,-64.27 -12.899,-95.725c-10.839,-34.193 -29.918,-65.362 -50.042,-98.178c-21.678,-35.286 -44.876,-64.001 -72.734,-97.909c-61.388,-74.654 -120.177,-124.709 -183.626,-198.271c0,-44.309 -67.568,-80.401 -150.095,-80.401c-82.527,0 -149.588,36.092 -149.588,80.401c-76.347,91.07 -140.809,157.525 -193.957,253.787c-31.471,56.877 -52.609,111.032 -58.789,170.379c-3.613,33.639 4.12,67.278 12.899,100.648c13.406,50.324 33.531,99.001 58.789,147.947c66.015,126.625 151.648,237.926 231.608,360.72c12.899,67.009 124.836,116.224 250.179,109.671c125.343,-6.839 216.649,-66.723 204.257,-134.001" style="fill:#c6ec55;"/><path d="M29653.818,20629.049c84.587,-80.67 197.031,-139.748 302.789,-218.519c38.158,-28.161 76.854,-54.962 110.384,-85.055c21.139,-19.693 42.309,-39.923 56.729,-61.262c19.586,-29.539 23.738,-57.7 34.038,-88.332c7.733,-23.793 6.719,-41.301 9.793,-65.094c9.286,-69.731 -2.567,-110.209 7.733,-177.755c47.982,-36.092 32.485,-86.147 -34.545,-112.124c-67.568,-25.708 -160.934,-17.223 -209.423,18.601c-146.482,36.092 -240.894,57.431 -377.076,109.385c-76.854,28.985 -136.689,60.439 -193.45,101.454c-30.963,22.7 -52.102,49.232 -70.674,75.478c-28.872,40.746 -51.056,81.224 -63.448,124.155c-33.531,115.132 -37.651,216.317 -19.079,327.349c-26.812,66.186 51.595,131.262 174.878,145.494c123.283,14.215 244.507,-27.892 271.318,-93.809" style="fill:#c6ec55;"/><path d="M32130.29,26258.646c67.061,-84.786 158.367,-148.233 244.507,-221.526c53.655,-45.67 108.832,-87.239 160.934,-133.732c35.083,-31.455 71.688,-62.624 99.039,-97.086c35.083,-44.309 54.162,-91.608 79.453,-139.21c8.24,-46.493 26.305,-86.702 20.125,-132.371c-6.719,-46.224 -21.139,-81.779 -33.531,-127.717c-10.839,-42.393 -37.143,-71.109 -35.591,-115.132c37.143,-39.654 6.719,-88.063 -67.061,-107.755c-73.748,-19.962 -164.04,-3.831 -201.183,35.823c-73.241,30.362 -111.43,57.986 -168.667,95.17c-100.084,64.808 -162.487,125.533 -268.751,189.517c-39.711,40.478 -89.246,76.301 -121.223,117.316c-53.116,67.816 -84.587,137.295 -110.892,208.118c-48.489,129.633 -69.628,251.049 -47.982,390.796c-19.586,66.723 66.015,129.364 190.344,139.748c124.329,10.384 241.401,-35.286 260.479,-102.009" style="fill:#c6ec55;"/><path d="M31340.548,26951.924c-150.634,-39.923 -236.235,-94.347 -359.011,-141.394c-47.443,-18.601 -90.26,-37.739 -140.809,-53.332c-34.545,-10.384 -69.121,-21.608 -107.279,-27.355c-96.472,-14.501 -179.505,-14.501 -283.203,-14.501c-127.91,0 -193.957,8.754 -327.54,18.869c-74.794,-18.869 -164.547,-1.647 -199.63,38.562c-35.083,39.923 -3.106,88.063 71.688,106.663c50.549,45.938 65.001,70.286 116.564,113.216c46.429,39.1 77.9,64.808 133.076,98.447c34.038,20.516 67.061,37.47 108.832,52.777c40.756,14.77 87.186,25.154 133.583,33.639c74.794,13.946 148.574,24.347 227.995,28.716c190.851,10.384 357.458,10.939 566.881,-11.762c124.836,8.485 239.341,-38.562 255.852,-105.571c16.005,-67.009 -72.227,-128.255 -197.031,-137.009" style="fill:#c6ec55;"/><path d="M26259.048,21901.97c-75.84,-119.786 -110.892,-220.417 -163.533,-324.896c-20.125,-39.923 -34.545,-78.771 -57.775,-117.316c-14.452,-24.885 -28.872,-49.769 -48.996,-73.293c-26.305,-31.169 -63.955,-56.608 -96.979,-87.508c-24.245,-22.146 -51.056,-37.739 -78.407,-59.885c-74.287,-59.347 -141.855,-96.531 -217.663,-164.901c-6.18,-44.309 -78.407,-77.393 -160.934,-74.117c-82.527,3.562 -143.915,42.124 -137.735,86.416c-46.429,58.793 -70.674,97.355 -101.606,153.963c-21.139,38.562 -28.365,68.925 -36.636,107.201c-13.913,63.447 -9.793,120.324 10.839,180.494c11.853,35 38.696,68.37 67.061,100.362c42.309,47.854 90.26,92.986 151.648,135.648c137.735,96.262 292.996,176.394 489.013,272.119c69.121,56.339 210.976,72.201 316.195,35.286c105.219,-36.915 134.629,-112.947 65.508,-169.556" style="fill:#c6ec55;"/><path d="M27422.221,21283.918c82.527,-114.308 183.118,-240.11 279.051,-382.597c32.485,-48.14 65.508,-95.725 92.32,-145.225c17.526,-31.723 34.545,-63.447 44.876,-95.439c13.406,-41.57 11.853,-81.224 19.079,-121.971c5.166,-29.539 0,-54.424 3.106,-83.14c8.779,-81.779 -8.24,-143.31 29.411,-214.133c51.595,-34.731 40.756,-85.055 -23.738,-112.947c-64.494,-27.624 -158.874,-21.877 -210.469,12.585c-180.013,54.155 -310.015,119.232 -457.035,216.872c-80.467,53.6 -140.302,112.679 -190.344,179.671c-26.812,36.647 -41.771,75.746 -54.162,114.863c-18.065,57.7 -27.858,115.401 -28.872,173.387c-3.613,155.341 30.963,295.357 45.922,420.89c-19.079,66.723 66.554,129.364 190.851,139.479c124.329,10.384 240.894,-35.554 259.972,-102.278" style="fill:#c6ec55;"/><path d="M31018.575,21216.085c57.268,-135.093 120.177,-256.795 166.607,-389.99c17.526,-50.593 33.531,-100.093 42.816,-151.241c5.673,-33.084 10.839,-66.186 8.24,-99.539c-3.613,-42.662 -19.079,-82.585 -32.485,-124.978c-9.793,-30.077 -23.738,-54.962 -37.651,-84.786c-37.143,-79.863 -80.467,-138.101 -113.49,-220.417c16.005,-43.485 -36.636,-85.878 -117.61,-94.347c-81.513,-8.754 -160.427,19.424 -176.4,62.892c-112.952,89.424 -198.077,157.794 -278.544,254.611c-48.996,59.078 -82.527,116.778 -103.159,180.225c-11.853,36.092 -11.346,73.024 -9.793,109.671c2.567,54.962 12.899,108.579 29.411,162.717c40.756,135.379 107.817,258.442 165.593,395.182c0,67.547 102.144,122.239 227.995,122.239c126.389,0 228.502,-54.693 228.502,-122.239" style="fill:#c6ec55;"/><path d="M32452.559,21150.992c53.116,-41.301 115.043,-71.109 173.833,-104.193c141.855,-80.132 311.568,-122.239 481.787,-175.302c102.652,-31.992 210.976,-60.17 312.075,-96.531c73.241,-26.246 137.735,-56.877 203.75,-89.155c96.472,-46.762 178.491,-91.608 264.631,-146.318c90.26,-57.7 157.321,-106.932 236.774,-171.74c67.061,-25.708 82.527,-76.032 34.545,-112.124c-47.982,-36.092 -141.855,-44.577 -208.916,-18.601c-130.002,17.777 -235.221,22.969 -362.117,38.293c-124.836,15.038 -234.175,27.069 -353.338,46.762c-80.974,13.409 -156.814,27.892 -231.101,47.585c-77.9,20.23 -150.095,45.67 -218.709,72.739c-111.937,44.023 -215.603,91.339 -305.356,146.318c-214.082,131.262 -378.09,274.303 -450.317,470.122c-47.443,62.355 8.779,133.732 125.343,159.44c116.564,25.439 249.672,-4.654 297.116,-67.278" style="fill:#c6ec55;"/><path d="M29312.734,23081.231c29.918,-130.456 70.167,-261.449 97.993,-404.474c9.793,-50.862 20.125,-100.648 24.245,-151.51c2.567,-32.547 4.627,-65.094 0.507,-97.355c-5.166,-41.57 -23.738,-79.577 -35.083,-120.055c-8.24,-28.985 -23.738,-52.508 -34.038,-80.955c-27.858,-79.577 -69.628,-137.563 -72.227,-215.511c30.425,-41.301 -6.719,-88.063 -83.573,-104.462c-76.854,-16.416 -164.04,3.562 -194.971,44.846c-146.482,81.493 -241.401,157.794 -334.766,264.726c-55.208,62.624 -86.647,127.163 -105.757,197.734c-10.332,38.831 -6.719,78.771 -1.553,118.14c8.24,57.986 24.752,115.132 49.503,171.74c63.955,144.116 158.367,271.565 235.221,400.105c12.392,67.278 123.79,116.778 249.134,110.209c125.343,-6.284 217.663,-66.186 205.303,-133.178" style="fill:#c6ec55;"/><path d="M29982.773,23738.131c130.002,-72.739 249.134,-98.178 361.071,-138.101c43.831,-15.593 89.246,-24.885 131.016,-40.746c28.872,-10.939 59.835,-21.339 84.587,-35.554c65.508,-37.201 104.204,-76.032 157.828,-126.07c61.388,-56.877 82.02,-93.809 137.196,-165.456c67.061,-25.708 82.527,-76.032 34.545,-112.124c-47.982,-36.092 -141.855,-44.577 -208.916,-18.601c-105.219,2.184 -155.261,-2.184 -248.119,1.647c-92.859,3.831 -153.708,7.931 -234.714,18.601c-55.715,7.108 -102.144,16.954 -149.588,30.9c-50.549,14.77 -93.366,35 -132.569,56.608c-63.448,34.731 -122.237,70.286 -165.593,115.686c-83.573,86.971 -146.482,172.832 -178.491,307.674c-54.669,60.994 -6.719,134.001 107.279,163.271c113.49,28.985 250.179,3.277 304.342,-57.7" style="fill:#c6ec55;"/><path d="M15618.594,27208.872c-96.979,-68.925 -215.096,-185.149 -370.864,-313.958c-47.982,-39.923 -95.426,-79.863 -149.588,-118.694c-34.545,-24.616 -69.628,-49.501 -108.832,-71.109c-52.609,-28.985 -109.877,-50.055 -163.533,-74.385c-61.388,-27.624 -120.716,-42.124 -173.833,-66.723c-57.775,-27.069 -112.444,-35.823 -150.095,-61.531c-18.065,-12.3 -42.816,-14.501 -54.162,-26.8c0,-44.309 -67.061,-80.401 -149.588,-80.401c-83.034,0 -150.095,36.092 -150.095,80.401c-56.729,66.455 -37.651,136.471 -19.079,243.403c5.166,31.723 21.139,58.255 38.696,91.894c30.963,60.708 76.347,119.232 144.422,178.864c35.083,31.169 82.527,59.078 130.509,85.878c71.688,39.654 148.574,76.032 229.548,108.293c253.285,101.186 495.193,170.11 654.574,213.041c96.979,43.216 240.894,36.092 321.36,-15.862c80.467,-51.954 67.568,-129.078 -29.411,-172.294" style="fill:#c6ec55;"/><path d="M16457.839,26962.461c10.332,-103.37 32.485,-220.972 47.982,-352.52c8.779,-71.647 25.798,-143.024 32.485,-215.511c3.613,-41.839 5.166,-83.677 3.106,-124.155c-2.567,-42.393 -23.738,-79.863 -27.351,-120.055c-9.286,-93.809 -57.775,-167.102 8.779,-247.234c58.789,-31.455 58.789,-82.585 0,-113.771c-58.282,-31.455 -153.201,-31.455 -211.99,0c-184.671,42.124 -289.89,109.116 -419.892,197.179c-50.549,33.908 -78.407,70.286 -114.504,111.032c-45.922,51.416 -73.241,106.109 -91.306,165.187c-12.899,42.393 -12.392,86.702 -7.226,130.456c7.226,62.892 24.245,125.247 52.609,186.241c75.301,161.087 190.851,301.927 276.991,422.251c20.125,66.455 137.196,111.855 261.525,101.186c124.329,-10.939 208.916,-73.562 188.791,-140.302" style="fill:#c6ec55;"/><path d="M17403.349,27111.786c152.694,-91.608 300.222,-156.164 445.151,-233.271c56.222,-30.077 111.43,-57.986 162.994,-89.709c33.531,-20.516 67.061,-41.301 94.412,-64.539c36.636,-30.631 59.328,-62.355 88.2,-95.994c21.678,-24.347 32.485,-45.401 50.042,-71.378c46.936,-69.193 66.015,-120.609 117.61,-195.264c60.881,-30.362 63.955,-81.224 7.733,-113.502c-56.729,-32.547 -151.648,-34.193 -211.99,-4.1c-181.058,30.362 -303.835,48.677 -458.05,90.516c-99.546,27.069 -180.551,57.986 -259.465,97.355c-45.383,22.969 -81.513,50.593 -115.55,78.485c-51.056,42.393 -95.426,85.878 -132.062,133.178c-86.647,112.393 -139.795,222.618 -195.51,356.62c-57.268,59.885 -12.899,133.732 99.039,164.632c111.937,30.9 249.672,7.108 307.448,-53.063" style="fill:#c6ec55;"/><path d="M12757.416,33674.594c-96.979,-68.925 -215.096,-185.149 -370.864,-313.958c-47.982,-39.923 -95.426,-79.863 -149.588,-118.694c-34.545,-24.616 -69.628,-49.501 -108.832,-71.109c-52.609,-28.985 -109.877,-50.055 -163.533,-74.385c-61.388,-27.624 -120.716,-42.124 -173.833,-66.723c-57.775,-27.069 -112.444,-35.823 -150.095,-61.531c-18.065,-12.3 -42.816,-14.501 -54.162,-26.8c0,-44.309 -67.061,-80.401 -149.588,-80.401c-83.034,0 -150.095,36.092 -150.095,80.401c-56.729,66.455 -37.651,136.471 -19.079,243.403c5.166,31.723 21.139,58.255 38.696,91.894c30.963,60.708 76.347,119.232 144.422,178.864c35.083,31.169 82.527,59.078 130.509,85.878c71.688,39.654 148.574,76.032 229.548,108.293c253.285,101.186 495.193,170.11 654.574,213.041c96.979,43.216 240.894,36.092 321.36,-15.862c80.467,-51.954 67.568,-129.078 -29.411,-172.294" style="fill:#c6ec55;"/><path d="M13596.661,33428.183c10.332,-103.37 32.485,-220.972 47.982,-352.52c8.779,-71.647 25.798,-143.024 32.485,-215.511c3.613,-41.839 5.166,-83.677 3.106,-124.155c-2.567,-42.393 -23.738,-79.863 -27.351,-120.055c-9.286,-93.809 -57.775,-167.102 8.779,-247.234c58.789,-31.455 58.789,-82.585 0,-113.771c-58.282,-31.455 -153.201,-31.455 -211.99,0c-184.671,42.124 -289.89,109.116 -419.892,197.179c-50.549,33.908 -78.407,70.286 -114.504,111.032c-45.922,51.416 -73.241,106.109 -91.306,165.187c-12.899,42.393 -12.392,86.702 -7.226,130.456c7.226,62.892 24.245,125.247 52.609,186.241c75.301,161.087 190.851,301.927 276.991,422.251c20.125,66.455 137.196,111.855 261.525,101.186c124.329,-10.939 208.916,-73.562 188.791,-140.302" style="fill:#c6ec55;"/><path d="M14542.171,33577.509c152.694,-91.608 300.222,-156.164 445.151,-233.271c56.222,-30.077 111.43,-57.986 162.994,-89.709c33.531,-20.516 67.061,-41.301 94.412,-64.539c36.636,-30.631 59.328,-62.355 88.2,-95.994c21.678,-24.347 32.485,-45.401 50.042,-71.378c46.936,-69.193 66.015,-120.609 117.61,-195.264c60.881,-30.362 63.955,-81.224 7.733,-113.502c-56.729,-32.547 -151.648,-34.193 -211.99,-4.1c-181.058,30.362 -303.835,48.677 -458.05,90.516c-99.546,27.069 -180.551,57.986 -259.465,97.355c-45.383,22.969 -81.513,50.593 -115.55,78.485c-51.056,42.393 -95.426,85.878 -132.062,133.178c-86.647,112.393 -139.795,222.618 -195.51,356.62c-57.268,59.885 -12.899,133.732 99.039,164.632c111.937,30.9 249.672,7.108 307.448,-53.063" style="fill:#c6ec55;"/><path d="M7487.096,26559.634c-155.261,-150.417 -287.323,-284.419 -424.012,-417.882c-52.102,-51.147 -99.039,-101.454 -149.588,-150.955c-31.978,-31.169 -62.941,-62.624 -96.979,-92.986c-42.816,-37.739 -95.426,-70.286 -138.749,-108.848c-30.425,-26.8 -65.508,-48.408 -95.933,-76.301c-80.467,-72.739 -161.98,-132.086 -222.829,-222.887c0,-44.577 -67.061,-80.401 -149.588,-80.401c-83.034,0 -150.095,35.823 -150.095,80.401c-54.162,77.662 -78.914,140.017 -102.144,213.864c-16.512,53.6 -13.913,100.093 -10.332,151.778c5.673,87.794 42.309,168.195 99.039,248.041c33.023,45.67 81.513,88.332 134.122,129.078c73.748,57.7 156.814,112.124 252.747,163.271c208.916,111.301 447.211,205.11 702.556,319.419c80.467,52.239 224.382,59.347 321.36,16.416c96.979,-42.931 110.892,-120.055 30.425,-172.026" style="fill:#c6ec55;"/><path d="M8326.341,26091.159c30.963,-82.871 65.001,-188.425 90.799,-314.781c13.406,-63.178 30.963,-126.625 34.545,-192.525c2.06,-37.739 1.046,-75.478 -6.719,-112.124c-8.24,-39.1 -34.545,-71.647 -47.982,-107.755c-22.185,-59.078 -70.674,-97.64 -72.227,-148.502c-1.046,-25.708 -19.586,-42.393 -11.853,-65.917c49.503,-35.286 36.098,-85.878 -29.918,-112.393c-66.015,-26.531 -160.427,-19.424 -209.93,16.131c-148.035,42.124 -221.815,106.378 -334.766,197.448c-37.651,30.631 -57.268,60.994 -84.08,97.086c-33.023,44.023 -53.116,89.424 -64.494,139.21c-8.24,35.286 -4.627,71.932 2.06,108.024c9.286,52.777 27.351,104.462 52.609,154.786c72.227,143.579 174.878,261.181 226.442,353.612c6.18,67.278 112.952,119.232 238.834,115.955c125.85,-3.277 222.829,-60.708 216.649,-128.255" style="fill:#c6ec55;"/><path d="M9862.977,26953.992c127.91,-148.771 276.484,-266.91 419.892,-391.351c57.775,-50.055 116.057,-98.178 170.727,-148.771c36.098,-33.37 72.734,-67.009 102.652,-102.278c39.203,-45.67 66.015,-92.163 97.993,-140.571c21.678,-33.639 36.636,-64.808 55.208,-99.825c46.936,-90.516 74.287,-168.195 124.329,-264.726c48.489,-36.092 32.485,-86.416 -34.545,-112.124c-67.568,-25.708 -160.934,-17.508 -208.916,18.601c-121.223,43.216 -217.156,76.301 -325.988,121.433c-109.877,45.938 -199.63,89.978 -292.489,141.663c-61.895,34.462 -116.057,69.731 -165.054,108.848c-48.996,38.831 -88.707,80.955 -123.283,123.617c-70.674,86.416 -124.836,175.033 -164.547,268.826c-56.222,133.464 -84.587,266.104 -99.039,417.328c-30.425,65.631 43.831,132.086 166.1,148.233c122.237,16.416 246.059,-23.524 276.991,-88.886" style="fill:#c6ec55;"/><path d="M5588.073,33703.579c-155.261,-150.417 -287.323,-284.419 -424.012,-417.882c-52.102,-51.147 -99.039,-101.454 -149.588,-150.955c-31.978,-31.169 -62.941,-62.624 -96.979,-92.986c-42.816,-37.739 -95.426,-70.286 -138.749,-108.848c-30.425,-26.8 -65.508,-48.408 -95.933,-76.301c-80.467,-72.739 -161.98,-132.086 -222.829,-222.887c0,-44.577 -67.061,-80.401 -149.588,-80.401c-83.034,0 -150.095,35.823 -150.095,80.401c-54.162,77.662 -78.914,140.017 -102.144,213.864c-16.512,53.6 -13.913,100.093 -10.332,151.778c5.673,87.794 42.309,168.195 99.039,248.041c33.023,45.67 81.513,88.332 134.122,129.078c73.748,57.7 156.814,112.124 252.747,163.271c208.916,111.301 447.211,205.11 702.556,319.419c80.467,52.239 224.382,59.347 321.36,16.416c96.979,-42.931 110.892,-120.055 30.425,-172.026" style="fill:#c6ec55;"/><path d="M6427.318,33235.104c30.963,-82.871 65.001,-188.425 90.799,-314.781c13.406,-63.178 30.963,-126.625 34.545,-192.525c2.06,-37.739 1.046,-75.478 -6.719,-112.124c-8.24,-39.1 -34.545,-71.647 -47.982,-107.755c-22.185,-59.078 -70.674,-97.64 -72.227,-148.502c-1.046,-25.708 -19.586,-42.393 -11.853,-65.917c49.503,-35.286 36.098,-85.878 -29.918,-112.393c-66.015,-26.531 -160.427,-19.424 -209.93,16.131c-148.035,42.124 -221.815,106.378 -334.766,197.448c-37.651,30.631 -57.268,60.994 -84.08,97.086c-33.023,44.023 -53.116,89.424 -64.494,139.21c-8.24,35.286 -4.627,71.932 2.06,108.024c9.286,52.777 27.351,104.462 52.609,154.786c72.227,143.579 174.878,261.181 226.442,353.612c6.18,67.278 112.952,119.232 238.834,115.955c125.85,-3.277 222.829,-60.708 216.649,-128.255" style="fill:#c6ec55;"/><path d="M7963.953,34097.937c127.91,-148.771 276.484,-266.91 419.892,-391.351c57.775,-50.055 116.057,-98.178 170.727,-148.771c36.098,-33.37 72.734,-67.009 102.652,-102.278c39.203,-45.67 66.015,-92.163 97.993,-140.571c21.678,-33.639 36.636,-64.808 55.208,-99.825c46.936,-90.516 74.287,-168.195 124.329,-264.726c48.489,-36.092 32.485,-86.416 -34.545,-112.124c-67.568,-25.708 -160.934,-17.508 -208.916,18.601c-121.223,43.216 -217.156,76.301 -325.988,121.433c-109.877,45.938 -199.63,89.978 -292.489,141.663c-61.895,34.462 -116.057,69.731 -165.054,108.848c-48.996,38.831 -88.707,80.955 -123.283,123.617c-70.674,86.416 -124.836,175.033 -164.547,268.826c-56.222,133.464 -84.587,266.104 -99.039,417.328c-30.425,65.631 43.831,132.086 166.1,148.233c122.237,16.416 246.059,-23.524 276.991,-88.886" style="fill:#c6ec55;"/><path d="M22888.63,22555.056c-127.403,-82.871 -183.626,-147.41 -261.018,-209.764c-27.351,-22.432 -42.309,-45.67 -69.121,-66.723c-16.512,-13.123 -32.485,-26.531 -52.609,-38.831c-30.425,-18.046 -69.121,-27.892 -107.279,-45.132c-44.876,-20.785 -85.126,-29.808 -139.288,-50.593c-76.854,-29.808 -125.343,-40.478 -217.156,-74.654c-30.963,-41.301 -118.117,-61.262 -194.971,-44.846c-76.854,16.416 -113.997,63.178 -83.573,104.462c-25.798,70.554 -37.143,103.656 -45.922,163.271c-6.18,43.485 3.613,72.201 13.406,110.494c8.779,34.193 29.918,61.8 55.208,90.516c27.351,30.362 67.061,56.339 109.877,79.577c64.494,34.731 130.509,66.723 217.156,90.516c149.588,41.015 300.222,68.925 533.351,99.001c106.772,35.823 247.581,18.315 314.642,-38.831c66.554,-57.163 34.545,-132.64 -72.734,-168.463" style="fill:#c6ec55;"/><path d="M23562.314,21309.609c42.816,-132.64 119.67,-243.118 188.284,-360.988c25.798,-45.132 55.715,-88.063 79.96,-132.909c15.466,-28.985 31.978,-58.255 42.309,-88.063c13.406,-39.385 12.392,-77.393 20.125,-117.602c5.673,-28.985 2.567,-54.155 5.166,-83.677c6.719,-79.577 -3.613,-141.394 13.913,-225.895c41.263,-38.562 16.005,-87.508 -55.715,-109.385c-71.688,-22.146 -163.533,-8.754 -204.796,29.808c-102.652,39.923 -172.787,71.109 -262.032,115.132c-59.835,29.539 -102.144,56.877 -151.648,90.247c-81.513,54.693 -142.869,109.94 -191.897,172.832c-28.872,36.915 -43.831,76.57 -55.715,115.955c-18.065,59.347 -26.812,118.14 -22.185,178.579c11.346,143.31 60.342,277.849 138.749,428.266c6.18,67.278 112.952,119.517 238.834,115.955c125.85,-3.277 222.829,-60.708 216.649,-128.255" style="fill:#c6ec55;"/><path d="M21315.358,17556.096c-80.467,-109.385 -123.283,-193.348 -183.118,-279.764c-21.139,-31.169 -34.038,-61.262 -56.222,-90.516c-12.899,-17.508 -25.29,-34.731 -41.771,-51.416c-22.692,-22.432 -58.789,-37.47 -86.14,-60.17c-31.978,-26.8 -71.181,-41.015 -107.279,-70.286c-53.655,-42.393 -101.099,-63.447 -157.321,-114.594c0,-44.309 -67.568,-80.401 -150.095,-80.401c-82.527,0 -149.588,36.092 -149.588,80.401c-79.96,74.654 -108.324,119.232 -150.634,187.064c-20.125,32.547 -19.586,57.986 -26.305,89.709c-9.793,46.493 2.567,87.508 21.139,130.456c14.452,33.639 43.831,65.094 76.854,94.633c46.936,41.839 98.532,80.955 167.114,116.224c136.182,70.554 286.277,124.155 483.847,199.364c77.361,53.063 220.769,62.624 320.315,21.054c99.039,-41.57 116.564,-118.425 39.203,-171.74" style="fill:#c6ec55;"/><path d="M22443.479,17523.818c94.412,-100.362 181.566,-181.049 260.479,-275.127c28.872,-34.462 57.268,-66.723 79.96,-101.454c13.913,-21.877 27.351,-43.754 34.545,-66.186c9.286,-29.808 2.06,-57.163 4.12,-87.508c2.06,-22.7 -6.719,-39.654 -7.733,-62.624c-3.613,-65.094 -28.872,-105.017 -19.586,-174.479c45.922,-36.915 27.351,-86.971 -41.771,-111.586c-68.614,-24.347 -161.98,-14.501 -207.87,22.432c-164.04,45.938 -254.807,81.493 -378.629,145.225c-75.84,39.1 -125.85,81.779 -170.727,131.817c-24.752,27.355 -36.636,57.986 -46.429,88.063c-14.452,44.023 -21.139,87.239 -19.079,132.64c4.627,106.109 39.203,200.741 63.448,315.873c-22.185,66.455 60.881,129.901 184.671,141.932c123.79,11.762 242.447,-32.547 264.631,-99.001" style="fill:#c6ec55;"/></g></svg>