<?xml version="1.0" encoding="UTF-8" standalone="no"?><!DOCTYPE svg PUBLIC "-//W3C//DTD SVG 1.1//EN" "http://www.w3.org/Graphics/SVG/1.1/DTD/svg11.dtd"><svg width="100%" height="100%" viewBox="0 0 4961 3508" version="1.1" xmlns="http://www.w3.org/2000/svg" xmlns:xlink="http://www.w3.org/1999/xlink" xml:space="preserve" xmlns:serif="http://www.serif.com/" style="fill-rule:evenodd;clip-rule:evenodd;stroke-linejoin:round;stroke-miterlimit:2;"><path id="main-branch" serif:id="main branch" d="M4944.506,5.211c-476.226,530.775 -1078.282,771.792 -1589.169,654.651c-4.387,-1.008 -10.483,2.175 -13.604,7.099c-3.117,4.92 -2.088,9.736 2.298,10.743c518.621,118.913 1129.785,-125.893 1613.22,-664.702c4.076,-4.543 4.528,-9.976 1.01,-12.125c-3.517,-2.149 -9.681,-0.208 -13.755,4.335" style="fill:#147664;"/><path d="M3902.608,947.143c21.16,-33.626 34.057,-68.469 55.062,-102.125c56.417,-90.389 131.663,-180.971 217.519,-255.682c4.663,-4.056 6.263,-9.756 3.573,-12.72c-2.688,-2.965 -8.658,-2.078 -13.322,1.979c-88.303,76.843 -165.747,169.98 -223.77,262.944c-20.984,33.627 -33.867,68.442 -55.005,102.031c-3.1,4.925 -2.048,9.73 2.352,10.714c4.399,0.984 10.492,-2.217 13.593,-7.142" style="fill:#147664;"/><path d="M4363.778,681.142c30.092,-60.082 49.878,-119.568 79.221,-179.446c18.314,-37.364 56.252,-69.239 68.852,-105.57" style="fill:#029d92;"/><path d="M4372.406,681.765c30.109,-60.112 49.908,-119.631 79.271,-179.547c8.735,-17.817 22.268,-34.293 34.999,-50.682c14.309,-18.417 27.654,-36.739 34.405,-56.213c1.736,-5.003 -0.993,-8.706 -6.085,-8.265c-5.095,0.444 -10.644,4.87 -12.381,9.872c-5.844,16.854 -17.774,32.639 -30.16,48.583c-13.962,17.969 -28.556,36.114 -38.129,55.655c-29.333,59.848 -49.098,119.297 -79.178,179.347c-2.51,5.015 -0.683,9.365 4.078,9.713c4.762,0.34 10.667,-3.45 13.18,-8.464" style="fill:#147664;"/><path d="M4718.366,514.576c-23.187,-104.757 -4.879,-203.444 69.134,-326.021c2.989,-4.953 1.785,-9.67 -2.692,-10.531c-4.479,-0.858 -10.542,2.462 -13.533,7.412c-77.004,127.538 -96.247,230.259 -72.124,339.255c0.925,4.18 5.982,5.304 11.283,2.513c5.303,-2.795 8.858,-8.455 7.932,-12.629" style="fill:#147664;"/><path d="M4788.23,165.59c-35.154,28.943 -88.428,50.737 -144.619,65.493c-85.865,22.541 -178.58,28.246 -225.954,14.275c-4.228,-1.245 -10.368,1.695 -13.698,6.562c-3.334,4.869 -2.603,9.832 1.624,11.078c49.394,14.567 145.892,9.077 235.418,-14.428c60.744,-15.95 118.251,-40.339 156.256,-71.629c4.772,-3.929 6.624,-9.662 4.133,-12.794c-2.49,-3.132 -8.387,-2.486 -13.159,1.444" style="fill:#147664;"/><path d="M4415.759,453.19c-65.251,5.909 -127.981,0.82 -183.456,-14.727c-55.702,-15.612 -104.087,-41.77 -140.318,-77.943c-1.416,-1.418 -4.427,-0.88 -6.716,1.193c-2.285,2.074 -2.992,4.908 -1.573,6.324c36.836,36.782 86.017,63.396 142.655,79.271c56.326,15.788 120.035,20.951 186.292,14.948c2.555,-0.234 5.324,-2.451 6.181,-4.951c0.855,-2.503 -0.514,-4.346 -3.065,-4.116" style="fill:#147664;"/><path d="M4177.111,571.103c-117.441,-0.019 -218.302,-53.133 -273.772,-128.538c-2.375,-3.224 -8.223,-2.72 -13.053,1.133c-4.836,3.853 -6.83,9.602 -4.454,12.827c57.383,78.008 161.885,132.769 283.381,132.788c4.922,0.003 10.688,-4.079 12.866,-9.101c2.179,-5.027 -0.044,-9.109 -4.969,-9.108" style="fill:#147664;"/><path d="M3785.732,677.705c-90.71,-21.408 -157.524,-74.466 -196.858,-147.724c-1.92,-3.569 -7.557,-3.596 -12.588,-0.06c-5.032,3.536 -7.557,9.303 -5.641,12.876c40.685,75.776 109.868,130.586 203.699,152.727c4.37,1.033 10.47,-2.122 13.614,-7.04c3.139,-4.918 2.143,-9.748 -2.226,-10.78" style="fill:#147664;"/><path d="M3781.851,701.333c0.541,-0.356 1.075,-0.753 1.588,-1.186c2.196,-1.846 3.057,-3.021 3.188,-3.195c3.605,-4.67 2.742,-7.536 2.219,-8.855c-0.776,-1.964 -2.442,-3.374 -5.832,-3.217c-0.545,0.027 -3.128,-0.118 -7.101,2.694c-1.582,1.119 -33.268,26.691 -38.862,31.786c-18.459,16.815 -32.556,33.636 -46.408,53.302c-37.549,53.298 -65.261,103.752 -81.835,159.084c-1.494,4.98 1.496,8.469 6.668,7.786c5.174,-0.681 10.579,-5.273 12.072,-10.253c15.815,-52.79 42.359,-100.914 78.184,-151.766c12.452,-17.672 25.062,-32.818 41.657,-47.935c4.538,-4.135 28.98,-23.836 34.462,-28.248" style="fill:#147664;"/><path d="M3510.701,695.559c-71.169,56.426 -102.978,98.86 -124.265,174.237c-1.401,4.965 1.68,8.372 6.872,7.609c5.199,-0.764 10.558,-5.421 11.961,-10.388c19.515,-69.099 48.722,-107.981 113.96,-159.702c4.842,-3.837 6.862,-9.588 4.508,-12.832c-2.352,-3.245 -8.193,-2.762 -13.035,1.076" style="fill:#147664;"/><path d="M3470.041,684.902c-18.982,-20.445 -38.312,-48.881 -46.356,-81.592c-5.398,-21.954 -5.72,-45.833 2.825,-70.51c0.864,-2.502 -0.501,-4.354 -3.05,-4.13c-2.549,0.226 -5.323,2.439 -6.187,4.94c-9.067,26.192 -8.896,51.588 -3.165,74.888c8.254,33.579 28.036,62.811 47.519,83.797c1.366,1.464 4.355,1 6.678,-1.039c2.316,-2.04 3.096,-4.886 1.736,-6.354" style="fill:#147664;"/><path d="M4707.974,427.285c3.538,4.319 -28.817,49.862 -35.725,60.582c-10.969,17.021 -29.215,30.418 -39.443,47.283c-22.14,36.506 -31.234,81.072 -31.657,114.526c-0.502,39.542 1.187,54.393 3.936,54.504c16.878,0.685 57.177,-35.149 71.967,-46.868c62.204,-49.291 91.528,-130.456 73.744,-179.971c-7.407,-20.624 -27.632,-25.864 -43.634,-37.805" style="fill:#029d92;"/><path d="M4408.904,590.477c-5.607,84.107 -68.937,174.289 -155.221,238.687c-16.758,12.511 -83.409,52.277 -94.177,51.067c-2.526,-0.282 1.737,-16.489 1.78,-16.658c5.797,-22.64 17.084,-44.544 29.171,-67.144c32.284,-60.363 122.073,-158.317 191.22,-190.222" style="fill:#029d92;"/><path d="M4505.998,263.931c-22.396,18.62 -57.256,19.242 -78.007,17.914c-55.594,-3.566 -98.397,-36.054 -117.556,-78.84c-6.257,-13.984 -11.472,-28.852 -18.441,-42.326c-0.656,-1.265 -11.327,-20.537 -11.045,-20.73c23.466,-15.971 58.487,-17.93 79.818,-19.08c69.485,-3.759 116.883,14.531 146.53,61.639c8.173,12.987 26.218,47.151 14.777,69.599" style="fill:#029d92;"/><path d="M4225.989,440.253c-9.001,8.53 -56.214,-5.297 -66.672,-8.067c-58.221,-15.412 -80.809,-56.915 -114.082,-97.731c-1.789,-2.197 -30.862,-38.654 -30.035,-41.902c0.245,-0.959 19.19,-8.693 21.517,-9.692c28.097,-12.071 57.065,-14.982 81.39,-12.443c70.521,7.354 116.295,44.207 126.247,108.953c2.286,14.856 10.845,38.087 -0.551,57.353" style="fill:#029d92;"/><path d="M3997.843,538.765c-20.268,18.182 -67.575,14.542 -86.435,12.949c-73.831,-6.235 -98.132,-78.04 -116.827,-135.539c-4.419,-13.592 -15.921,-25.001 -18.796,-39.244c-0.822,-4.074 10.278,-2.325 15.234,-2.844c10.623,-1.11 9.911,-0.514 20.194,-0.456c27.354,0.157 53.123,4.711 76.698,11.625c72.984,21.408 122.54,63.419 112.958,147.581" style="fill:#029d92;"/><path d="M3959.665,854.686c21.308,10.458 3.129,60.517 -0.436,84.976c-3.583,24.614 -8.914,48.359 -24.742,73.846c-40.03,64.475 -160.522,168.133 -233.971,175.224c-1.645,0.161 0.026,-2.98 0.372,-4.558c6.695,-30.682 20.283,-65.479 34.909,-96.593c44.18,-93.969 92.635,-181.361 202.075,-227.569" style="fill:#029d92;"/><path d="M3649.083,863.511c49.357,67.427 -74.948,190.761 -158.737,242.762c-15.002,9.311 -114.388,47.772 -118.189,41.698c-3.084,-4.924 35.017,-74.764 40.37,-84.529c40.229,-73.389 148.202,-179.911 233.134,-195.964" style="fill:#029d92;"/><path d="M3430.348,812.376c25.061,42.879 -20.946,146.288 -88.529,183.328c-8.827,4.835 -75.146,36.542 -76.184,35.799c-7.145,-5.129 18.355,-68.357 22.428,-76.572c37.063,-74.792 51.729,-118.069 131.138,-161.425" style="fill:#029d92;"/><path d="M3339.414,661.519c-48.321,59.475 -137.989,108.902 -188.008,94.041c-23.934,-7.116 -46.887,-17.818 -71.751,-22.592c-3.022,-0.583 -9.53,3.93 -9.567,-0.17c-0.017,-1.779 2.064,-6.692 2.562,-7.574c41.435,-73.515 145.421,-115.111 197.381,-109.034c21.141,2.472 59.529,15.043 54.245,51.863" style="fill:#029d92;"/><path d="M3405.588,589.845c-25.437,-28.511 -2.67,-83.719 18.203,-124.799c6.445,-12.69 16.155,-26.75 25.134,-38.787c1.179,-1.582 2.309,-4.774 3.884,-4.568c17.183,2.243 26.449,26.67 33.895,38.942c6.72,11.076 9.114,23.598 11.286,37.277c3.14,19.812 1.154,35.191 -5.17,57.661c-8.091,28.746 -22.537,50.773 -43.314,77.701c-5.039,6.529 -16.438,14.975 -19.958,21.703" style="fill:#029d92;"/><path d="M3636.979,603.608c-16.464,9.134 -34.542,-1.633 -45.056,-6.335c-44.154,-19.756 -52.075,-64.134 -45.916,-115.954c1.815,-15.264 20.269,-61.818 22.022,-62.674c8.91,-4.35 60.611,5.29 67.543,8.991c38.607,20.61 85.103,142.064 32.319,197.807" style="fill:#029d92;"/><path id="main-branch1" serif:id="main branch1" d="M2041.139,2128.405c137.341,-699.751 531.117,-1215.018 1029.944,-1375.951c4.284,-1.38 7.891,-7.235 8.052,-13.063c0.159,-5.822 -3.19,-9.432 -7.474,-8.052c-506.378,163.37 -906.037,686.555 -1045.458,1396.898c-1.176,5.989 1.218,10.887 5.34,10.933c4.122,0.046 8.423,-4.778 9.597,-10.766" style="fill:#147664;"/><path d="M2453.896,785.863c-0.961,39.718 5.798,76.252 4.986,115.915c-2.187,106.528 -20.448,222.862 -55.949,330.995c-1.929,5.872 -0.386,11.587 3.443,12.755c3.827,1.17 8.501,-2.648 10.431,-8.521c36.512,-111.217 55.353,-230.87 57.601,-340.433c0.809,-39.628 -5.948,-76.131 -4.987,-115.806c0.142,-5.818 -3.222,-9.407 -7.506,-8c-4.283,1.407 -7.878,7.276 -8.019,13.094" style="fill:#147664;"/><path d="M2193.933,1250.463c4.91,67.017 18.37,128.246 23.82,194.703c3.398,41.472 -12.873,88.275 -5.096,125.935" style="fill:#029d92;"/><path d="M2186.203,1254.345c4.911,67.052 18.376,128.315 23.828,194.816c1.618,19.777 -1.571,40.858 -4.117,61.454c-2.863,23.146 -4.945,45.717 -0.775,65.902c1.07,5.186 5.31,6.97 9.459,3.984c4.149,-2.99 6.65,-9.632 5.581,-14.819c-3.609,-17.47 -1.442,-37.137 1.035,-57.174c2.794,-22.583 6.04,-45.642 4.259,-67.329c-5.443,-66.427 -18.901,-127.613 -23.805,-194.597c-0.412,-5.593 -4.208,-8.395 -8.475,-6.256c-4.264,2.146 -7.396,8.425 -6.989,14.018" style="fill:#147664;"/><path d="M1974.616,1575.081c73.55,78.116 108.348,172.262 107.526,315.448c-0.032,5.785 3.417,9.22 7.704,7.668c4.287,-1.556 7.795,-7.512 7.83,-13.296c0.852,-148.979 -35.208,-247.069 -111.733,-328.347c-2.934,-3.118 -7.854,-1.494 -10.979,3.618c-3.125,5.116 -3.281,11.798 -0.348,14.909" style="fill:#147664;"/><path d="M2093.272,1910.63c15.38,-42.86 49.985,-88.855 90.698,-130.299c62.218,-63.323 138.94,-115.691 186.787,-127.943c4.27,-1.095 8.039,-6.764 8.407,-12.65c0.371,-5.889 -2.798,-9.778 -7.067,-8.685c-49.887,12.774 -129.97,66.895 -194.838,132.92c-44.013,44.8 -80.926,95.192 -97.553,141.528c-2.088,5.819 -0.743,11.691 3,13.106c3.743,1.415 8.477,-2.159 10.565,-7.977" style="fill:#147664;"/><path d="M2265.985,1472.887c53.026,-38.483 109.517,-66.227 165.129,-81.273c55.841,-15.107 110.796,-17.408 160.438,-4.885c1.942,0.494 4.254,-1.51 5.158,-4.463c0.901,-2.951 0.057,-5.748 -1.887,-6.238c-50.473,-12.737 -106.345,-10.42 -163.125,4.94c-56.467,15.275 -113.837,43.457 -167.679,82.535c-2.075,1.509 -3.319,4.832 -2.774,7.417c0.547,2.588 2.667,3.47 4.74,1.966" style="fill:#147664;"/><path d="M2410.617,1249.419c100.892,-60.11 214.725,-66.122 300.979,-29.747c3.691,1.554 8.456,-1.873 10.633,-7.655c2.182,-5.786 0.951,-11.745 -2.741,-13.299c-89.23,-37.632 -207.034,-31.17 -311.409,31.017c-4.23,2.518 -7.093,8.976 -6.393,14.405c0.702,5.433 4.702,7.802 8.931,5.28" style="fill:#147664;"/><path d="M2692.237,957.474c88.881,-28.051 173.438,-16.681 244.732,26.111c3.477,2.083 8.332,-0.779 10.843,-6.393c2.512,-5.613 1.728,-11.86 -1.747,-13.948c-73.744,-44.262 -161.233,-55.925 -253.17,-26.906c-4.283,1.35 -7.907,7.183 -8.09,13.017c-0.179,5.832 3.149,9.471 7.431,8.12" style="fill:#147664;"/><path d="M2683.474,935.191c-0.282,0.583 -0.538,1.197 -0.757,1.832c-0.942,2.71 -1.079,4.161 -1.103,4.376c-0.706,5.857 1.502,7.877 2.627,8.743c1.672,1.289 3.825,1.649 6.657,-0.223c0.454,-0.302 2.747,-1.5 4.72,-5.95c0.786,-1.771 14.913,-39.96 17.109,-47.2c7.248,-23.895 10.745,-45.561 12.576,-69.547c4.968,-65.007 2.942,-122.535 -11.149,-178.551c-1.266,-5.043 -5.621,-6.509 -9.714,-3.274c-4.096,3.234 -6.388,9.946 -5.121,14.988c13.442,53.443 15.278,108.372 10.539,170.395c-1.649,21.555 -4.726,41.022 -11.243,62.503c-1.781,5.876 -12.691,35.312 -15.141,41.909" style="fill:#147664;"/><path d="M2919.349,801.332c32.247,-84.906 37.846,-137.643 17.541,-213.29c-1.338,-4.983 -5.729,-6.331 -9.799,-3.017c-4.075,3.318 -6.294,10.062 -4.956,15.046c18.613,69.347 13.431,117.7 -16.129,195.529c-2.195,5.776 -0.986,11.749 2.697,13.33c3.682,1.583 8.452,-1.822 10.647,-7.598" style="fill:#147664;"/><path d="M2959.733,789.669c26.772,7.844 57.935,22.374 81.592,46.355c15.877,16.095 28.379,36.442 33.672,62.015c0.539,2.592 2.66,3.484 4.734,1.987c2.074,-1.499 3.324,-4.82 2.786,-7.411c-5.621,-27.141 -18.77,-48.869 -35.622,-65.95c-24.282,-24.618 -56.24,-39.601 -83.721,-47.654c-1.923,-0.558 -4.253,1.371 -5.204,4.311c-0.945,2.938 -0.158,5.782 1.762,6.347" style="fill:#147664;"/><path d="M2028.233,1644.745c-5.251,-1.899 -0.774,-57.585 -0.328,-70.33c0.708,-20.237 9.523,-41.086 9.674,-60.809c0.328,-42.693 -14.676,-85.632 -31.441,-114.586c-19.813,-34.224 -28.867,-46.116 -31.285,-44.804c-14.849,8.052 -31.12,59.466 -37.825,77.104c-28.198,74.187 -11.834,158.922 28.793,192.351c16.921,13.924 36.977,8.07 56.837,10.135" style="fill:#029d92;"/><path d="M1893.807,1782.698c73.55,78.116 108.348,172.262 107.526,315.448c-0.032,5.785 3.417,9.22 7.704,7.668c4.287,-1.556 7.795,-7.512 7.83,-13.296c0.852,-148.979 -35.208,-247.069 -111.733,-328.347c-2.934,-3.118 -7.854,-1.494 -10.979,3.618c-3.125,5.116 -3.281,11.798 -0.348,14.909" style="fill:#147664;"/><path d="M1947.424,1852.362c-5.251,-1.899 -0.774,-57.585 -0.328,-70.33c0.708,-20.237 9.523,-41.086 9.674,-60.809c0.328,-42.693 -14.676,-85.632 -31.441,-114.586c-19.813,-34.224 -28.867,-46.116 -31.285,-44.804c-14.849,8.052 -31.12,59.466 -37.825,77.104c-28.198,74.187 -11.834,158.922 28.793,192.351c16.921,13.924 36.977,8.07 56.837,10.135" style="fill:#029d92;"/><path d="M2201.587,1351.448c-38.243,-75.119 -30.013,-185.009 11.136,-284.501c7.99,-19.327 44.885,-87.608 54.753,-92.082c2.314,-1.051 6.949,15.053 6.999,15.221c6.611,22.416 8.13,47.01 9.317,72.611c3.172,68.38 -23.808,198.493 -66.871,261.3" style="fill:#029d92;"/><path d="M2285.363,1681.662c9.706,-27.46 39.332,-45.843 57.837,-55.325c49.581,-25.4 102.982,-19.406 141.345,7.539c12.534,8.809 24.626,18.911 37.511,26.917c1.211,0.751 20.244,11.843 20.1,12.152c-11.981,25.733 -41.061,45.345 -58.795,57.254c-57.764,38.803 -107.843,47.358 -157.427,22.071c-13.669,-6.972 -46.661,-27.08 -48.326,-52.221" style="fill:#029d92;"/><path d="M2031.431,2134.44c15.38,-42.86 49.985,-88.855 90.698,-130.299c62.218,-63.323 138.94,-115.691 186.787,-127.943c4.27,-1.095 8.039,-6.764 8.407,-12.65c0.371,-5.889 -2.798,-9.778 -7.067,-8.685c-49.887,12.774 -129.97,66.895 -194.838,132.92c-44.013,44.8 -80.926,95.192 -97.553,141.528c-2.088,5.819 -0.743,11.691 3,13.106c3.743,1.415 8.477,-2.159 10.565,-7.977" style="fill:#147664;"/><path d="M2223.522,1905.472c9.706,-27.46 39.332,-45.843 57.837,-55.325c49.581,-25.4 102.982,-19.406 141.345,7.539c12.534,8.809 24.626,18.911 37.511,26.917c1.211,0.751 20.244,11.843 20.1,12.152c-11.981,25.733 -41.061,45.345 -58.795,57.254c-57.764,38.803 -107.843,47.358 -157.427,22.071c-13.669,-6.972 -46.661,-27.08 -48.326,-52.221" style="fill:#029d92;"/><path d="M2435.622,1386.844c3.365,-11.935 51,-24.23 61.401,-27.205c57.902,-16.568 98.554,7.518 148.032,25.546c2.662,0.971 46.3,17.404 47.252,20.617c0.281,0.95 -12.034,17.292 -13.521,19.341c-17.956,24.754 -41.349,42.085 -63.544,52.357c-64.343,29.787 -122.53,21.565 -164.228,-28.957c-9.57,-11.591 -28.815,-27.165 -28.889,-49.548" style="fill:#029d92;"/><path d="M2581.166,1185.418c8.102,-25.996 50.603,-47.088 67.619,-55.375c66.613,-32.443 124.25,16.796 169.747,56.617c10.755,9.413 26.475,13.325 36.237,24.088c2.792,3.079 -7.638,7.259 -11.63,10.243c-8.557,6.392 -8.25,5.515 -17.113,10.73c-23.578,13.869 -48.045,23.151 -71.835,29.281c-73.654,18.976 -137.731,8.259 -172.589,-68.942" style="fill:#029d92;"/><path d="M2452.219,894.495c-23.658,1.925 -33.671,-50.382 -43.13,-73.218c-9.524,-22.978 -17.101,-46.104 -16.554,-76.101c1.377,-75.879 51.811,-226.609 111.273,-270.304c1.33,-0.98 1.504,2.573 2.014,4.105c9.957,29.784 16.1,66.63 19.466,100.846c10.158,103.339 13.277,203.216 -57.075,298.938" style="fill:#029d92;"/><path d="M2714.492,727.907c-76.918,-32.651 -33.283,-202.236 12.07,-289.802c8.12,-15.678 73.802,-99.599 80.177,-96.328c5.17,2.651 8.196,82.15 8.598,93.28c3.016,83.637 -35.198,230.419 -99.936,287.691" style="fill:#029d92;"/><path d="M2928.567,659.847c-43.48,-24.003 -56.902,-136.386 -17.811,-202.803c5.108,-8.672 45.842,-69.862 47.115,-69.756c8.763,0.748 19.23,68.116 19.937,77.258c6.454,83.222 16.012,127.905 -30.004,205.803" style="fill:#029d92;"/><path d="M3025.908,751.7c40.101,-65.3 122.509,-126.064 174.046,-117.893c24.661,3.914 48.82,11.513 74.095,12.984c3.073,0.181 8.932,-5.146 9.507,-1.087c0.25,1.761 -1.168,6.905 -1.546,7.845c-31.432,78.315 -129.062,133.194 -181.37,133.986c-21.282,0.323 -60.988,-7.103 -60.58,-44.298" style="fill:#029d92;"/><path d="M3063.764,838.325c36.447,11.469 45.155,70.548 48.257,116.522c0.96,14.201 -0.182,31.249 -1.733,46.186c-0.203,1.962 0.461,5.283 -0.998,5.912c-15.909,6.87 -36.374,-9.369 -49.053,-16.098c-11.443,-6.074 -19.91,-15.605 -28.78,-26.243c-12.84,-15.411 -19.007,-29.638 -25.079,-52.178c-7.767,-28.835 -6.634,-55.153 -2.573,-88.921c0.986,-8.188 6.454,-21.28 6.033,-28.861" style="fill:#029d92;"/><path d="M2857.952,944.968c9.467,-16.276 30.508,-16.282 41.947,-17.625c48.043,-5.636 77.567,28.431 98.807,76.097c6.256,14.041 14.238,63.479 13.17,65.112c-5.427,8.299 -54.773,26.487 -62.623,26.856c-43.716,2.061 -145.836,-78.464 -129.033,-153.371" style="fill:#029d92;"/><path id="main-branch2" serif:id="main branch2" d="M2019.073,2106.923c-375.854,606.009 -926.364,948.791 -1449.872,922.982c-4.495,-0.223 -9.939,3.978 -12.15,9.373c-2.207,5.39 -0.35,9.951 4.145,10.174c531.434,26.199 1090.246,-321.91 1471.79,-937.092c3.217,-5.187 2.71,-10.615 -1.13,-12.115c-3.839,-1.5 -9.568,1.492 -12.783,6.678" style="fill:#147664;"/><path d="M1158.343,3216.847c14.941,-36.813 21.533,-73.377 36.315,-110.193c39.706,-98.876 97.915,-201.242 169.352,-289.841c3.88,-4.811 4.457,-10.702 1.289,-13.149c-3.166,-2.448 -8.888,-0.529 -12.769,4.283c-73.472,91.127 -133.398,196.393 -174.234,298.085c-14.767,36.783 -21.351,73.317 -36.276,110.091c-2.189,5.392 -0.312,9.938 4.193,10.137c4.504,0.198 9.941,-4.021 12.131,-9.414" style="fill:#147664;"/><path d="M1565.769,2874.154c19.099,-64.425 28.155,-126.458 46.552,-190.551c11.483,-39.995 43.249,-78.024 49.288,-116.001" style="fill:#029d92;"/><path d="M1574.372,2873.256c19.111,-64.458 28.173,-126.525 46.584,-190.659c5.478,-19.072 15.914,-37.664 25.577,-56.03c10.861,-20.639 20.788,-41.016 24.023,-61.372c0.833,-5.23 -2.503,-8.398 -7.439,-7.071c-4.939,1.33 -9.626,6.659 -10.459,11.889c-2.8,17.617 -11.78,35.248 -21.18,53.116c-10.597,20.137 -21.786,40.559 -27.787,61.475c-18.392,64.062 -27.434,126.054 -46.528,190.446c-1.592,5.377 0.968,9.34 5.716,8.848c4.748,-0.5 9.897,-5.266 11.493,-10.642" style="fill:#147664;"/><path d="M1885.685,2648.033c-41.184,-99.074 -40.451,-199.442 10.937,-333.091c2.075,-5.4 0.063,-9.833 -4.496,-9.897c-4.56,-0.06 -9.947,4.271 -12.025,9.669c-53.466,139.058 -54.412,243.561 -11.563,346.644c1.643,3.954 6.819,4.174 11.549,0.497c4.732,-3.681 7.24,-9.876 5.596,-13.823" style="fill:#147664;"/><path d="M1893.317,2292.204c-29.539,34.655 -78.17,65.446 -130.906,89.82c-80.586,37.238 -170.868,59.101 -219.956,53.647c-4.381,-0.485 -9.911,3.485 -12.337,8.861c-2.429,5.378 -0.84,10.136 3.54,10.622c51.182,5.687 145.226,-16.627 229.248,-55.456c57.009,-26.347 109.353,-60.435 141.287,-97.901c4.01,-4.705 4.828,-10.673 1.827,-13.32c-3.001,-2.647 -8.693,-0.978 -12.703,3.727" style="fill:#147664;"/><path d="M1577.003,2640.62c-63.206,17.252 -125.858,23.233 -183.198,17.647c-57.576,-5.61 -109.795,-22.886 -151.804,-52.15c-1.643,-1.148 -4.513,-0.091 -6.403,2.351c-1.887,2.442 -2.085,5.357 -0.44,6.502c42.711,29.758 95.794,47.343 154.338,53.048c58.221,5.674 121.849,-0.406 186.029,-17.926c2.475,-0.678 4.812,-3.346 5.217,-5.957c0.403,-2.615 -1.268,-4.189 -3.739,-3.515" style="fill:#147664;"/><path d="M1362.708,2798.526c-115.627,20.56 -224.235,-14.059 -292.059,-78.579c-2.903,-2.758 -8.573,-1.237 -12.652,3.402c-4.086,4.641 -5.042,10.65 -2.138,13.409c70.164,66.747 182.645,102.349 302.264,81.078c4.847,-0.86 9.808,-5.889 11.072,-11.214c1.264,-5.331 -1.64,-8.96 -6.488,-8.097" style="fill:#147664;"/><path d="M996.063,2972.057c-93.058,-5.182 -168.135,-45.712 -219.697,-110.944c-2.516,-3.177 -8.07,-2.217 -12.403,2.147c-4.334,4.363 -5.81,10.483 -3.297,13.665c53.334,67.474 131.05,109.314 227.309,114.672c4.484,0.251 9.936,-3.923 12.17,-9.317c2.229,-5.392 0.402,-9.973 -4.08,-10.223" style="fill:#147664;"/><path d="M996.383,2996c0.47,-0.445 0.926,-0.93 1.356,-1.446c1.839,-2.202 2.481,-3.51 2.578,-3.704c2.731,-5.229 1.38,-7.9 0.633,-9.107c-1.108,-1.797 -2.995,-2.894 -6.306,-2.145c-0.531,0.122 -3.1,0.432 -6.519,3.897c-1.361,1.379 -28.077,32.107 -32.691,38.104c-15.228,19.789 -26.158,38.82 -36.35,60.61c-27.629,59.053 -46.072,113.582 -52.694,170.962c-0.598,5.165 2.957,8.076 7.929,6.497c4.974,-1.577 9.492,-7.046 10.089,-12.209c6.32,-54.744 24.021,-106.775 50.381,-163.117c9.163,-19.58 18.923,-36.702 32.614,-54.492c3.744,-4.866 24.355,-28.545 28.98,-33.85" style="fill:#147664;"/><path d="M728.417,3037.826c-60.181,68.023 -84.062,115.375 -91.812,193.316c-0.51,5.134 3.121,7.948 8.099,6.287c4.985,-1.663 9.445,-7.187 9.955,-12.323c7.105,-71.449 29.047,-114.848 84.213,-177.2c4.095,-4.627 5.076,-10.642 2.19,-13.423c-2.885,-2.782 -8.55,-1.283 -12.645,3.343" style="fill:#147664;"/><path d="M686.518,3034.459c-22.27,-16.803 -46.284,-41.411 -59.936,-72.207c-9.161,-20.669 -13.663,-44.122 -9.574,-69.914c0.412,-2.615 -1.256,-4.199 -3.726,-3.532c-2.47,0.669 -4.813,3.333 -5.226,5.948c-4.337,27.376 0.281,52.349 10.006,74.284c14.01,31.613 38.608,56.926 61.467,74.174c1.602,1.202 4.463,0.221 6.392,-2.193c1.923,-2.414 2.192,-5.353 0.595,-6.56" style="fill:#147664;"/><path d="M1860.158,2563.913c4.24,3.633 -19.634,54.14 -24.557,65.905c-7.817,18.68 -23.433,35.066 -30.547,53.462c-15.4,39.82 -16.545,85.291 -11.099,118.301c6.434,39.018 10.7,53.343 13.425,52.971c16.737,-2.283 50.133,-44.624 62.641,-58.753c52.604,-59.428 67.253,-144.476 41.068,-190.108c-10.906,-19.007 -31.736,-20.622 -49.583,-29.574" style="fill:#029d92;"/><path d="M1994.142,2449.176c-41.184,-99.074 -40.451,-199.442 10.937,-333.091c2.075,-5.4 0.063,-9.833 -4.496,-9.897c-4.56,-0.06 -9.947,4.271 -12.025,9.669c-53.466,139.058 -54.412,243.561 -11.563,346.644c1.643,3.954 6.819,4.174 11.549,0.497c4.732,-3.681 7.24,-9.876 5.596,-13.823" style="fill:#147664;"/><path d="M1968.615,2365.056c4.24,3.633 -19.634,54.14 -24.557,65.905c-7.817,18.68 -23.433,35.066 -30.547,53.462c-15.4,39.82 -16.545,85.291 -11.099,118.301c6.434,39.018 10.7,53.343 13.425,52.971c16.737,-2.283 50.133,-44.624 62.641,-58.753c52.604,-59.428 67.253,-144.476 41.068,-190.108c-10.906,-19.007 -31.736,-20.622 -49.583,-29.574" style="fill:#029d92;"/><path d="M1594.31,2776.984c9.217,83.788 -37.331,183.672 -110.996,262.192c-14.307,15.254 -72.958,66.083 -83.771,66.779c-2.536,0.165 -1.179,-16.538 -1.166,-16.712c1.74,-23.305 9.015,-46.849 16.955,-71.216c21.207,-65.086 92.444,-177.258 154.93,-220.786" style="fill:#029d92;"/><path d="M1632.684,2438.477c-18.787,22.256 -52.999,28.977 -73.661,31.306c-55.359,6.231 -103.192,-18.254 -129.552,-57.022c-8.611,-12.672 -16.35,-26.395 -25.572,-38.44c-0.868,-1.131 -14.75,-18.235 -14.506,-18.474c20.304,-19.836 54.441,-27.901 75.24,-32.771c67.752,-15.876 117.621,-6.174 155.064,35.009c10.322,11.354 34.074,41.827 26.744,65.933" style="fill:#029d92;"/><path d="M2002.37,2111.172c-29.539,34.655 -78.17,65.446 -130.906,89.82c-80.586,37.238 -170.868,59.101 -219.956,53.647c-4.381,-0.485 -9.911,3.485 -12.337,8.861c-2.429,5.378 -0.84,10.136 3.54,10.622c51.182,5.687 145.226,-16.627 229.248,-55.456c57.009,-26.347 109.353,-60.435 141.287,-97.901c4.01,-4.705 4.828,-10.673 1.827,-13.32c-3.001,-2.647 -8.693,-0.978 -12.703,3.727" style="fill:#147664;"/><path d="M1741.736,2257.444c-18.787,22.256 -52.999,28.977 -73.661,31.306c-55.359,6.231 -103.192,-18.254 -129.552,-57.022c-8.611,-12.672 -16.35,-26.395 -25.572,-38.44c-0.868,-1.131 -14.75,-18.235 -14.506,-18.474c20.304,-19.836 54.441,-27.901 75.24,-32.771c67.752,-15.876 117.621,-6.174 155.064,35.009c10.322,11.354 34.074,41.827 26.744,65.933" style="fill:#029d92;"/><path d="M1387.902,2661.136c-7.367,9.975 -56.273,4.635 -67.054,3.741c-60.021,-4.972 -89.532,-41.874 -129.442,-76.23c-2.147,-1.85 -37.157,-32.648 -36.912,-35.991c0.073,-0.987 17.37,-11.921 19.486,-13.312c25.548,-16.807 53.557,-24.749 77.951,-26.512c70.719,-5.116 122.241,23.145 143.385,85.146c4.854,14.225 17.351,35.598 9.507,56.562" style="fill:#029d92;"/><path d="M1180.547,2798.1c-16.769,21.453 -63.982,26.158 -82.829,27.894c-73.781,6.798 -110.288,-59.637 -138.769,-112.972c-6.732,-12.607 -20.055,-21.824 -25.381,-35.344c-1.523,-3.867 9.711,-4.09 14.5,-5.47c10.264,-2.954 9.668,-2.242 19.802,-3.987c26.959,-4.638 53.127,-4.67 77.548,-1.994c75.606,8.288 131.756,40.966 137.07,125.505" style="fill:#029d92;"/><path d="M1198.317,3115.823c22.811,6.563 13.685,59.032 14.46,83.737c0.785,24.861 -0.302,49.173 -11.419,77.039c-28.114,70.492 -128.578,193.659 -199.647,213.51c-1.591,0.447 -0.497,-2.939 -0.433,-4.552c1.216,-31.381 8.495,-68.02 17.443,-101.215c27.031,-100.257 59.424,-194.787 159.073,-259.456" style="fill:#029d92;"/><path d="M894.087,3178.932c60.408,57.735 -40.363,200.942 -113.744,266.821c-13.138,11.795 -104.247,67.076 -109.054,61.762c-3.899,-4.307 21.375,-79.743 24.934,-90.295c26.747,-79.303 114.385,-203.095 195.19,-233.783" style="fill:#029d92;"/><path d="M669.775,3166.916c32.187,37.824 5.012,147.695 -55.036,196.004c-7.844,6.307 -67.58,49.144 -68.733,48.595c-7.933,-3.798 6.093,-70.516 8.663,-79.317c23.384,-80.129 30.24,-125.306 100.824,-181.906" style="fill:#029d92;"/><path d="M611.192,3046.581c-60.597,46.906 -159.165,74.612 -204.485,48.75c-21.685,-12.38 -41.597,-28.028 -64.72,-38.34c-2.81,-1.256 -10.175,1.656 -9.277,-2.344c0.388,-1.736 3.534,-6.046 4.22,-6.791c57.089,-62.146 167.816,-78.966 217.026,-61.214c20.022,7.222 54.538,28.205 41.007,62.855" style="fill:#029d92;"/><path d="M606.406,2952.167c-30.039,-23.613 -17.298,-81.956 -3.946,-126.058c4.122,-13.623 11.218,-29.167 17.949,-42.591c0.883,-1.764 1.437,-5.105 3.024,-5.178c17.31,-0.802 30.713,21.623 40.195,32.4c8.557,9.727 13.108,21.636 17.643,34.723c6.563,18.955 7.302,34.444 5.013,57.675c-2.929,29.719 -13.292,53.937 -29.029,84.088c-3.817,7.311 -13.56,17.624 -15.847,24.865" style="fill:#029d92;"/><path d="M836.629,2925.171c-14.609,11.878 -34.294,4.445 -45.469,1.658c-46.933,-11.713 -62.507,-54.017 -65.524,-106.114c-0.888,-15.345 9.123,-64.413 10.7,-65.563c8.01,-5.844 60.6,-5.413 68.073,-2.983c41.621,13.526 108.679,124.954 66.48,189.084" style="fill:#029d92;"/></svg>