<?xml version="1.0" encoding="UTF-8" standalone="no"?><!DOCTYPE svg PUBLIC "-//W3C//DTD SVG 1.1//EN" "http://www.w3.org/Graphics/SVG/1.1/DTD/svg11.dtd"><svg width="100%" height="100%" viewBox="0 0 500 500" version="1.1" xmlns="http://www.w3.org/2000/svg" xmlns:xlink="http://www.w3.org/1999/xlink" xml:space="preserve" xmlns:serif="http://www.serif.com/" style="fill-rule:evenodd;clip-rule:evenodd;stroke-linejoin:round;stroke-miterlimit:2;"><g><g><rect x="0" y="479.127" width="500" height="20.206" style="fill:#9ac941;fill-rule:nonzero;"/><path d="M161.453,283.715l-6.862,-0.755l0,10.081l7.038,-0.776c2.335,-0.257 4.061,-2.356 3.794,-4.753c-0.226,-2.028 -1.942,-3.573 -3.97,-3.797Z" style="fill:#efeded;fill-rule:nonzero;"/><path d="M154.591,293.041l3.049,-0.336c1.268,-0.994 2.114,-2.724 2.114,-4.705c0,-1.98 -0.846,-3.711 -2.114,-4.705l-3.049,-0.335l0,10.081Z" style="fill:#dbdbdb;fill-rule:nonzero;"/><path d="M150.41,471.979l-13.217,0l3.04,-179.281l7.137,0l3.04,179.281Z" style="fill:#efeded;fill-rule:nonzero;"/><path d="M143.732,471.979l6.608,0l-3.04,-179.281l-3.499,0l-0.069,179.281Z" style="fill:#dbdbdb;fill-rule:nonzero;"/><path d="M152.085,281.428l-24.029,-2.647l0,18.439l24.029,-2.648c3.351,-0.369 5.888,-3.2 5.888,-6.572c0,-3.371 -2.537,-6.203 -5.888,-6.572Z" style="fill:#efeded;fill-rule:nonzero;"/><path d="M135.045,288c0,5.092 -3.129,9.22 -6.989,9.22c-3.86,0 -6.989,-4.128 -6.989,-9.22c0,-5.092 3.129,-9.219 6.989,-9.219c3.86,0 6.989,4.127 6.989,9.219Z" style="fill:#f2f2f2;fill-rule:nonzero;"/><path d="M124.766,282.889l1.223,-32.058c0.148,-3.877 0.777,-7.72 1.873,-11.441l4.898,-16.625c0.441,-1.495 1.964,-2.394 3.486,-2.056c0.572,0.127 0.949,0.674 0.866,1.253l-8.836,61.34l-3.51,-0.413Z" style="fill:#f2f2f2;fill-rule:nonzero;"/><path d="M129.248,290.635l21.805,23.534c2.636,2.845 4.909,6.008 6.765,9.414l8.292,15.219c0.746,1.369 0.304,3.082 -1.011,3.919c-0.494,0.314 -1.147,0.195 -1.498,-0.274l-37.126,-49.621l2.773,-2.191Z" style="fill:#f2f2f2;fill-rule:nonzero;"/><path d="M127.125,289.898l-26.137,18.603c-3.161,2.25 -6.589,4.097 -10.205,5.501l-16.158,6.27c-1.453,0.565 -3.095,-0.093 -3.756,-1.505c-0.249,-0.531 -0.046,-1.163 0.464,-1.451l53.976,-30.451l1.816,3.033Z" style="fill:#f2f2f2;fill-rule:nonzero;"/><path d="M123.482,293.438l-6.599,-3.308c-0.806,-0.404 -1.315,-1.228 -1.315,-2.13c0,-0.901 0.509,-1.726 1.315,-2.13l6.599,-3.308c3.899,-1.954 8.756,0.486 9.148,4.83c0.018,0.2 0.028,0.403 0.028,0.608c0,0.205 -0.01,0.408 -0.028,0.609c-0.392,4.343 -5.249,6.783 -9.148,4.829Z" style="fill:#dbdbdb;fill-rule:nonzero;"/><path d="M115.568,288c0,0.902 0.509,1.726 1.315,2.13l1.399,0.701c2.13,1.068 4.768,-0.396 4.785,-2.779l0.001,-0.052l-0.001,-0.052c-0.017,-2.382 -2.655,-3.847 -4.785,-2.779l-1.399,0.701c-0.806,0.404 -1.315,1.229 -1.315,2.13Z" style="fill:#d84848;fill-rule:nonzero;"/><path d="M143.732,471.401c-9.953,0 -19.886,0.919 -29.67,2.747l-2.16,0.403c-2.199,0.411 -3.794,2.331 -3.794,4.568l71.248,0c0,-2.237 -1.595,-4.157 -3.794,-4.568l-2.161,-0.403c-9.784,-1.828 -19.716,-2.747 -29.669,-2.747Z" style="fill:#efeded;fill-rule:nonzero;"/><path d="M149.826,288.775l-9.113,0c-0.283,0 -0.513,-0.23 -0.513,-0.514l0,-0.521c0,-0.284 0.23,-0.514 0.513,-0.514l9.113,0c0.284,0 0.514,0.23 0.514,0.514l0,0.521c0,0.284 -0.23,0.514 -0.514,0.514Z" style="fill:#b7b7b7;fill-rule:nonzero;"/><path d="M179.356,479.119c0,-2.237 -1.595,-4.157 -3.794,-4.568l-2.161,-0.403c-9.784,-1.828 -19.716,-2.747 -29.669,-2.747c0,0 16.196,1.632 16.196,4.522l0,3.196l19.428,0Z" style="fill:#dbdbdb;fill-rule:nonzero;"/><rect x="181.326" y="446.632" width="4.961" height="32.487" style="fill:#a87d4a;fill-rule:nonzero;"/><path d="M181.326,445.991l0,3.72c0,1.686 1.507,2.189 2.48,2.343l0,27.065l2.481,0l0,-33.128l-4.961,0Z" style="fill:#8e6539;fill-rule:nonzero;"/><path d="M200.938,412.163c0,30.088 -7.67,35.684 -17.132,35.684c-9.461,0 -17.131,-5.596 -17.131,-35.684c0,-30.088 7.67,-73.275 17.131,-73.275c9.462,0 17.132,43.187 17.132,73.275Z" style="fill:#9bbc40;fill-rule:nonzero;"/><path d="M191.017,402.242c0,-20.884 -3.697,-48.067 -9.122,-62.75c-8.561,5.253 -15.22,44.638 -15.22,72.671c0,11.889 1.201,19.942 3.234,25.349c1.277,0.292 2.607,0.415 3.977,0.415c9.461,0 17.131,-5.596 17.131,-35.685Z" style="fill:#b3db5a;fill-rule:nonzero;"/><path d="M183.341,386.477c0,10.952 -2.013,12.988 -4.495,12.988c-2.482,0 -4.495,-2.036 -4.495,-12.988c0,-10.951 2.013,-26.67 4.495,-26.67c2.482,0 4.495,15.719 4.495,26.67Z" style="fill:#d5f482;fill-rule:nonzero;"/><rect x="394.547" y="449.134" width="4.578" height="29.985" style="fill:#a87d4a;fill-rule:nonzero;"/><path d="M394.547,448.543l0,3.433c0,1.556 1.39,2.02 2.289,2.163l0,24.98l2.289,0l0,-30.576l-4.578,0Z" style="fill:#8e6539;fill-rule:nonzero;"/><path d="M412.648,417.32c0,27.771 -7.08,32.936 -15.812,32.936c-8.733,0 -15.812,-5.165 -15.812,-32.936c0,-27.771 7.079,-67.631 15.812,-67.631c8.732,0 15.812,39.86 15.812,67.631Z" style="fill:#9bbc40;fill-rule:nonzero;"/><path d="M403.491,408.163c0,-19.276 -3.412,-44.365 -8.419,-57.917c-7.902,4.848 -14.048,41.2 -14.048,67.074c0,10.973 1.109,18.406 2.984,23.396c1.179,0.27 2.407,0.383 3.671,0.383c8.733,0 15.812,-5.165 15.812,-32.936Z" style="fill:#b3db5a;fill-rule:nonzero;"/><path d="M396.406,393.613c0,10.108 -1.857,11.987 -4.148,11.987c-2.292,0 -4.149,-1.879 -4.149,-11.987c0,-10.108 1.857,-24.616 4.149,-24.616c2.291,0 4.148,14.508 4.148,24.616Z" style="fill:#d5f482;fill-rule:nonzero;"/><rect x="224.116" y="439.736" width="6.013" height="39.383" style="fill:#a87d4a;fill-rule:nonzero;"/><path d="M224.116,438.96l0,4.51c0,2.043 1.826,2.652 3.007,2.84l0,32.809l3.006,0l0,-40.159l-6.013,0Z" style="fill:#8e6539;fill-rule:nonzero;"/><path d="M247.89,397.952c0,36.474 -9.298,43.258 -20.767,43.258c-11.47,0 -20.768,-6.784 -20.768,-43.258c0,-36.475 9.298,-88.828 20.768,-88.828c11.469,0 20.767,52.353 20.767,88.828Z" style="fill:#9bbc40;fill-rule:nonzero;"/><path d="M235.864,385.925c0,-25.317 -4.482,-58.269 -11.058,-76.069c-10.378,6.368 -18.451,54.113 -18.451,88.096c0,14.412 1.457,24.174 3.92,30.729c1.548,0.354 3.161,0.503 4.822,0.503c11.469,0 20.767,-6.784 20.767,-43.259Z" style="fill:#b3db5a;fill-rule:nonzero;"/><path d="M228.085,373.651c0,16.994 -3.123,20.155 -6.975,20.155c-3.852,0 -6.975,-3.161 -6.975,-20.155c0,-16.994 3.123,-41.386 6.975,-41.386c3.852,0 6.975,24.392 6.975,41.386Z" style="fill:#d5f482;fill-rule:nonzero;"/><path d="M275.577,225.556l-8.905,-0.981l0,13.082l9.133,-1.006c3.03,-0.334 5.269,-3.058 4.923,-6.169c-0.293,-2.632 -2.519,-4.636 -5.151,-4.926Z" style="fill:#efeded;fill-rule:nonzero;"/><path d="M266.672,237.657l3.956,-0.436c1.646,-1.29 2.744,-3.535 2.744,-6.105c0,-2.57 -1.098,-4.815 -2.744,-6.105l-3.956,-0.436l0,13.082Z" style="fill:#dbdbdb;fill-rule:nonzero;"/><path d="M261.246,469.853l-17.15,0l3.944,-232.641l9.172,0l4.034,232.641Z" style="fill:#efeded;fill-rule:nonzero;"/><path d="M252.581,469.853l8.575,0l-3.944,-232.641l-4.541,0l-0.09,232.641Z" style="fill:#dbdbdb;fill-rule:nonzero;"/><path d="M263.42,222.588l-31.181,-3.436l0,23.928l31.181,-3.436c4.349,-0.479 7.64,-4.153 7.64,-8.528c0,-4.375 -3.291,-8.049 -7.64,-8.528Z" style="fill:#efeded;fill-rule:nonzero;"/><path d="M241.309,231.116c0,6.607 -4.061,11.964 -9.07,11.964c-5.008,0 -9.069,-5.357 -9.069,-11.964c0,-6.608 4.061,-11.964 9.069,-11.964c5.009,0 9.07,5.356 9.07,11.964Z" style="fill:#f2f2f2;fill-rule:nonzero;"/><path d="M227.97,224.483l1.587,-41.6c0.192,-5.03 1.008,-10.017 2.431,-14.845l6.356,-21.573c0.571,-1.941 2.548,-3.107 4.523,-2.668c0.742,0.165 1.232,0.874 1.124,1.626l-11.465,79.596l-4.556,-0.536Z" style="fill:#f2f2f2;fill-rule:nonzero;"/><path d="M233.788,234.535l28.293,30.538c3.421,3.693 6.37,7.796 8.779,12.217l10.76,19.748c0.968,1.777 0.394,3.999 -1.312,5.085c-0.642,0.409 -1.489,0.254 -1.944,-0.355l-48.177,-64.39l3.601,-2.843Z" style="fill:#f2f2f2;fill-rule:nonzero;"/><path d="M231.031,233.578l-33.916,24.14c-4.101,2.92 -8.55,5.317 -13.242,7.139l-20.967,8.137c-1.886,0.732 -4.016,-0.123 -4.874,-1.955c-0.323,-0.688 -0.06,-1.508 0.602,-1.882l70.04,-39.514l2.357,3.935Z" style="fill:#f2f2f2;fill-rule:nonzero;"/><path d="M226.304,238.172l-8.563,-4.292c-1.045,-0.524 -1.706,-1.594 -1.706,-2.764c0,-1.17 0.661,-2.24 1.706,-2.764l8.563,-4.293c5.059,-2.536 11.363,0.631 11.871,6.267c0.024,0.26 0.036,0.524 0.036,0.79c0,0.266 -0.012,0.529 -0.036,0.79c-0.508,5.636 -6.812,8.802 -11.871,6.266Z" style="fill:#dbdbdb;fill-rule:nonzero;"/><path d="M216.035,231.116c0,1.17 0.661,2.24 1.706,2.764l1.815,0.91c2.765,1.385 6.187,-0.515 6.21,-3.607l0,-0.134c-0.023,-3.093 -3.445,-4.993 -6.21,-3.607l-1.815,0.91c-1.045,0.524 -1.706,1.594 -1.706,2.764Z" style="fill:#d84848;fill-rule:nonzero;"/><path d="M252.581,469.104c-12.916,0 -25.804,1.193 -38.5,3.564l-2.804,0.524c-2.854,0.533 -4.923,3.024 -4.923,5.927l92.454,0c0,-2.903 -2.069,-5.394 -4.923,-5.927l-2.804,-0.524c-12.696,-2.371 -25.584,-3.564 -38.5,-3.564Z" style="fill:#efeded;fill-rule:nonzero;"/><path d="M260.549,232.121l-11.944,0c-0.336,0 -0.608,-0.272 -0.608,-0.608l0,-0.795c0,-0.335 0.272,-0.607 0.608,-0.607l11.944,0c0.335,0 0.607,0.272 0.607,0.607l0,0.795c0,0.336 -0.272,0.608 -0.607,0.608Z" style="fill:#b7b7b7;fill-rule:nonzero;"/><path d="M298.808,479.119c0,-2.903 -2.069,-5.394 -4.923,-5.927l-2.804,-0.524c-12.696,-2.371 -25.584,-3.564 -38.5,-3.564c0,0 21.017,2.118 21.017,5.867l0,4.148l25.21,0Z" style="fill:#dbdbdb;fill-rule:nonzero;"/><path d="M376.005,283.715l-6.862,-0.755l0,10.081l7.038,-0.776c2.335,-0.257 4.061,-2.356 3.794,-4.753c-0.226,-2.028 -1.942,-3.573 -3.97,-3.797Z" style="fill:#efeded;fill-rule:nonzero;"/><path d="M369.143,293.041l3.049,-0.336c1.268,-0.994 2.114,-2.724 2.114,-4.705c0,-1.98 -0.846,-3.711 -2.114,-4.705l-3.049,-0.335l0,10.081Z" style="fill:#dbdbdb;fill-rule:nonzero;"/><path d="M364.962,471.979l-13.217,0l3.04,-179.281l7.137,0l3.04,179.281Z" style="fill:#efeded;fill-rule:nonzero;"/><path d="M358.284,471.979l6.608,0l-3.04,-179.281l-3.499,0l-0.069,179.281Z" style="fill:#dbdbdb;fill-rule:nonzero;"/><path d="M366.637,281.428l-24.029,-2.647l0,18.439l24.029,-2.648c3.351,-0.369 5.888,-3.2 5.888,-6.572c0,-3.371 -2.537,-6.203 -5.888,-6.572Z" style="fill:#efeded;fill-rule:nonzero;"/><path d="M349.597,288c0,5.092 -3.129,9.22 -6.989,9.22c-3.86,0 -6.989,-4.128 -6.989,-9.22c0,-5.092 3.129,-9.219 6.989,-9.219c3.86,0 6.989,4.127 6.989,9.219Z" style="fill:#f2f2f2;fill-rule:nonzero;"/><path d="M339.318,282.889l1.223,-32.058c0.148,-3.877 0.777,-7.72 1.873,-11.441l4.898,-16.625c0.441,-1.495 1.964,-2.394 3.486,-2.056c0.572,0.127 0.949,0.674 0.866,1.253l-8.835,61.34l-3.511,-0.413Z" style="fill:#f2f2f2;fill-rule:nonzero;"/><path d="M343.801,290.635l21.804,23.534c2.636,2.845 4.909,6.008 6.765,9.414l8.292,15.219c0.746,1.369 0.304,3.082 -1.011,3.919c-0.494,0.314 -1.147,0.195 -1.498,-0.274l-37.126,-49.621l2.774,-2.191Z" style="fill:#f2f2f2;fill-rule:nonzero;"/><path d="M341.677,289.898l-26.137,18.603c-3.16,2.25 -6.588,4.097 -10.205,5.501l-16.157,6.27c-1.454,0.565 -3.095,-0.093 -3.757,-1.505c-0.248,-0.531 -0.046,-1.163 0.464,-1.451l53.976,-30.451l1.816,3.033Z" style="fill:#f2f2f2;fill-rule:nonzero;"/><path d="M338.034,293.438l-6.599,-3.308c-0.806,-0.404 -1.315,-1.228 -1.315,-2.13c0,-0.901 0.509,-1.726 1.315,-2.13l6.599,-3.308c3.899,-1.954 8.756,0.486 9.148,4.83c0.018,0.2 0.028,0.403 0.028,0.608c0,0.205 -0.01,0.408 -0.028,0.609c-0.392,4.343 -5.249,6.783 -9.148,4.829Z" style="fill:#dbdbdb;fill-rule:nonzero;"/><path d="M330.12,288c0,0.902 0.509,1.726 1.316,2.13l1.398,0.701c2.13,1.068 4.768,-0.396 4.785,-2.779l0.001,-0.052l-0.001,-0.052c-0.017,-2.382 -2.655,-3.847 -4.785,-2.779l-1.398,0.701c-0.807,0.404 -1.316,1.229 -1.316,2.13Z" style="fill:#d84848;fill-rule:nonzero;"/><path d="M358.284,471.401c-9.953,0 -19.886,0.919 -29.67,2.747l-2.16,0.403c-2.199,0.411 -3.794,2.331 -3.794,4.568l71.248,0c0,-2.237 -1.595,-4.157 -3.794,-4.568l-2.161,-0.403c-9.784,-1.828 -19.716,-2.747 -29.669,-2.747Z" style="fill:#efeded;fill-rule:nonzero;"/><path d="M364.378,288.775l-9.112,0c-0.284,0 -0.514,-0.23 -0.514,-0.514l0,-0.521c0,-0.284 0.23,-0.514 0.514,-0.514l9.112,0c0.284,0 0.514,0.23 0.514,0.514l0,0.521c0,0.284 -0.23,0.514 -0.514,0.514Z" style="fill:#b7b7b7;fill-rule:nonzero;"/><path d="M393.908,479.119c0,-2.237 -1.595,-4.157 -3.794,-4.568l-2.161,-0.403c-9.784,-1.828 -19.716,-2.747 -29.669,-2.747c0,0 16.196,1.632 16.196,4.522l0,3.196l19.428,0Z" style="fill:#dbdbdb;fill-rule:nonzero;"/><path d="M310.373,431.072l0,11.133l-9.445,-13.618l-3.907,2.71l11.328,16.333c1.318,1.901 2.024,4.159 2.024,6.472l0,25.025l6.421,0l0,-48.055l-6.421,0Z" style="fill:#a87d4a;fill-rule:nonzero;"/><path d="M316.794,431.072l-6.421,0l0,11.133l-9.445,-13.618l-3.907,2.71l7.199,10.38c1.017,0.538 2.047,0.984 3.04,1.352c4.218,1.568 6.948,5.68 6.948,10.181l0,25.908l0.015,0.009l2.571,0l0,-48.055Z" style="fill:#8e6539;fill-rule:nonzero;"/><path d="M362.478,394.692c0,28.12 -22.796,39.502 -50.916,39.502c-28.119,0 -50.915,-11.382 -50.915,-39.502c0,-28.12 22.796,-62.329 50.915,-62.329c28.12,0 50.916,34.209 50.916,62.329Z" style="fill:#88af31;fill-rule:nonzero;"/><path d="M362.478,394.692c0,28.12 -22.796,39.502 -50.916,39.502c-28.119,0 -50.915,-11.382 -50.915,-39.502c0,-28.12 22.796,-62.329 50.915,-62.329c28.12,0 50.916,34.209 50.916,62.329Z" style="fill:#88af31;fill-rule:nonzero;"/><path d="M321.12,333.704c-3.097,-0.861 -6.289,-1.341 -9.558,-1.341c-28.119,0 -50.915,34.209 -50.915,62.329c0,13.268 5.079,22.806 13.393,29.184c6.973,2.164 14.874,3.185 23.256,3.185c28.12,0 50.915,-11.382 50.915,-39.502c0,-19.511 -10.979,-41.942 -27.091,-53.855Z" style="fill:#b3db5a;fill-rule:nonzero;"/><path d="M307.626,383.079c-4.628,14.837 -14.79,18.258 -25.016,15.069c-10.226,-3.19 -16.642,-11.781 -12.015,-26.619c4.628,-14.837 18.547,-30.302 28.773,-27.113c10.226,3.189 12.886,23.825 8.258,38.663Z" style="fill:#d5f482;fill-rule:nonzero;"/><path d="M107.136,439.849l0,9.1l-7.72,-11.131l-3.194,2.215l9.259,13.35c1.078,1.553 1.655,3.399 1.655,5.29l0,20.454l5.248,0l0,-39.278l-5.248,0Z" style="fill:#a87d4a;fill-rule:nonzero;"/><path d="M112.384,439.849l-5.248,0l0,9.1l-7.72,-11.131l-3.194,2.215l5.884,8.484c0.832,0.439 1.674,0.804 2.485,1.106c3.449,1.281 5.679,4.642 5.679,8.32l0,21.177l0.013,0.007l2.101,0l0,-39.278Z" style="fill:#8e6539;fill-rule:nonzero;"/><path d="M149.724,410.114c0,22.984 -18.632,32.287 -41.616,32.287c-22.984,0 -41.616,-9.303 -41.616,-32.287c0,-22.984 18.632,-50.945 41.616,-50.945c22.984,0 41.616,27.961 41.616,50.945Z" style="fill:#88af31;fill-rule:nonzero;"/><path d="M149.724,410.114c0,22.984 -18.632,32.287 -41.616,32.287c-22.984,0 -41.616,-9.303 -41.616,-32.287c0,-22.984 18.632,-50.945 41.616,-50.945c22.984,0 41.616,27.961 41.616,50.945Z" style="fill:#88af31;fill-rule:nonzero;"/><path d="M115.92,360.265c-2.531,-0.704 -5.14,-1.096 -7.812,-1.096c-22.984,0 -41.616,27.961 -41.616,50.945c0,10.844 4.151,18.64 10.947,23.853c5.699,1.769 12.157,2.603 19.008,2.603c22.984,0 41.616,-9.303 41.616,-32.287c0,-15.947 -8.973,-34.281 -22.143,-44.018Z" style="fill:#b3db5a;fill-rule:nonzero;"/><path d="M104.891,400.621c-3.783,12.128 -12.09,14.924 -20.448,12.317c-8.358,-2.607 -13.602,-9.629 -9.82,-21.757c3.783,-12.127 15.159,-24.768 23.518,-22.161c8.358,2.607 10.532,19.474 6.75,31.601Z" style="fill:#d5f482;fill-rule:nonzero;"/><rect x="0" y="479.127" width="500" height="20.206" style="fill:#a1cc49;fill-rule:nonzero;"/><path d="M155.791,292.909l1.849,-0.204c1.268,-0.994 2.114,-2.724 2.114,-4.705c0,-1.98 -0.846,-3.711 -2.114,-4.705l-1.849,-0.203l5.662,0.623c2.028,0.224 3.744,1.769 3.97,3.797c0.267,2.397 -1.459,4.496 -3.794,4.753l-5.838,0.644Z" style="fill:#efede8;fill-rule:nonzero;"/><path d="M155.791,292.909c1.346,-1.216 2.182,-2.974 2.182,-4.909c0,-1.935 -0.836,-3.692 -2.182,-4.908l1.849,0.203c1.268,0.994 2.114,2.725 2.114,4.705c0,1.981 -0.846,3.711 -2.114,4.705l-1.849,0.204Z" style="fill:#dddcd7;fill-rule:nonzero;"/><path d="M150.402,471.539c-0.023,-0.001 -0.045,-0.002 -0.069,-0.003l-0.953,-56.21c0.021,-0.155 0.042,-0.314 0.061,-0.47l0.961,56.683Zm-13.202,-0.006l0.625,-36.86c2.256,-1.595 4.247,-3.454 5.923,-5.592l-0.016,42.32c-2.179,0 -4.356,0.044 -6.532,0.132Zm12.05,-67.95c-0.025,-0.177 -0.051,-0.355 -0.078,-0.533l-1.295,-76.342l0.071,0.095l0.912,53.76l0.18,10.615l0.21,12.405Zm-5.485,-17.464c-1.436,-2.925 -3.106,-5.747 -4.974,-8.388l1.135,-66.927l-0.089,5.21l3.953,5.258l-0.025,64.847Zm4.183,-59.319l-0.117,-5.43l0.026,0.034l0.091,5.396Zm-0.276,-16.28l-0.071,-0.077l-0.15,-8.863l0,-0.009l-0.11,-6.476l0.069,-0.008l0.262,15.433Zm-3.876,-4.184l-3.726,-4.022l0.011,-0.69c1.114,0.708 2.382,1.062 3.651,1.062c0.022,0 0.044,-0.001 0.065,-0.001l-0.001,3.651Z" style="fill:#efede8;fill-rule:nonzero;"/><path d="M150.333,471.536c-2.198,-0.09 -4.399,-0.135 -6.601,-0.135l0.016,-42.32c2.915,-3.716 4.878,-8.274 5.632,-13.755l0.953,56.21Zm-1.161,-68.486c-0.87,-5.702 -2.738,-11.498 -5.407,-16.931l0.025,-64.847l4.087,5.436l1.295,76.342Zm-1.571,-92.607l-3.805,-4.107l0.001,-3.651c1.273,-0.012 2.543,-0.38 3.654,-1.105l0.15,8.863Zm-0.15,-8.872l-0.181,-6.468l0.071,-0.008l0.11,6.476Z" style="fill:#dddcd7;fill-rule:nonzero;"/><path d="M140.081,301.624c-0.023,-0.014 -0.046,-0.029 -0.068,-0.044l0.096,-5.688l0.07,-0.008l-0.098,5.74Z" style="fill:#b8ccc2;fill-rule:nonzero;"/><path d="M143.732,302.686c-1.269,0 -2.537,-0.354 -3.651,-1.062l0.098,-5.74l3.621,-0.399l-0.003,7.2c-0.021,0 -0.043,0.001 -0.065,0.001Zm3.719,-1.106l0,-0.009l0,0.009Z" style="fill:#cdccc6;fill-rule:nonzero;"/><path d="M143.797,302.685l0.003,-7.2l3.47,-0.382l0.181,6.468l0,0.009c-1.111,0.725 -2.381,1.093 -3.654,1.105Z" style="fill:#c6c6c1;fill-rule:nonzero;"/><path d="M129.229,297.091c0.123,-0.028 0.245,-0.059 0.364,-0.095l0.039,0.05l-0.403,0.045Zm5.445,-0.6l-1.744,-1.883c1.305,-1.675 2.115,-4.016 2.115,-6.608c0,-4.565 -2.515,-8.354 -5.816,-9.09l22.856,2.518c1.427,0.157 2.707,0.762 3.706,1.664c1.346,1.216 2.182,2.973 2.182,4.908c0,1.935 -0.836,3.693 -2.182,4.909c-0.999,0.902 -2.279,1.506 -3.706,1.663l-4.675,0.515l-0.069,0.008l-0.071,0.008l-3.47,0.382l-3.621,0.399l-0.07,0.008l-5.435,0.599Zm6.039,-9.265c-0.283,0 -0.513,0.23 -0.513,0.514l0,0.521c0,0.284 0.23,0.514 0.513,0.514l9.113,0c0.284,0 0.514,-0.23 0.514,-0.514l0,-0.521c0,-0.284 -0.23,-0.514 -0.514,-0.514l-9.113,0Z" style="fill:#efede8;fill-rule:nonzero;"/><path d="M128.056,297.22c-2.363,0 -4.452,-1.547 -5.717,-3.916l0.362,-0.257l0.781,0.391c0.93,0.466 1.914,0.682 2.879,0.682c0.344,0 0.686,-0.027 1.022,-0.081l2.21,2.957c-0.119,0.036 -0.241,0.067 -0.364,0.095c-0.382,0.085 -0.774,0.129 -1.173,0.129Zm4.874,-2.612l-2.1,-2.265c0.988,-0.945 1.664,-2.225 1.8,-3.734c0.018,-0.201 0.028,-0.404 0.028,-0.609c0,-0.205 -0.01,-0.408 -0.028,-0.608c-0.229,-2.546 -1.992,-4.437 -4.197,-5.174l0.485,-3.368c0.104,0.017 0.208,0.037 0.311,0.06c3.301,0.736 5.816,4.525 5.816,9.09c0,2.592 -0.81,4.933 -2.115,6.608Zm-10.879,-11.329c0.675,-1.488 1.658,-2.705 2.833,-3.496l-0.087,2.29c-0.445,0.112 -0.886,0.274 -1.315,0.489l-1.431,0.717Z" style="fill:#f2f1ec;fill-rule:nonzero;"/><path d="M147.948,326.803l-0.071,-0.095l-0.091,-5.399l0.045,0.061l0.117,5.43l0,0.003Zm-4.158,-5.531l-3.953,-5.258l0.089,-5.21l3.866,5.168l-0.002,5.3Z" style="fill:#cdccc6;fill-rule:nonzero;"/><path d="M147.877,326.708l-4.087,-5.436l0.002,-5.3l3.994,5.337l0.091,5.399Z" style="fill:#c6c6c1;fill-rule:nonzero;"/><path d="M179.356,479.119c0,-2.237 -1.595,-4.157 -3.794,-4.568l-2.161,-0.403c-9.784,-1.828 -19.716,-2.747 -29.669,-2.747c0,0 16.196,1.632 16.196,4.522l0,3.196l-47.544,0l0,-4.658l1.678,-0.313c7.643,-1.428 15.376,-2.301 23.138,-2.615c2.176,-0.088 4.353,-0.132 6.532,-0.132c2.202,0 4.403,0.045 6.601,0.135c0.024,0.001 0.046,0.002 0.069,0.003c7.716,0.318 15.403,1.19 22.999,2.609l2.161,0.403c2.199,0.411 3.794,2.331 3.794,4.568Z" style="fill:#efede8;fill-rule:nonzero;"/><path d="M149.826,288.775l-9.113,0c-0.283,0 -0.513,-0.23 -0.513,-0.514l0,-0.521c0,-0.284 0.23,-0.514 0.513,-0.514l9.113,0c0.284,0 0.514,0.23 0.514,0.514l0,0.521c0,0.284 -0.23,0.514 -0.514,0.514Z" style="fill:#bbbbb6;fill-rule:nonzero;"/><path d="M179.356,479.119l-19.428,0l0,-3.196c0,-2.89 -16.196,-4.522 -16.196,-4.522c9.953,0 19.885,0.919 29.669,2.747l2.161,0.403c2.199,0.411 3.794,2.331 3.794,4.568Z" style="fill:#dddcd7;fill-rule:nonzero;"/><path d="M183.806,479.119l-2.48,0l0,-31.418l0,2.01c0,1.686 1.507,2.189 2.48,2.343l0,27.065Z" style="fill:#ae8651;fill-rule:nonzero;"/><path d="M186.287,479.119l-2.481,0l0,-27.065c-0.973,-0.154 -2.48,-0.657 -2.48,-2.343l0,-2.01c0.81,0.102 1.638,0.146 2.48,0.146c0.843,0 1.671,-0.044 2.481,-0.146l0,31.418Z" style="fill:#967042;fill-rule:nonzero;"/><path d="M183.806,447.847c-0.842,0 -1.67,-0.044 -2.48,-0.146c-7.912,-0.998 -14.074,-7.504 -14.613,-31.958c0.22,9.952 1.374,16.923 3.196,21.769c1.277,0.292 2.607,0.415 3.977,0.415c9.461,0 17.131,-5.596 17.131,-35.685c0,-20.884 -3.697,-48.067 -9.122,-62.75c-7.252,4.449 -13.139,33.39 -14.77,59.177c0.157,-2.473 0.352,-4.973 0.584,-7.48c0.347,-3.75 0.776,-7.512 1.279,-11.201c2.967,-21.791 8.492,-41.1 14.818,-41.1c6.27,0 11.753,18.967 14.739,40.517c0.537,3.872 0.992,7.828 1.358,11.773c0.669,7.23 1.035,14.418 1.035,20.985c0,27.409 -6.366,34.493 -14.651,35.538c-0.81,0.102 -1.638,0.146 -2.481,0.146Zm-16.684,-49.132c0.001,-0.008 0.001,-0.016 0.002,-0.024c-0.001,0.009 -0.001,0.015 -0.002,0.024Z" style="fill:#a2c048;fill-rule:nonzero;"/><path d="M173.886,437.927c-1.37,0 -2.7,-0.123 -3.977,-0.415c-1.822,-4.846 -2.976,-11.817 -3.196,-21.769c-0.025,-1.153 -0.038,-2.346 -0.038,-3.58c0,-4.272 0.155,-8.809 0.447,-13.448c0.001,-0.009 0.001,-0.015 0.002,-0.024c0,-0.006 0.001,-0.016 0.001,-0.022c1.631,-25.787 7.518,-54.728 14.77,-59.177c5.425,14.683 9.122,41.866 9.122,62.75c0,30.089 -7.67,35.685 -17.131,35.685Zm4.96,-78.12c-2.482,0 -4.495,15.719 -4.495,26.67c0,10.952 2.013,12.988 4.495,12.988c2.482,0 4.495,-2.036 4.495,-12.988c0,-10.951 -2.013,-26.67 -4.495,-26.67Z" style="fill:#b8dc60;fill-rule:nonzero;"/><path d="M178.846,399.465c-2.482,0 -4.495,-2.036 -4.495,-12.988c0,-10.951 2.013,-26.67 4.495,-26.67c2.482,0 4.495,15.719 4.495,26.67c0,10.952 -2.013,12.988 -4.495,12.988Z" style="fill:#d7f385;fill-rule:nonzero;"/><path d="M396.836,479.119l-2.289,0l0,-28.998l0,1.855c0,1.556 1.39,2.02 2.289,2.163l0,24.98Z" style="fill:#ae8651;fill-rule:nonzero;"/><path d="M399.125,479.119l-2.289,0l0,-24.98c-0.899,-0.143 -2.289,-0.607 -2.289,-2.163l0,-1.855c0.747,0.094 1.511,0.135 2.289,0.135c0.777,0 1.541,-0.041 2.289,-0.135l0,28.998Z" style="fill:#967042;fill-rule:nonzero;"/><path d="M396.836,450.256c-0.778,0 -1.542,-0.041 -2.289,-0.135c-7.285,-0.919 -12.961,-6.896 -13.484,-29.323c0.213,9.093 1.275,15.474 2.945,19.918c1.179,0.27 2.407,0.383 3.671,0.383c8.733,0 15.812,-5.165 15.812,-32.936c0,-19.276 -3.412,-44.365 -8.419,-57.917c-6.693,4.106 -12.127,30.818 -13.633,54.618c0.29,-4.58 0.725,-9.269 1.287,-13.884c0.342,-2.817 0.732,-5.606 1.165,-8.327c2.861,-17.99 7.592,-32.964 12.945,-32.964c5.523,0 10.385,15.947 13.213,34.695c0.306,2.03 0.588,4.091 0.845,6.17c1.121,9.077 1.754,18.462 1.754,26.766c0,25.298 -5.876,31.837 -13.523,32.801c-0.748,0.094 -1.512,0.135 -2.289,0.135Zm-15.773,-29.468l0,-0.025l0,0.025Zm0.374,-15.881c0,-0.006 0.001,-0.015 0.001,-0.021c0,0.007 -0.001,0.014 -0.001,0.021Z" style="fill:#a2c048;fill-rule:nonzero;"/><path d="M387.679,441.099c-1.264,0 -2.492,-0.113 -3.671,-0.383c-1.67,-4.444 -2.732,-10.825 -2.945,-19.918l0,-0.035c-0.026,-1.107 -0.039,-2.254 -0.039,-3.443c0,-3.943 0.143,-8.132 0.413,-12.413c0,-0.007 0.001,-0.014 0.001,-0.021c0.001,-0.008 0.001,-0.014 0.001,-0.022c1.506,-23.8 6.94,-50.512 13.633,-54.618c5.007,13.552 8.419,38.641 8.419,57.917c0,27.771 -7.079,32.936 -15.812,32.936Zm4.579,-72.102c-2.292,0 -4.149,14.508 -4.149,24.616c0,10.108 1.857,11.987 4.149,11.987c2.291,0 4.148,-1.879 4.148,-11.987c0,-10.108 -1.857,-24.616 -4.148,-24.616Z" style="fill:#b8dc60;fill-rule:nonzero;"/><path d="M392.258,405.6c-2.292,0 -4.149,-1.879 -4.149,-11.987c0,-10.108 1.857,-24.616 4.149,-24.616c2.291,0 4.148,14.508 4.148,24.616c0,10.108 -1.857,11.987 -4.148,11.987Z" style="fill:#d7f385;fill-rule:nonzero;"/><path d="M224.116,471.044l0,-30.012l0,2.438c0,2.043 1.826,2.652 3.007,2.84l0,24.345c-1.003,0.122 -2.005,0.252 -3.007,0.389Z" style="fill:#ae8651;fill-rule:nonzero;"/><path d="M227.123,470.655l0,-24.345c-1.181,-0.188 -3.007,-0.797 -3.007,-2.84l0,-2.438c0.982,0.124 1.985,0.178 3.007,0.178c1.021,0 2.024,-0.054 3.006,-0.178l0,29.277c-1.003,0.108 -2.005,0.223 -3.006,0.346Z" style="fill:#967042;fill-rule:nonzero;"/><path d="M227.123,441.21c-1.022,0 -2.025,-0.054 -3.007,-0.178c-10.01,-1.261 -17.708,-9.797 -17.76,-42.743c0.022,14.228 1.475,23.889 3.919,30.392c1.548,0.354 3.161,0.503 4.822,0.503c11.469,0 20.767,-6.784 20.767,-43.259c0,-25.317 -4.482,-58.269 -11.058,-76.069c-10.109,6.203 -18.03,51.665 -18.434,85.426c0.016,-1.351 0.044,-2.723 0.084,-4.108c0.111,-3.862 0.314,-7.849 0.599,-11.882c1.424,-20.097 4.922,-41.424 9.578,-55.22c1.676,-4.964 3.502,-8.953 5.435,-11.558c1.618,-2.18 3.311,-3.39 5.055,-3.39c1.529,0 3.019,0.931 4.454,2.63c2.175,2.575 4.223,6.919 6.085,12.465c3.55,10.575 6.422,25.529 8.209,40.952l-1.034,60.956c-3.154,10.524 -8.485,14.121 -14.708,14.905c-0.982,0.124 -1.985,0.178 -3.006,0.178Zm-20.767,-42.922l0,-0.081l0,0.081Zm0,-0.089l0,-0.073l0,0.073Zm0,-0.081l0,-0.074l0,0.074Zm0,-0.092c0,-0.024 -0.001,-0.05 -0.001,-0.074c0,0.024 0.001,0.05 0.001,0.074Zm0,-0.181l0,-0.002l0,0.002Zm0,-0.053l0,-0.003l0,0.003Zm0,-0.053l0,-0.005l0,0.005Zm0,-0.051l0,-0.011l0,0.011Zm0,-0.054l0,-0.008l0,0.008Zm0,-0.049l0,-0.018l0,0.018Zm0,-0.057l0,-0.007l0,0.007Zm0,-0.05l0,-0.014l0,0.014Zm0,-0.106l0,-0.013l0,0.013Zm0.001,-0.111l0,-0.007l0,0.007Zm0,-0.109l0,-0.018l0,0.018Zm0,-0.109l0,-0.011l0,0.011Zm0.001,-0.054l0,-0.011l0,0.011Zm0,-0.047l0,-0.022l0,0.022Zm0,-0.055l0,-0.021l0,0.021Zm0,-0.046l0,-0.029l0,0.029Zm0.001,-0.053l0,-0.032l0,0.032Zm0,-0.045l0,-0.035l0,0.035Zm0,-0.067l0,-0.018l0,0.018Zm0.001,-0.05l0,-0.021l0,0.021Zm0,-0.048c0,-0.088 0.001,-0.182 0.002,-0.27c-0.001,0.089 -0.002,0.182 -0.002,0.27Zm0.002,-0.284l0,-0.03l0,0.03Zm0,-0.055l0,-0.024l0,0.024Zm0.001,-0.05l0,-0.036l0,0.036Zm0,-0.046l0,-0.039l0,0.039Zm0,-0.055c0.001,-0.011 0.001,-0.024 0.001,-0.035c0,0.013 0,0.022 -0.001,0.035Zm0.001,-0.056l0,-0.028l0,0.028Zm0,-0.049c0.001,-0.027 0.001,-0.059 0.001,-0.086c0,0.029 0,0.057 -0.001,0.086Zm0.001,-0.1c0,-0.014 0,-0.024 0.001,-0.038c0,0.013 -0.001,0.025 -0.001,0.038Zm0.001,-0.051l0,-0.038l0,0.038Zm0,-0.041c0.001,-0.065 0.001,-0.132 0.002,-0.198c-0.001,0.068 -0.001,0.131 -0.002,0.198Zm0.002,-0.201c0.001,-0.034 0.001,-0.065 0.001,-0.099c0,0.034 0,0.065 -0.001,0.099Zm0.001,-0.101c0.001,-0.032 0.001,-0.064 0.001,-0.096c0,0.032 0,0.064 -0.001,0.096Zm0.001,-0.107c0.001,-0.014 0.001,-0.028 0.001,-0.042c0,0.015 0,0.027 -0.001,0.042Zm0.001,-0.047c0,-0.016 0,-0.029 0.001,-0.045c-0.001,0.017 -0.001,0.028 -0.001,0.045Z" style="fill:#a2c048;fill-rule:nonzero;"/><path d="M215.097,429.184c-1.661,0 -3.274,-0.149 -4.822,-0.503c-2.444,-6.503 -3.897,-16.164 -3.919,-30.392l0,-0.263c0,-0.024 -0.001,-0.05 -0.001,-0.074c0,-0.036 0.001,-0.071 0.001,-0.107l0,-0.486c0,-0.034 0.001,-0.065 0.001,-0.098l0,-0.229c0.001,-0.014 0.001,-0.028 0.001,-0.043l0,-0.177c0.001,-0.008 0.001,-0.016 0.001,-0.024l0,-0.13c0,-0.01 0,-0.021 0.001,-0.032l0,-0.048c0,-0.088 0.001,-0.181 0.002,-0.27l0,-0.093c0,-0.008 0.001,-0.017 0.001,-0.026l0,-0.101c0.001,-0.013 0.001,-0.022 0.001,-0.035l0,-0.07c0.001,-0.029 0.001,-0.057 0.001,-0.086l0,-0.014c0,-0.013 0.001,-0.025 0.001,-0.038l0,-0.054c0.001,-0.067 0.001,-0.13 0.002,-0.198l0,-0.003c0.001,-0.034 0.001,-0.065 0.001,-0.099l0,-0.002c0.001,-0.032 0.001,-0.064 0.001,-0.096l0,-0.011c0.001,-0.015 0.001,-0.027 0.001,-0.042l0,-0.005c0,-0.017 0,-0.028 0.001,-0.045l0,-0.008c0.404,-33.761 8.325,-79.223 18.434,-85.426c6.576,17.8 11.058,50.752 11.058,76.069c0,36.475 -9.298,43.259 -20.767,43.259Zm6.013,-96.919c-3.852,0 -6.975,24.392 -6.975,41.386c0,16.994 3.123,20.155 6.975,20.155c3.852,0 6.975,-3.161 6.975,-20.155c0,-16.994 -3.123,-41.386 -6.975,-41.386Z" style="fill:#b8dc60;fill-rule:nonzero;"/><path d="M221.11,393.806c-3.852,0 -6.975,-3.161 -6.975,-20.155c0,-16.994 3.123,-41.386 6.975,-41.386c3.852,0 6.975,24.392 6.975,41.386c0,16.994 -3.123,20.155 -6.975,20.155Z" style="fill:#d7f385;fill-rule:nonzero;"/><path d="M268.229,237.485l2.399,-0.264c1.646,-1.29 2.744,-3.535 2.744,-6.105c0,-2.57 -1.098,-4.815 -2.744,-6.105l-2.399,-0.265l7.348,0.81c2.632,0.29 4.858,2.294 5.151,4.926c0.346,3.111 -1.893,5.835 -4.923,6.169l-7.576,0.834Z" style="fill:#efede8;fill-rule:nonzero;"/><path d="M268.229,237.485c1.747,-1.578 2.831,-3.858 2.831,-6.369c0,-2.511 -1.084,-4.792 -2.831,-6.37l2.399,0.265c1.646,1.29 2.744,3.535 2.744,6.105c0,2.57 -1.098,4.815 -2.744,6.105l-2.399,0.264Z" style="fill:#dddcd7;fill-rule:nonzero;"/><path d="M261.237,469.282c-0.03,-0.001 -0.06,-0.002 -0.09,-0.003l-3.188,-187.934l0.019,0.023l0.5,28.831l0.243,14.042l0.952,54.896l0.208,12.028l1.356,78.117Zm-17.132,-0.007l0.732,-43.148l1.034,-60.956l0.694,-40.934l0.228,-13.463l0.734,-43.306l5.13,6.823l-0.076,194.813c-2.827,0 -5.653,0.057 -8.476,0.171Zm13.506,-209.026l-0.01,-0.01l-0.194,-11.501l0,-0.008l-0.143,-8.408l0.001,0l0.196,11.246l0.1,5.782l0.05,2.899Zm-4.947,-5.34l-4.835,-5.219l0.015,-0.895c1.445,0.918 3.091,1.377 4.737,1.377l0.085,0l-0.002,4.737Z" style="fill:#efede8;fill-rule:nonzero;"/><path d="M261.147,469.279c-2.853,-0.117 -5.709,-0.175 -8.566,-0.175l0.076,-194.813l5.302,7.054l3.188,187.934Zm-3.546,-209.04l-4.937,-5.33l0.002,-4.737c1.651,-0.016 3.299,-0.494 4.741,-1.434l0.194,11.501Zm-0.194,-11.509l-0.235,-8.397l0.092,-0.011l0.143,8.408Z" style="fill:#dddcd7;fill-rule:nonzero;"/><path d="M247.844,248.795c-0.03,-0.019 -0.06,-0.038 -0.089,-0.057l0.125,-7.382l0.09,-0.01l-0.126,7.449Z" style="fill:#b8ccc2;fill-rule:nonzero;"/><path d="M252.581,250.172c-1.646,0 -3.292,-0.459 -4.737,-1.377l0.126,-7.449l4.7,-0.517l-0.004,9.343l-0.085,0Zm4.826,-1.434l0,-0.008l0,0.008Z" style="fill:#cdccc6;fill-rule:nonzero;"/><path d="M252.666,250.172l0.004,-9.343l4.502,-0.496l0.235,8.397l0,0.008c-1.442,0.94 -3.09,1.418 -4.741,1.434Z" style="fill:#c6c6c1;fill-rule:nonzero;"/><path d="M233.761,242.912c0.16,-0.036 0.318,-0.077 0.475,-0.123l0.049,0.065l-0.524,0.058Zm7.066,-0.779l-2.263,-2.443c1.693,-2.173 2.745,-5.212 2.745,-8.574c0,-5.924 -3.264,-10.841 -7.548,-11.796l29.659,3.268c1.852,0.204 3.513,0.988 4.809,2.158c1.747,1.578 2.831,3.859 2.831,6.37c0,2.511 -1.084,4.791 -2.831,6.369c-1.296,1.171 -2.957,1.955 -4.809,2.159l-6.155,0.678l-0.001,0l-0.092,0.011l-4.502,0.496l-4.7,0.517l-0.09,0.01l-7.053,0.777Zm7.778,-12.022c-0.336,0 -0.608,0.272 -0.608,0.607l0,0.795c0,0.336 0.272,0.608 0.608,0.608l11.944,0c0.335,0 0.607,-0.272 0.607,-0.608l0,-0.795c0,-0.335 -0.272,-0.607 -0.607,-0.607l-11.944,0Z" style="fill:#efede8;fill-rule:nonzero;"/><path d="M232.239,243.08c-3.066,0 -5.777,-2.008 -7.419,-5.081l0.47,-0.335l1.014,0.508c1.207,0.605 2.484,0.886 3.736,0.886c0.447,0 0.89,-0.036 1.326,-0.105l2.87,3.836c-0.157,0.046 -0.315,0.087 -0.475,0.123c-0.495,0.11 -1.003,0.168 -1.522,0.168Zm6.325,-3.39l-2.723,-2.939c1.28,-1.226 2.157,-2.887 2.334,-4.845c0.024,-0.261 0.036,-0.524 0.036,-0.79c0,-0.266 -0.012,-0.53 -0.036,-0.79c-0.298,-3.303 -2.585,-5.757 -5.447,-6.713l0.63,-4.371c0.135,0.022 0.27,0.048 0.403,0.078c4.284,0.955 7.548,5.872 7.548,11.796c0,3.362 -1.052,6.401 -2.745,8.574Zm-14.116,-14.7c0.874,-1.932 2.15,-3.511 3.676,-4.538l-0.114,2.973c-0.577,0.145 -1.149,0.355 -1.706,0.634l-1.856,0.931Z" style="fill:#f2f1ec;fill-rule:nonzero;"/><path d="M258.052,281.468l-0.074,-0.1l-0.123,-7.01l0.046,0.06l0.151,7.05Zm-10.525,-14l0.115,-6.761l-0.115,6.761Z" style="fill:#b8ccc2;fill-rule:nonzero;"/><path d="M257.978,281.368l-0.019,-0.023l-0.118,-7.006l0.014,0.019l0.123,7.01Zm-5.321,-7.077l-5.13,-6.823l0.115,-6.761l5.017,6.706l-0.002,6.878Z" style="fill:#cdccc6;fill-rule:nonzero;"/><path d="M257.959,281.345l-5.302,-7.054l0.002,-6.878l5.182,6.926l0.118,7.006Z" style="fill:#c6c6c1;fill-rule:nonzero;"/><path d="M298.808,479.119c0,-2.903 -2.069,-5.394 -4.923,-5.927l-2.804,-0.524c-12.696,-2.371 -25.584,-3.564 -38.5,-3.564c0,0 21.017,2.118 21.017,5.867l0,4.148l-67.244,0c0,-2.903 2.069,-5.394 4.923,-5.927l2.804,-0.524c3.333,-0.622 6.679,-1.164 10.035,-1.624c1.002,-0.137 2.004,-0.267 3.007,-0.389c1.001,-0.123 2.003,-0.238 3.006,-0.346c4.646,-0.5 9.307,-0.845 13.976,-1.034c2.823,-0.114 5.649,-0.171 8.476,-0.171c2.857,0 5.713,0.058 8.566,0.175c0.03,0.001 0.06,0.002 0.09,0.003c10.013,0.414 19.986,1.545 29.844,3.386l2.804,0.524c2.854,0.533 4.923,3.024 4.923,5.927Z" style="fill:#efede8;fill-rule:nonzero;"/><path d="M260.549,232.121l-11.944,0c-0.336,0 -0.608,-0.272 -0.608,-0.608l0,-0.795c0,-0.335 0.272,-0.607 0.608,-0.607l11.944,0c0.335,0 0.607,0.272 0.607,0.607l0,0.795c0,0.336 -0.272,0.608 -0.607,0.608Z" style="fill:#bbbbb6;fill-rule:nonzero;"/><path d="M298.808,479.119l-25.21,0l0,-4.148c0,-3.749 -21.017,-5.867 -21.017,-5.867c12.916,0 25.804,1.193 38.5,3.564l2.804,0.524c2.854,0.533 4.923,3.024 4.923,5.927Z" style="fill:#dddcd7;fill-rule:nonzero;"/><path d="M370.343,292.909l1.849,-0.204c1.268,-0.994 2.114,-2.724 2.114,-4.705c0,-1.98 -0.846,-3.711 -2.114,-4.705l-1.849,-0.203l5.662,0.623c2.028,0.224 3.744,1.769 3.97,3.797c0.267,2.397 -1.459,4.496 -3.794,4.753l-5.838,0.644Z" style="fill:#efede8;fill-rule:nonzero;"/><path d="M370.343,292.909c1.346,-1.216 2.182,-2.974 2.182,-4.909c0,-1.935 -0.836,-3.692 -2.182,-4.908l1.849,0.203c1.268,0.994 2.114,2.725 2.114,4.705c0,1.981 -0.846,3.711 -2.114,4.705l-1.849,0.204Z" style="fill:#dddcd7;fill-rule:nonzero;"/><path d="M364.954,471.539c-0.023,-0.001 -0.046,-0.002 -0.069,-0.003l-2.456,-144.828l0.071,0.095l0.93,54.83l0.16,9.471l1.364,80.435Zm-13.202,-0.006l0.861,-50.747c2.25,-2.263 4.166,-4.835 5.694,-7.732l-0.023,58.347c-2.179,0 -4.356,0.044 -6.532,0.132Zm6.57,-98.868c-1.301,-3.549 -2.884,-7.034 -4.717,-10.377l0.645,-38.048l0.228,-13.436l-0.089,5.21l3.953,5.258l-0.02,51.393Zm4.178,-45.865l-0.117,-5.43l0.026,0.034l0.047,2.82l0.044,2.576Zm-0.276,-16.281l-0.071,-0.076l-0.15,-8.863l0,-0.009l-0.11,-6.476l0.069,-0.008l0.262,15.432Zm-3.876,-4.183l-3.726,-4.022l0.011,-0.69c1.114,0.708 2.383,1.062 3.651,1.062c0.022,0 0.044,-0.001 0.065,-0.001l-0.001,3.651Z" style="fill:#efede8;fill-rule:nonzero;"/><path d="M364.885,471.536c-2.198,-0.09 -4.399,-0.135 -6.601,-0.135l0.023,-58.347c2.683,-5.088 4.171,-11.179 4.171,-18.362c0,-7.169 -1.482,-14.734 -4.156,-22.027l0.02,-51.393l4.087,5.436l2.456,144.828Zm-2.732,-161.093l-3.805,-4.107l0.001,-3.651c1.273,-0.012 2.543,-0.38 3.654,-1.105l0.15,8.863Zm-0.15,-8.872l-0.181,-6.468l0.071,-0.008l0.11,6.476Z" style="fill:#dddcd7;fill-rule:nonzero;"/><path d="M354.633,301.624c-0.023,-0.014 -0.045,-0.029 -0.068,-0.044l0.096,-5.688l0.07,-0.008l-0.098,5.74Z" style="fill:#b8ccc2;fill-rule:nonzero;"/><path d="M358.284,302.686c-1.268,0 -2.537,-0.354 -3.651,-1.062l0.098,-5.74l3.621,-0.399l-0.003,7.2c-0.021,0 -0.043,0.001 -0.065,0.001Zm3.719,-1.106l0,-0.009l0,0.009Z" style="fill:#cdccc6;fill-rule:nonzero;"/><path d="M358.349,302.685l0.003,-7.2l3.47,-0.382l0.181,6.468l0,0.009c-1.111,0.725 -2.381,1.093 -3.654,1.105Z" style="fill:#c6c6c1;fill-rule:nonzero;"/><path d="M343.78,297.091c0.124,-0.028 0.246,-0.059 0.367,-0.095l0.037,0.05l-0.404,0.045Zm5.446,-0.6l-1.744,-1.883c1.305,-1.675 2.115,-4.016 2.115,-6.608c0,-4.565 -2.515,-8.354 -5.817,-9.09l22.857,2.518c1.428,0.157 2.707,0.761 3.706,1.664c1.346,1.216 2.182,2.973 2.182,4.908c0,1.935 -0.836,3.693 -2.182,4.909c-0.999,0.902 -2.279,1.506 -3.706,1.663l-4.675,0.515l-0.069,0.008l-0.071,0.008l-3.47,0.382l-3.621,0.399l-0.07,0.008l-5.435,0.599Zm6.04,-9.265c-0.284,0 -0.514,0.23 -0.514,0.514l0,0.521c0,0.284 0.23,0.514 0.514,0.514l9.112,0c0.284,0 0.514,-0.23 0.514,-0.514l0,-0.521c0,-0.284 -0.23,-0.514 -0.514,-0.514l-9.112,0Z" style="fill:#efede8;fill-rule:nonzero;"/><path d="M342.608,297.22c-2.363,0 -4.452,-1.547 -5.717,-3.916l0.362,-0.257l0.781,0.391c0.93,0.466 1.914,0.682 2.879,0.682c0.344,0 0.686,-0.027 1.022,-0.081l2.212,2.957c-0.121,0.036 -0.243,0.067 -0.367,0.095c-0.381,0.085 -0.773,0.129 -1.172,0.129Zm4.874,-2.612l-2.099,-2.265c0.987,-0.945 1.663,-2.225 1.799,-3.734c0.018,-0.201 0.028,-0.404 0.028,-0.609c0,-0.205 -0.01,-0.408 -0.028,-0.608c-0.229,-2.546 -1.992,-4.437 -4.197,-5.174l0.485,-3.368c0.104,0.017 0.208,0.037 0.31,0.06c3.302,0.736 5.817,4.525 5.817,9.09c0,2.592 -0.81,4.933 -2.115,6.608Zm-10.879,-11.329c0.674,-1.488 1.658,-2.706 2.833,-3.497l-0.087,2.291c-0.445,0.112 -0.886,0.274 -1.315,0.489l-1.431,0.717Z" style="fill:#f2f1ec;fill-rule:nonzero;"/><path d="M362.5,326.803l-0.071,-0.095l-0.091,-5.399l0.045,0.061l0.117,5.43l0,0.003Zm-4.158,-5.531l-3.953,-5.258l0.089,-5.21l3.866,5.168l-0.002,5.3Z" style="fill:#cdccc6;fill-rule:nonzero;"/><path d="M362.429,326.708l-4.087,-5.436l0.002,-5.3l3.994,5.337l0.091,5.399Z" style="fill:#c6c6c1;fill-rule:nonzero;"/><path d="M107.136,448.949l-4.677,-6.745c1.534,0.11 3.095,0.173 4.677,0.191l0,6.554Zm203.237,-6.744l-5.722,-8.251c1.876,0.134 3.787,0.211 5.722,0.233l0,8.018Z" style="fill:#b0edd9;fill-rule:nonzero;"/><path d="M393.908,479.119c0,-2.237 -1.595,-4.157 -3.794,-4.568l-2.161,-0.403c-9.784,-1.828 -19.716,-2.747 -29.669,-2.747c0,0 16.196,1.632 16.196,4.522l0,3.196l-51.82,0c0,-2.237 1.595,-4.157 3.794,-4.568l2.16,-0.403c7.643,-1.428 15.376,-2.301 23.138,-2.615c2.176,-0.088 4.353,-0.132 6.532,-0.132c2.202,0 4.403,0.045 6.601,0.135c0.023,0.001 0.046,0.002 0.069,0.003c7.717,0.318 15.402,1.19 22.999,2.609l2.161,0.403c2.199,0.411 3.794,2.331 3.794,4.568Z" style="fill:#efede8;fill-rule:nonzero;"/><path d="M364.378,288.775l-9.112,0c-0.284,0 -0.514,-0.23 -0.514,-0.514l0,-0.521c0,-0.284 0.23,-0.514 0.514,-0.514l9.112,0c0.284,0 0.514,0.23 0.514,0.514l0,0.521c0,0.284 -0.23,0.514 -0.514,0.514Z" style="fill:#bbbbb6;fill-rule:nonzero;"/><path d="M393.908,479.119l-19.428,0l0,-3.196c0,-2.89 -16.196,-4.522 -16.196,-4.522c9.953,0 19.885,0.919 29.669,2.747l2.161,0.403c2.199,0.411 3.794,2.331 3.794,4.568Z" style="fill:#dddcd7;fill-rule:nonzero;"/><path d="M314.223,479.127l-3.85,0l0,-25.025c0,-2.313 -0.706,-4.571 -2.024,-6.472l-4.129,-5.953c1.017,0.538 2.047,0.984 3.04,1.352c4.218,1.568 6.948,5.68 6.948,10.181l0,25.908l0.015,0.009Z" style="fill:#ae8651;fill-rule:nonzero;"/><path d="M316.794,479.127l-2.571,0l-0.015,-0.009l0,-25.908c0,-4.501 -2.73,-8.613 -6.948,-10.181c-0.993,-0.368 -2.023,-0.814 -3.04,-1.352l-5.827,-8.401c2.038,0.3 4.128,0.526 6.258,0.678l5.722,8.251l0,-8.018c0.396,0.005 0.791,0.007 1.189,0.007c1.766,0 3.512,-0.045 5.232,-0.136l0,45.069Z" style="fill:#967042;fill-rule:nonzero;"/><path d="M311.562,434.194c-0.398,0 -0.793,-0.002 -1.189,-0.007c-1.935,-0.022 -3.846,-0.099 -5.722,-0.233c-2.13,-0.152 -4.22,-0.378 -6.258,-0.678c-21.57,-3.182 -37.499,-14.836 -37.743,-38.04c0.136,12.984 5.19,22.349 13.39,28.64c6.973,2.164 14.874,3.185 23.256,3.185c28.12,0 50.915,-11.382 50.915,-39.502c0,-19.511 -10.979,-41.942 -27.091,-53.855c-3.084,-0.858 -6.264,-1.337 -9.518,-1.341c28.101,0.034 50.876,34.223 50.876,62.329c0,7.183 -1.488,13.274 -4.171,18.362c-1.528,2.897 -3.444,5.469 -5.694,7.732c-8.296,8.346 -21.134,12.494 -35.819,13.272c-1.72,0.091 -3.466,0.136 -5.232,0.136Zm-50.912,-38.961c-0.002,-0.025 -0.002,-0.047 -0.002,-0.072c0,0.024 0,0.048 0.002,0.072Zm-0.002,-0.079l0,-0.07l0,0.07Zm0,-0.078l0,-0.07l0,0.07Zm0,-0.078c0,-0.024 0,-0.045 -0.001,-0.069c0.001,0.022 0.001,0.046 0.001,0.069Zm-0.001,-0.079l0,-0.069l0,0.069Zm0,-0.076l0,-0.072l0,0.072Zm0,-0.076l0,-0.075l0,0.075Z" style="fill:#90b43a;fill-rule:nonzero;"/><path d="M297.296,427.061c-8.382,0 -16.283,-1.021 -23.256,-3.185c-8.2,-6.291 -13.254,-15.656 -13.39,-28.64l0,-0.003c-0.002,-0.024 -0.002,-0.048 -0.002,-0.072l0,-0.163c0,-0.023 0,-0.047 -0.001,-0.069l0,-0.278c0.001,-1.152 0.04,-2.316 0.116,-3.486c0.258,-3.955 0.937,-7.991 1.996,-12.008c6.062,-23.022 24.504,-45.314 46.59,-46.723c0.734,-0.047 1.472,-0.071 2.213,-0.071l0.04,0c3.254,0.004 6.434,0.483 9.518,1.341c16.112,11.913 27.091,34.344 27.091,53.855c0,28.12 -22.795,39.502 -50.915,39.502Zm-0.757,-83.067c-9.817,0 -21.731,14.028 -25.944,27.535c-4.627,14.838 1.789,23.429 12.015,26.619c2.282,0.711 4.56,1.094 6.775,1.094c7.71,0 14.646,-4.637 18.241,-16.163c4.628,-14.838 1.968,-35.474 -8.258,-38.663c-0.917,-0.286 -1.863,-0.422 -2.829,-0.422Z" style="fill:#b8dc60;fill-rule:nonzero;"/><path d="M289.385,399.242c-2.215,0 -4.493,-0.383 -6.775,-1.094c-10.226,-3.19 -16.642,-11.781 -12.015,-26.619c4.213,-13.507 16.127,-27.535 25.944,-27.535c0.966,0 1.912,0.136 2.829,0.422c10.226,3.189 12.886,23.825 8.258,38.663c-3.595,11.526 -10.531,16.163 -18.241,16.163Z" style="fill:#d7f385;fill-rule:nonzero;"/><path d="M110.283,479.127l-3.147,0l0,-20.454c0,-1.891 -0.577,-3.737 -1.655,-5.29l-3.375,-4.866c0.832,0.439 1.674,0.804 2.485,1.106c3.449,1.281 5.679,4.642 5.679,8.32l0,21.177l0.013,0.007Z" style="fill:#ae8651;fill-rule:nonzero;"/><path d="M112.384,479.127l-2.101,0l-0.013,-0.007l0,-21.177c0,-3.678 -2.23,-7.039 -5.679,-8.32c-0.811,-0.302 -1.653,-0.667 -2.485,-1.106l-4.762,-6.867c1.665,0.246 3.374,0.43 5.115,0.554l4.677,6.745l0,-6.554c0.324,0.004 0.647,0.006 0.972,0.006c1.444,0 2.87,-0.037 4.276,-0.111l0,36.837Z" style="fill:#967042;fill-rule:nonzero;"/><path d="M108.108,442.401c-0.325,0 -0.648,-0.002 -0.972,-0.006c-1.582,-0.018 -3.143,-0.081 -4.677,-0.191c-1.741,-0.124 -3.45,-0.308 -5.115,-0.554c-17.493,-2.58 -30.447,-11.976 -30.843,-30.649c0.221,10.384 4.328,17.896 10.938,22.966c5.699,1.769 12.157,2.603 19.008,2.603c22.984,0 41.616,-9.303 41.616,-32.287c0,-15.947 -8.973,-34.281 -22.143,-44.018c-2.511,-0.698 -5.099,-1.09 -7.749,-1.096c22.955,0.051 41.553,27.982 41.553,50.945c0,1.651 -0.096,3.23 -0.283,4.742c-0.019,0.156 -0.04,0.315 -0.061,0.47c-0.754,5.481 -2.717,10.039 -5.632,13.755c-1.676,2.138 -3.667,3.997 -5.923,5.592c-6.616,4.68 -15.512,7.091 -25.441,7.617c-1.406,0.074 -2.832,0.111 -4.276,0.111Zm-41.607,-31.406c0,-0.016 -0.001,-0.034 -0.001,-0.051c0,0.017 0.001,0.034 0.001,0.051Zm-0.001,-0.065c-0.001,-0.015 -0.001,-0.031 -0.001,-0.046c0,0.015 0,0.03 0.001,0.046Zm-0.002,-0.065l0,-0.043l0,0.043Zm-0.001,-0.065l0,-0.04l0,0.04Zm-0.001,-0.066l0,-0.037l0,0.037Zm-0.001,-0.065l0,-0.037l0,0.037Zm-0.001,-0.065l0,-0.036l0,0.036Zm0,-0.066c0,-0.011 0,-0.023 -0.001,-0.034c0.001,0.011 0.001,0.023 0.001,0.034Zm-0.001,-0.066l0,-0.033l0,0.033Zm0,-0.066c0,-0.011 -0.001,-0.02 -0.001,-0.032c0,0.011 0.001,0.022 0.001,0.032Zm-0.001,-0.066l0,-0.031l0,0.031Zm0,-0.067l0,-0.029l0,0.029Zm0,-0.071l0,-0.023l0,0.023Zm41.674,-51.033l-0.026,0l0.026,0Z" style="fill:#90b43a;fill-rule:nonzero;"/><path d="M96.447,436.57c-6.851,0 -13.309,-0.834 -19.008,-2.603c-6.61,-5.07 -10.717,-12.582 -10.938,-22.966l0,-0.006c0,-0.017 -0.001,-0.034 -0.001,-0.051l0,-0.014c-0.001,-0.016 -0.001,-0.031 -0.001,-0.046c0,-0.006 -0.001,-0.013 -0.001,-0.019l0,-0.043c-0.001,-0.007 -0.001,-0.015 -0.001,-0.022l0,-0.04c-0.001,-0.009 -0.001,-0.017 -0.001,-0.026l0,-0.037c0,-0.01 -0.001,-0.019 -0.001,-0.028l0,-0.037c0,-0.009 0,-0.019 -0.001,-0.028l0,-0.066c0,-0.011 0,-0.023 -0.001,-0.034l0,-0.098c0,-0.01 -0.001,-0.021 -0.001,-0.032l0,-0.26c0,-22.984 18.632,-50.945 41.616,-50.945l0.063,0c2.65,0.006 5.238,0.398 7.749,1.096c13.17,9.737 22.143,28.071 22.143,44.018c0,22.984 -18.632,32.287 -41.616,32.287Zm-0.619,-67.895c-8.024,0 -17.762,11.466 -21.205,22.506c-3.782,12.128 1.462,19.15 9.82,21.757c1.866,0.582 3.727,0.894 5.538,0.894c6.302,0 11.972,-3.79 14.91,-13.211c3.782,-12.127 1.608,-28.994 -6.75,-31.601c-0.75,-0.234 -1.523,-0.345 -2.313,-0.345Z" style="fill:#b8dc60;fill-rule:nonzero;"/><path d="M89.981,413.832c-1.811,0 -3.672,-0.312 -5.538,-0.894c-8.358,-2.607 -13.602,-9.629 -9.82,-21.757c3.443,-11.04 13.181,-22.506 21.205,-22.506c0.79,0 1.563,0.111 2.313,0.345c8.358,2.607 10.532,19.474 6.75,31.601c-2.938,9.421 -8.608,13.211 -14.91,13.211Z" style="fill:#d7f385;fill-rule:nonzero;"/><rect x="0" y="479.127" width="500" height="6.373" style="fill:#779e21;fill-rule:nonzero;"/></g><path id="fin-7" serif:id="fin 7" d="M128.433,282.218c-0.661,-0.221 -1.361,-0.338 -2.072,-0.338c-0.52,0 -1.045,0.063 -1.564,0.193l0.087,-2.29l0.846,-22.17l0.259,-6.782c0.002,-0.062 0.005,-0.125 0.007,-0.187c0.161,-3.813 0.788,-7.592 1.866,-11.254l4.898,-16.625c0.378,-1.283 1.554,-2.127 2.841,-2.127c0.213,0 0.429,0.023 0.645,0.071c0.572,0.127 0.949,0.674 0.866,1.253l-3.966,27.53l-1.201,8.342l-3.027,21.016l-0.485,3.368Z" style="fill:#f2f1ec;fill-rule:nonzero;"/><path id="fin-8" serif:id="fin 8" d="M164.498,342.896c-0.342,0 -0.678,-0.156 -0.897,-0.449l-15.744,-21.043l-0.026,-0.034l-0.045,-0.061l-3.994,-5.337l-3.866,-5.168l-10.294,-13.758l-0.039,-0.05l-2.21,-2.957c1.3,-0.206 2.514,-0.801 3.447,-1.696l2.1,2.265l1.744,1.883l5.396,5.823l3.726,4.022l3.805,4.107l0.071,0.077l3.381,3.649c2.636,2.845 4.909,6.008 6.765,9.414l8.292,15.219c0.746,1.369 0.304,3.082 -1.011,3.919c-0.186,0.118 -0.394,0.175 -0.601,0.175Z" style="fill:#f2f1ec;fill-rule:nonzero;"/><path id="fin-9" serif:id="fin 9" d="M73.554,320.474c-1.119,0 -2.184,-0.637 -2.685,-1.707c-0.249,-0.531 -0.046,-1.163 0.464,-1.451l46.947,-26.486l4.421,2.217l-0.362,0.257l-21.351,15.197c-3.161,2.25 -6.589,4.097 -10.205,5.501l-16.158,6.27c-0.351,0.137 -0.714,0.202 -1.071,0.202Z" style="fill:#f2f1ec;fill-rule:nonzero;"/><g id="center-3" serif:id="center 3"><path d="M126.361,294.12c-0.965,0 -1.949,-0.216 -2.879,-0.682l-0.781,-0.391l-4.421,-2.217l-1.397,-0.7l1.399,0.701c0.484,0.243 0.995,0.355 1.495,0.355c1.699,0 3.277,-1.293 3.29,-3.134l0.001,-0.052l-0.001,-0.052c-0.013,-1.841 -1.591,-3.134 -3.29,-3.134c-0.495,0 -0.999,0.11 -1.479,0.347l3.753,-1.882l1.431,-0.717c0.429,-0.215 0.87,-0.377 1.315,-0.489c0.519,-0.13 1.044,-0.193 1.564,-0.193c0.711,0 1.411,0.117 2.072,0.338c2.205,0.737 3.968,2.628 4.197,5.174c0.018,0.2 0.028,0.403 0.028,0.608c0,0.205 -0.01,0.408 -0.028,0.609c-0.136,1.509 -0.812,2.789 -1.8,3.734c-0.933,0.895 -2.147,1.49 -3.447,1.696c-0.336,0.054 -0.678,0.081 -1.022,0.081Zm-10.793,-6.12c0,-0.901 0.509,-1.726 1.315,-2.13c-0.806,0.404 -1.315,1.229 -1.315,2.13Z" style="fill:#dddcd7;fill-rule:nonzero;"/><path d="M119.777,291.186c-0.5,0 -1.011,-0.112 -1.495,-0.355l-1.399,-0.701c-0.806,-0.404 -1.315,-1.228 -1.315,-2.13c0,-0.901 0.509,-1.726 1.315,-2.13l1.399,-0.701c0.006,-0.003 0.011,-0.005 0.016,-0.008c0.48,-0.237 0.984,-0.347 1.479,-0.347c1.699,0 3.277,1.293 3.29,3.134l0.001,0.052l-0.001,0.052c-0.013,1.841 -1.591,3.134 -3.29,3.134Z" style="fill:#da5550;fill-rule:nonzero;"/></g><path id="fin-4" serif:id="fin 4" d="M232.728,223.613c-0.857,-0.287 -1.766,-0.439 -2.688,-0.439c-0.674,0 -1.356,0.081 -2.03,0.251l0.114,-2.973l1.433,-37.569c0.192,-5.03 1.008,-10.017 2.431,-14.845l6.356,-21.573c0.49,-1.665 2.016,-2.76 3.686,-2.76c0.277,0 0.557,0.03 0.837,0.092c0.742,0.165 1.232,0.874 1.124,1.626l-10.633,73.819l-0.63,4.371Z" style="fill:#f2f1ec;fill-rule:nonzero;"/><path id="fin-5" serif:id="fin 5" d="M279.528,302.351c-0.444,0 -0.88,-0.203 -1.164,-0.583l-20.463,-27.35l-0.046,-0.06l-0.014,-0.019l-5.182,-6.926l-5.017,-6.706l-2.124,-2.839l-6.959,-9.302l-4.274,-5.712l-0.049,-0.065l-2.87,-3.836c1.687,-0.269 3.262,-1.041 4.475,-2.202l2.723,2.939l2.263,2.443l7.002,7.557l4.835,5.219l4.937,5.33l0.01,0.01l4.47,4.824c3.421,3.693 6.37,7.796 8.779,12.217l10.76,19.748c0.968,1.777 0.394,3.999 -1.312,5.085c-0.242,0.154 -0.512,0.228 -0.78,0.228Z" style="fill:#f2f1ec;fill-rule:nonzero;"/><path id="fin-6" serif:id="fin 6" d="M161.516,273.255c-1.452,0 -2.834,-0.827 -3.484,-2.216c-0.323,-0.688 -0.06,-1.508 0.602,-1.882l19.647,-11.084l21.462,-12.108l19.811,-11.177l0.002,0.002c0.005,0.002 0.009,0.004 0.013,0.006l5.721,2.868l-0.47,0.335l-11.876,8.453l-15.829,11.266c-0.165,0.118 -0.33,0.234 -0.496,0.35c-3.963,2.761 -8.242,5.04 -12.746,6.789l-20.967,8.137c-0.456,0.177 -0.927,0.261 -1.39,0.261Z" style="fill:#f2f1ec;fill-rule:nonzero;"/><g id="center-2" serif:id="center 2"><path d="M230.04,239.058c-1.252,0 -2.529,-0.281 -3.736,-0.886l-1.014,-0.508l-5.721,-2.868c0.625,0.311 1.283,0.454 1.927,0.454c2.205,0 4.252,-1.678 4.27,-4.067l0,-0.134c-0.018,-2.389 -2.065,-4.067 -4.27,-4.067c-0.649,0 -1.311,0.145 -1.94,0.46l-1.815,0.91c-1.045,0.524 -1.706,1.594 -1.706,2.764c0,-1.17 0.661,-2.24 1.706,-2.764l6.707,-3.362l1.856,-0.931c0.557,-0.279 1.129,-0.489 1.706,-0.634c0.674,-0.17 1.356,-0.251 2.03,-0.251c0.922,0 1.831,0.152 2.688,0.439c2.862,0.956 5.149,3.41 5.447,6.713c0.024,0.26 0.036,0.524 0.036,0.79c0,0.266 -0.012,0.529 -0.036,0.79c-0.177,1.958 -1.054,3.619 -2.334,4.845c-1.213,1.161 -2.788,1.933 -4.475,2.202c-0.436,0.069 -0.879,0.105 -1.326,0.105Z" style="fill:#dddcd7;fill-rule:nonzero;"/><path d="M221.496,235.25c-0.644,0 -1.302,-0.143 -1.927,-0.454c-0.004,-0.002 -0.008,-0.004 -0.013,-0.006l-0.002,-0.002l-1.813,-0.908c-1.045,-0.524 -1.706,-1.594 -1.706,-2.764c0,-1.17 0.661,-2.24 1.706,-2.764l1.815,-0.91c0.629,-0.315 1.291,-0.46 1.94,-0.46c2.205,0 4.252,1.678 4.27,4.067l0,0.134c-0.018,2.389 -2.065,4.067 -4.27,4.067Z" style="fill:#da5550;fill-rule:nonzero;"/></g><path id="fin-1" serif:id="fin 1" d="M342.985,282.218c-0.661,-0.221 -1.361,-0.338 -2.072,-0.338c-0.52,0 -1.045,0.063 -1.564,0.193l0.087,-2.291l1.105,-28.951c0.148,-3.877 0.777,-7.72 1.873,-11.441l4.898,-16.625c0.378,-1.283 1.554,-2.127 2.841,-2.127c0.213,0 0.429,0.023 0.645,0.071c0.572,0.127 0.949,0.674 0.866,1.253l-8.194,56.888l-0.485,3.368Z" style="fill:#f2f1ec;fill-rule:nonzero;"/><path id="fin-2" serif:id="fin 2" d="M379.05,342.896c-0.342,0 -0.678,-0.156 -0.897,-0.449l-13.639,-18.229l-2.105,-2.814l-0.026,-0.034l-0.045,-0.061l-3.994,-5.337l-3.866,-5.168l-0.06,-0.08l-10.234,-13.678l-0.037,-0.05l-2.212,-2.957c1.3,-0.206 2.514,-0.801 3.448,-1.696l2.099,2.265l1.744,1.883l5.396,5.823l3.726,4.022l3.805,4.107l0.071,0.076l0.655,0.707l2.726,2.943c2.636,2.845 4.909,6.008 6.765,9.414l0.327,0.601l7.965,14.618c0.746,1.369 0.304,3.082 -1.011,3.919c-0.186,0.118 -0.394,0.175 -0.601,0.175Z" style="fill:#f2f1ec;fill-rule:nonzero;"/><path id="fin-3" serif:id="fin 3" d="M288.106,320.474c-1.119,0 -2.183,-0.637 -2.685,-1.707c-0.248,-0.531 -0.046,-1.163 0.464,-1.451l14.226,-8.026l32.721,-18.46l4.421,2.217l-0.362,0.257l-21.351,15.197c-0.42,0.299 -0.845,0.591 -1.275,0.876c-2.801,1.857 -5.794,3.408 -8.93,4.625l-16.157,6.27c-0.352,0.137 -0.715,0.202 -1.072,0.202Z" style="fill:#f2f1ec;fill-rule:nonzero;"/><g id="center-1" serif:id="center 1"><path d="M340.913,294.12c-0.965,0 -1.949,-0.216 -2.879,-0.682l-0.781,-0.391l-4.421,-2.217l-1.397,-0.7c-0.317,-0.159 -0.587,-0.382 -0.8,-0.65c0.213,0.268 0.484,0.491 0.801,0.65l1.398,0.701c0.484,0.243 0.995,0.355 1.495,0.355c1.699,0 3.277,-1.293 3.29,-3.134l0.001,-0.052l-0.001,-0.052c-0.013,-1.841 -1.591,-3.134 -3.29,-3.134c-0.495,0 -0.999,0.11 -1.479,0.347l3.753,-1.882l1.431,-0.717c0.429,-0.215 0.87,-0.377 1.315,-0.489c0.519,-0.13 1.044,-0.193 1.564,-0.193c0.711,0 1.411,0.117 2.072,0.338c2.205,0.737 3.968,2.628 4.197,5.174c0.018,0.2 0.028,0.403 0.028,0.608c0,0.205 -0.01,0.408 -0.028,0.609c-0.136,1.509 -0.812,2.789 -1.799,3.734c-0.934,0.895 -2.148,1.49 -3.448,1.696c-0.336,0.054 -0.678,0.081 -1.022,0.081Zm-10.793,-6.12c0,-0.901 0.509,-1.726 1.315,-2.13l0.715,-0.358l-0.714,0.358c-0.807,0.404 -1.316,1.229 -1.316,2.13Z" style="fill:#dddcd7;fill-rule:nonzero;"/><path d="M334.329,291.186c-0.5,0 -1.011,-0.112 -1.495,-0.355l-1.398,-0.701c-0.317,-0.159 -0.588,-0.382 -0.801,-0.65c-0.327,-0.414 -0.515,-0.933 -0.515,-1.48c0,-0.901 0.509,-1.726 1.316,-2.13l0.714,-0.358l0.684,-0.343c0.006,-0.003 0.011,-0.005 0.016,-0.008c0.48,-0.237 0.984,-0.347 1.479,-0.347c1.699,0 3.277,1.293 3.29,3.134l0.001,0.052l-0.001,0.052c-0.013,1.841 -1.591,3.134 -3.29,3.134Z" style="fill:#da5550;fill-rule:nonzero;"/></g></g></svg>